{"glyphs":{"0":{"ha":894,"x_min":63,"x_max":832,"o":"m 63 467 q 111 726 63 615 q 247 894 160 836 q 447 953 333 953 q 648 894 561 953 q 783 726 735 836 q 832 467 832 615 q 783 208 832 318 q 647 40 735 99 q 447 -19 560 -19 q 247 40 335 -19 q 111 208 160 99 q 63 467 63 318 m 724 467 q 690 674 724 588 q 593 806 656 760 q 447 851 531 851 q 301 806 364 851 q 205 674 239 760 q 171 467 171 588 q 205 260 171 346 q 301 128 239 174 q 447 82 364 82 q 593 128 531 82 q 690 260 656 174 q 724 467 724 346 z "},"1":{"ha":515,"x_min":49,"x_max":375,"o":"m 267 808 l 49 672 l 49 789 l 279 933 l 375 933 l 375 0 l 267 0 l 267 808 z "},"2":{"ha":828,"x_min":78,"x_max":751,"o":"m 207 101 l 736 101 l 736 0 l 92 0 l 92 88 q 131 268 92 203 q 212 353 158 314 q 381 449 265 392 q 540 537 483 499 q 619 612 596 575 q 643 696 643 649 q 585 808 643 764 q 435 851 526 851 q 258 792 324 851 q 185 624 193 732 l 78 632 q 183 866 86 779 q 435 953 279 953 q 596 919 524 953 q 710 826 668 885 q 751 696 751 768 q 724 574 751 626 q 635 476 697 522 q 464 376 572 429 q 295 286 342 317 q 229 221 249 256 q 213 173 218 200 q 207 101 208 146 z "},"3":{"ha":817,"x_min":64,"x_max":740,"o":"m 64 310 l 171 326 q 248 144 185 206 q 421 82 311 82 q 574 132 517 82 q 632 264 632 182 q 574 404 632 358 q 400 450 517 450 l 331 450 l 331 546 l 400 546 q 505 566 457 546 q 580 621 553 586 q 607 697 607 656 q 557 810 607 769 q 419 851 507 851 q 268 805 328 851 q 196 676 208 758 l 89 692 q 195 882 106 811 q 419 953 285 953 q 574 922 507 953 q 678 835 642 892 q 715 706 715 779 q 679 590 715 643 q 582 510 643 536 l 582 507 q 698 415 656 479 q 740 264 740 351 q 701 116 740 181 q 588 16 661 51 q 421 -19 515 -19 q 174 67 267 -19 q 64 310 81 153 z "},"4":{"ha":778,"x_min":14,"x_max":736,"o":"m 501 186 l 14 186 l 14 286 l 446 933 l 610 933 l 610 288 l 736 288 l 736 186 l 610 186 l 610 0 l 501 0 l 501 186 m 501 288 l 501 847 l 499 847 l 124 288 l 501 288 z "},"5":{"ha":813,"x_min":56,"x_max":763,"o":"m 56 247 l 160 274 q 244 130 182 178 q 411 82 306 82 q 587 145 519 82 q 654 313 654 208 q 588 474 654 411 q 411 538 521 538 q 281 512 339 538 q 175 438 224 486 l 76 463 l 171 933 l 679 933 l 679 832 l 254 832 l 200 568 l 203 567 q 428 633 293 633 q 600 592 524 633 q 719 477 676 550 q 763 313 763 404 q 718 139 763 214 q 594 22 674 64 q 411 -19 514 -19 q 176 50 268 -19 q 56 247 83 119 z "},"6":{"ha":853,"x_min":63,"x_max":804,"o":"m 804 301 q 758 133 804 206 q 634 20 713 60 q 460 -19 556 -19 q 245 38 335 -19 q 109 201 156 94 q 63 453 63 308 q 115 711 63 597 q 258 889 167 825 q 464 953 350 953 q 674 889 589 953 q 789 704 760 825 l 683 679 q 604 810 658 769 q 467 851 550 851 q 323 806 388 851 q 220 675 258 760 q 178 478 182 590 l 182 478 q 294 582 218 543 q 472 621 371 621 q 642 580 567 621 q 761 466 718 539 q 804 301 804 393 m 696 301 q 629 464 696 403 q 458 525 563 525 q 330 496 386 525 q 243 416 274 467 q 213 301 213 365 q 243 189 213 239 q 330 110 274 139 q 460 82 386 82 q 578 108 524 82 q 664 184 632 135 q 696 301 696 233 z "},"7":{"ha":697,"x_min":21,"x_max":656,"o":"m 533 831 l 533 832 l 21 832 l 21 933 l 656 933 l 656 838 l 258 0 l 138 0 l 533 831 z "},"8":{"ha":786,"x_min":35,"x_max":751,"o":"m 35 258 q 83 411 35 346 q 221 508 132 476 l 221 511 q 89 707 89 578 q 128 833 89 776 q 236 921 167 889 q 393 953 306 953 q 550 921 481 953 q 658 833 619 889 q 697 707 697 776 q 567 511 697 579 l 567 508 q 702 410 653 475 q 751 258 751 346 q 707 112 751 175 q 581 14 663 49 q 393 -21 500 -21 q 205 14 286 -21 q 79 112 124 49 q 35 258 35 175 m 590 701 q 535 813 590 769 q 393 856 481 856 q 251 813 304 856 q 197 701 197 771 q 251 593 197 633 q 393 553 304 553 q 536 593 482 553 q 590 701 590 633 m 639 265 q 572 400 639 349 q 393 451 506 451 q 214 400 281 451 q 147 265 147 349 q 213 132 147 181 q 393 83 279 83 q 572 132 506 83 q 639 265 639 181 z "},"9":{"ha":819,"x_min":49,"x_max":757,"o":"m 757 521 q 720 212 757 331 q 606 36 683 93 q 403 -21 528 -21 q 203 42 286 -21 q 90 217 121 104 l 196 244 q 403 83 247 83 q 576 162 519 83 q 640 421 632 240 l 636 421 q 534 343 597 371 q 388 315 471 315 q 140 402 231 315 q 49 638 49 489 q 93 800 49 728 q 216 913 138 872 q 393 953 294 953 q 660 842 563 953 q 757 521 757 732 m 624 631 q 560 789 624 729 q 393 849 497 849 q 224 790 288 849 q 161 638 161 732 q 224 476 161 536 q 393 417 286 417 q 560 476 496 417 q 624 631 624 535 z "},"\r":{"ha":488,"x_min":0,"x_max":0,"o":""}," ":{"ha":375,"x_min":0,"x_max":0,"o":""},"!":{"ha":542,"x_min":189,"x_max":354,"o":"m 214 972 l 329 972 l 329 286 l 214 286 l 214 972 m 189 161 l 354 161 l 354 0 l 189 0 l 189 161 z "},"\"":{"ha":538,"x_min":126,"x_max":411,"o":"m 126 972 l 228 972 l 228 663 l 126 663 l 126 972 m 310 972 l 411 972 l 411 663 l 310 663 l 310 972 z "},"#":{"ha":1092,"x_min":85,"x_max":1007,"o":"m 778 619 l 732 360 l 944 360 l 928 261 l 714 261 l 668 0 l 560 0 l 606 261 l 404 261 l 358 0 l 251 0 l 297 261 l 85 261 l 101 360 l 315 360 l 361 619 l 147 619 l 164 717 l 378 717 l 424 972 l 531 972 l 485 717 l 686 717 l 732 972 l 840 972 l 794 717 l 1007 717 l 990 619 l 778 619 m 669 619 l 468 619 l 422 360 l 624 360 l 669 619 z "},"$":{"ha":910,"x_min":63,"x_max":847,"o":"m 488 -21 l 488 -153 l 419 -153 l 419 -18 q 170 83 264 -3 q 63 322 76 169 l 176 340 q 253 163 193 224 q 419 89 314 101 l 419 467 q 251 525 318 496 q 141 605 185 554 q 97 733 97 656 q 139 867 97 808 q 254 958 181 925 q 419 993 328 992 l 419 1113 l 488 1113 l 488 990 q 706 901 619 976 q 811 710 792 825 l 697 688 q 488 883 656 860 l 488 557 q 672 492 599 525 q 797 399 746 458 q 847 246 847 339 q 802 108 847 168 q 676 13 757 47 q 488 -21 594 -21 m 419 576 l 419 888 q 267 844 326 885 q 208 736 208 804 q 263 642 208 678 q 419 576 317 607 m 735 244 q 671 367 735 324 q 488 446 607 411 l 488 85 q 669 128 603 85 q 735 244 735 171 z "},"%":{"ha":1393,"x_min":85,"x_max":1310,"o":"m 322 -50 l 999 1076 l 1085 1024 l 410 -100 l 322 -50 m 85 681 q 150 903 85 821 q 328 985 215 985 q 508 903 442 985 q 574 681 574 821 q 508 458 574 540 q 328 376 442 376 q 150 458 215 376 q 85 681 85 540 m 469 681 q 433 836 469 782 q 328 890 397 890 q 224 836 260 890 q 189 681 189 782 q 224 525 189 579 q 328 471 260 471 q 433 525 397 471 q 469 681 469 579 m 821 292 q 886 514 821 432 q 1064 596 951 596 q 1244 514 1178 596 q 1310 292 1310 432 q 1244 69 1310 151 q 1064 -12 1178 -12 q 886 69 951 -12 q 821 292 821 151 m 1204 292 q 1168 447 1204 393 q 1064 501 1132 501 q 960 447 996 501 q 925 292 925 393 q 960 136 925 190 q 1064 82 996 82 q 1168 136 1132 82 q 1204 292 1204 190 z "},"&":{"ha":933,"x_min":85,"x_max":899,"o":"m 833 60 l 742 142 q 619 21 701 63 q 419 -21 538 -21 q 174 56 264 -21 q 85 264 85 132 q 135 422 85 346 q 281 551 186 497 q 193 659 219 608 q 167 768 167 710 q 199 883 167 832 q 290 964 232 935 q 419 993 347 993 q 599 935 528 993 q 685 774 669 876 l 578 756 q 524 858 563 824 q 421 892 486 892 q 315 856 354 892 q 275 764 275 821 q 292 690 275 722 q 357 617 310 658 l 667 342 l 667 544 l 772 544 l 772 249 l 899 136 l 833 60 m 657 217 l 354 485 q 231 384 268 438 q 193 264 193 331 q 253 130 193 179 q 419 81 314 81 q 573 115 511 81 q 657 217 635 150 z "},"'":{"ha":354,"x_min":126,"x_max":228,"o":"m 126 972 l 228 972 l 228 663 l 126 663 l 126 972 z "},"(":{"ha":508,"x_min":126,"x_max":479,"o":"m 126 410 q 194 769 126 604 q 404 1093 261 933 l 479 1032 q 297 735 353 881 q 242 410 242 589 q 297 85 242 231 q 479 -212 353 -61 l 404 -274 q 194 51 261 -114 q 126 410 126 215 z "},")":{"ha":508,"x_min":29,"x_max":382,"o":"m 29 -212 q 211 85 156 -61 q 267 410 267 231 q 211 735 267 589 q 29 1032 156 881 l 104 1093 q 315 769 247 933 q 382 410 382 604 q 315 51 382 215 q 104 -274 247 -114 l 29 -212 z "},"*":{"ha":679,"x_min":85,"x_max":594,"o":"m 125 533 l 254 688 l 85 790 l 131 865 l 294 771 l 294 971 l 385 971 l 385 771 l 549 865 l 594 790 l 425 688 l 554 533 l 486 472 l 340 653 l 193 472 l 125 533 z "},"+":{"ha":819,"x_min":85,"x_max":735,"o":"m 735 464 l 460 464 l 460 168 l 361 168 l 361 464 l 85 464 l 85 557 l 361 557 l 361 853 l 460 853 l 460 557 l 735 557 l 735 464 z "},",":{"ha":421,"x_min":126,"x_max":296,"o":"m 133 -83 q 183 -58 168 -76 q 199 0 199 -39 l 126 0 l 126 157 l 296 157 l 296 21 q 254 -98 296 -56 q 133 -144 213 -140 l 133 -83 z "},"-":{"ha":504,"x_min":71,"x_max":433,"o":"m 71 464 l 433 464 l 433 360 l 71 360 l 71 464 z "},".":{"ha":418,"x_min":126,"x_max":292,"o":"m 126 161 l 292 161 l 292 0 l 126 0 l 126 161 z "},"/":{"ha":618,"x_min":22,"x_max":596,"o":"m 22 -21 l 518 1028 l 596 993 l 99 -53 l 22 -21 z "},":":{"ha":418,"x_min":126,"x_max":292,"o":"m 126 633 l 292 633 l 292 472 l 126 472 l 126 633 m 126 161 l 292 161 l 292 0 l 126 0 l 126 161 z "},";":{"ha":421,"x_min":126,"x_max":296,"o":"m 133 -83 q 183 -58 168 -76 q 199 0 199 -39 l 126 0 l 126 157 l 296 157 l 296 21 q 254 -98 296 -56 q 133 -144 213 -140 l 133 -83 m 129 633 l 294 633 l 294 472 l 129 472 l 129 633 z "},"<":{"ha":765,"x_min":85,"x_max":681,"o":"m 85 440 l 85 535 l 624 860 l 681 772 l 203 488 l 681 203 l 624 115 l 85 440 z "},"=":{"ha":768,"x_min":85,"x_max":685,"o":"m 85 671 l 685 671 l 685 571 l 85 571 l 85 671 m 85 410 l 685 410 l 685 310 l 85 310 l 85 410 z "},">":{"ha":765,"x_min":85,"x_max":681,"o":"m 85 203 l 563 488 l 85 772 l 142 860 l 681 535 l 681 440 l 142 115 l 85 203 z "},"?":{"ha":819,"x_min":96,"x_max":708,"o":"m 311 353 q 344 464 311 417 q 449 553 376 511 q 560 641 526 599 q 593 740 593 683 q 546 844 593 804 q 428 885 499 885 q 271 830 325 885 q 210 676 217 775 l 96 682 q 139 842 99 772 q 254 953 179 913 q 428 993 329 993 q 567 961 503 993 q 670 872 632 929 q 708 740 708 814 q 662 593 708 654 q 513 474 615 532 q 441 415 460 442 q 422 343 422 388 l 422 264 l 311 264 l 311 353 m 288 161 l 453 161 l 453 0 l 288 0 l 288 161 z "},"@":{"ha":1121,"x_min":85,"x_max":1038,"o":"m 85 406 q 146 665 85 550 q 315 846 207 781 q 561 911 424 911 q 815 850 707 911 q 980 679 922 789 q 1038 428 1038 569 q 985 199 1038 276 q 833 121 933 121 q 701 193 735 121 l 699 193 q 630 138 674 157 q 535 118 586 118 q 408 160 456 118 q 360 276 360 203 q 397 376 360 338 q 515 440 433 415 q 608 471 578 458 q 649 497 638 483 q 661 532 661 510 q 637 578 661 561 q 578 596 613 596 q 460 493 479 596 l 364 510 q 433 640 378 593 q 578 686 489 686 q 713 636 661 686 q 764 501 764 586 l 764 313 q 781 228 764 251 q 840 204 799 204 q 921 261 893 204 q 949 428 949 318 q 902 641 949 550 q 768 781 856 732 q 561 829 681 829 q 361 776 450 829 q 222 626 272 722 q 172 406 172 529 q 277 90 172 201 q 567 -21 382 -21 q 821 43 703 -21 l 856 -33 q 567 -103 726 -103 q 311 -42 419 -103 q 144 133 203 18 q 85 406 85 247 m 663 311 l 663 422 l 660 422 q 546 363 647 393 q 480 330 499 349 q 461 282 461 311 q 483 227 461 246 q 544 208 504 208 q 629 237 596 208 q 663 311 663 265 z "},"A":{"ha":824,"x_min":7,"x_max":817,"o":"m 631 196 l 193 196 l 125 0 l 7 0 l 357 972 l 468 972 l 817 0 l 699 0 l 631 196 m 596 296 l 414 815 l 411 815 l 229 296 l 596 296 z "},"B":{"ha":876,"x_min":119,"x_max":813,"o":"m 119 972 l 493 972 q 699 903 621 972 q 776 721 776 835 q 746 597 776 650 q 663 521 715 544 l 663 518 q 772 433 731 494 q 813 288 813 371 q 726 74 813 147 q 471 0 639 0 l 119 0 l 119 972 m 472 560 q 661 715 661 560 q 613 826 661 789 q 472 864 565 864 l 233 864 l 233 560 l 472 560 m 456 108 q 640 151 582 108 q 697 288 697 193 q 642 418 697 378 q 458 458 586 458 l 233 458 l 233 108 l 456 108 z "},"C":{"ha":896,"x_min":63,"x_max":847,"o":"m 63 486 q 114 751 63 636 q 258 930 165 867 q 472 993 350 993 q 723 901 622 993 q 844 654 824 810 l 731 635 q 644 821 710 757 q 472 885 578 885 q 315 836 382 885 q 213 698 249 788 q 178 486 178 608 q 256 194 178 300 q 472 88 335 88 q 650 157 585 88 q 729 360 715 226 l 847 344 q 733 77 833 175 q 472 -21 633 -21 q 256 42 349 -21 q 113 219 164 104 q 63 486 63 333 z "},"D":{"ha":904,"x_min":119,"x_max":842,"o":"m 119 972 l 422 972 q 641 915 546 972 q 789 747 736 857 q 842 488 842 638 q 728 120 842 240 q 414 0 614 0 l 119 0 l 119 972 m 407 108 q 644 199 561 108 q 726 488 726 289 q 643 767 726 671 q 415 864 560 864 l 233 864 l 233 108 l 407 108 z "},"E":{"ha":779,"x_min":119,"x_max":703,"o":"m 119 972 l 703 972 l 703 864 l 233 864 l 233 553 l 664 553 l 664 450 l 233 450 l 233 108 l 703 108 l 703 0 l 119 0 l 119 972 z "},"F":{"ha":767,"x_min":119,"x_max":704,"o":"m 119 972 l 704 972 l 704 864 l 233 864 l 233 517 l 665 517 l 665 414 l 233 414 l 233 0 l 119 0 l 119 972 z "},"G":{"ha":907,"x_min":63,"x_max":844,"o":"m 63 486 q 113 753 63 639 q 256 931 164 868 q 472 993 349 993 q 647 953 568 993 q 777 841 726 914 q 842 672 828 768 l 728 651 q 642 825 707 765 q 472 885 576 885 q 315 836 382 885 q 213 698 249 788 q 178 486 178 608 q 213 274 178 364 q 315 136 249 185 q 472 88 382 88 q 666 164 597 88 q 732 372 735 240 l 485 372 l 485 481 l 844 481 l 844 382 q 799 169 844 260 q 669 28 753 78 q 472 -21 585 -21 q 256 42 349 -21 q 113 219 164 104 q 63 486 63 333 z "},"H":{"ha":906,"x_min":119,"x_max":786,"o":"m 119 972 l 233 972 l 233 550 l 672 550 l 672 972 l 786 972 l 786 0 l 672 0 l 672 450 l 233 450 l 233 0 l 119 0 l 119 972 z "},"I":{"ha":353,"x_min":119,"x_max":233,"o":"m 119 972 l 233 972 l 233 0 l 119 0 l 119 972 z "},"J":{"ha":725,"x_min":42,"x_max":613,"o":"m 42 268 l 153 281 q 202 134 161 181 q 326 88 243 88 q 453 144 410 88 q 497 308 497 201 l 497 972 l 613 972 l 613 303 q 534 65 613 150 q 326 -21 456 -21 q 124 52 197 -21 q 42 268 51 125 z "},"K":{"ha":835,"x_min":119,"x_max":828,"o":"m 119 972 l 233 972 l 233 468 l 236 468 l 649 972 l 789 972 l 435 546 l 828 0 l 688 0 l 361 457 l 358 457 l 233 306 l 233 0 l 119 0 l 119 972 z "},"L":{"ha":721,"x_min":119,"x_max":672,"o":"m 119 972 l 233 972 l 233 108 l 672 108 l 672 0 l 119 0 l 119 972 z "},"M":{"ha":1176,"x_min":119,"x_max":1058,"o":"m 119 972 l 272 972 l 588 200 l 590 200 l 906 972 l 1058 972 l 1058 0 l 943 0 l 943 789 l 940 789 l 613 0 l 564 0 l 236 789 l 233 789 l 233 0 l 119 0 l 119 972 z "},"N":{"ha":933,"x_min":119,"x_max":814,"o":"m 119 972 l 254 972 l 696 179 l 699 179 l 699 972 l 814 972 l 814 0 l 678 0 l 236 793 l 233 793 l 233 0 l 119 0 l 119 972 z "},"O":{"ha":944,"x_min":63,"x_max":882,"o":"m 63 486 q 114 751 63 636 q 258 930 165 867 q 472 993 350 993 q 687 930 594 993 q 831 751 779 867 q 882 486 882 636 q 831 221 882 336 q 687 42 779 106 q 472 -21 594 -21 q 258 42 350 -21 q 114 221 165 106 q 63 486 63 336 m 767 486 q 731 698 767 608 q 629 836 696 788 q 472 885 563 885 q 315 836 382 885 q 213 698 249 788 q 178 486 178 608 q 213 274 178 364 q 315 136 249 185 q 472 88 382 88 q 629 136 563 88 q 731 274 696 185 q 767 486 767 364 z "},"P":{"ha":854,"x_min":119,"x_max":819,"o":"m 119 972 l 494 972 q 733 892 647 972 q 819 672 819 811 q 734 453 819 532 q 494 375 649 375 l 233 375 l 233 0 l 119 0 l 119 972 m 488 483 q 651 529 599 483 q 704 672 704 575 q 651 817 704 769 q 488 864 597 864 l 233 864 l 233 483 l 488 483 z "},"Q":{"ha":944,"x_min":63,"x_max":882,"o":"m 785 139 l 875 43 l 804 -21 l 721 68 q 472 -21 617 -21 q 258 42 350 -21 q 114 221 165 106 q 63 486 63 336 q 114 751 63 636 q 258 930 165 867 q 472 993 350 993 q 687 930 594 993 q 831 751 779 867 q 882 486 882 636 q 857 294 882 382 q 785 139 832 206 m 646 149 l 444 364 l 517 428 l 707 224 q 767 486 767 326 q 731 698 767 608 q 629 836 696 788 q 472 885 563 885 q 315 836 382 885 q 213 698 249 788 q 178 486 178 608 q 213 274 178 364 q 315 136 249 185 q 472 88 382 88 q 646 149 574 88 z "},"R":{"ha":846,"x_min":119,"x_max":797,"o":"m 554 400 l 768 0 l 633 0 l 428 394 l 233 394 l 233 0 l 119 0 l 119 972 l 474 972 q 711 896 625 972 q 797 685 797 819 q 733 496 797 569 q 554 403 669 422 l 554 400 m 464 503 q 626 549 571 503 q 682 685 682 596 q 627 819 682 774 q 464 864 572 864 l 233 864 l 233 503 l 464 503 z "},"S":{"ha":836,"x_min":49,"x_max":788,"o":"m 49 322 l 163 342 q 248 150 178 213 q 450 88 318 88 q 613 131 551 88 q 674 244 674 174 q 649 331 674 294 q 566 398 624 367 q 406 461 508 429 q 221 538 288 500 q 125 623 154 576 q 96 736 96 669 q 135 869 96 811 q 246 960 175 928 q 407 993 317 993 q 640 917 544 993 q 760 710 736 840 l 647 686 q 563 834 625 783 q 406 885 500 885 q 263 844 317 885 q 210 736 210 804 q 231 671 210 699 q 303 618 253 643 q 443 565 353 593 q 646 479 571 524 q 754 379 721 435 q 788 246 788 324 q 745 107 788 168 q 626 13 703 46 q 449 -21 549 -21 q 167 67 271 -21 q 49 322 64 156 z "},"T":{"ha":818,"x_min":49,"x_max":769,"o":"m 351 864 l 49 864 l 49 972 l 769 972 l 769 864 l 467 864 l 467 0 l 351 0 l 351 864 z "},"U":{"ha":919,"x_min":113,"x_max":808,"o":"m 113 317 l 113 972 l 226 972 l 226 325 q 285 147 226 207 q 458 88 343 88 q 633 147 574 88 q 693 322 693 207 l 693 972 l 808 972 l 808 317 q 717 67 808 154 q 458 -21 626 -21 q 201 67 290 -21 q 113 317 113 154 z "},"V":{"ha":836,"x_min":7,"x_max":829,"o":"m 7 972 l 128 972 l 417 153 l 419 153 l 710 972 l 829 972 l 479 0 l 357 0 l 7 972 z "},"W":{"ha":1174,"x_min":28,"x_max":1146,"o":"m 28 972 l 146 972 l 289 182 l 292 182 l 532 972 l 640 972 l 882 182 l 885 182 l 1028 972 l 1146 972 l 965 0 l 826 0 l 588 781 l 585 781 l 347 0 l 207 0 l 28 972 z "},"X":{"ha":768,"x_min":14,"x_max":754,"o":"m 314 493 l 22 972 l 157 972 l 383 583 l 386 583 l 613 972 l 747 972 l 456 493 l 754 0 l 621 0 l 386 403 l 383 403 l 149 0 l 14 0 l 314 493 z "},"Y":{"ha":796,"x_min":0,"x_max":796,"o":"m 340 406 l 0 972 l 133 972 l 396 518 l 399 518 l 663 972 l 796 972 l 456 406 l 456 0 l 340 0 l 340 406 z "},"Z":{"ha":824,"x_min":63,"x_max":761,"o":"m 63 97 l 622 861 l 622 864 l 85 864 l 85 972 l 761 972 l 761 875 l 203 111 l 203 108 l 747 108 l 747 0 l 63 0 l 63 97 z "},"[":{"ha":429,"x_min":119,"x_max":400,"o":"m 119 1015 l 400 1015 l 400 913 l 229 913 l 229 -149 l 400 -149 l 400 -251 l 119 -251 l 119 1015 z "},"\\":{"ha":618,"x_min":22,"x_max":596,"o":"m 22 992 l 100 1026 l 596 -22 l 519 -54 l 22 992 z "},"]":{"ha":429,"x_min":29,"x_max":310,"o":"m 29 -251 l 29 -149 l 200 -149 l 200 913 l 29 913 l 29 1015 l 310 1015 l 310 -251 l 29 -251 z "},"^":{"ha":769,"x_min":99,"x_max":671,"o":"m 556 451 l 385 839 l 215 451 l 99 451 l 339 972 l 431 972 l 671 451 l 556 451 z "},"_":{"ha":838,"x_min":71,"x_max":767,"o":"m 71 -111 l 767 -111 l 767 -207 l 71 -207 l 71 -111 z "},"`":{"ha":407,"x_min":85,"x_max":324,"o":"m 85 981 l 221 981 l 324 819 l 226 819 l 85 981 z "},"a":{"ha":708,"x_min":64,"x_max":624,"o":"m 64 188 q 124 334 64 281 q 322 421 183 388 q 469 474 429 447 q 510 546 510 501 q 468 628 510 597 q 358 658 426 658 q 238 616 286 658 q 174 500 189 574 l 64 521 q 163 693 82 629 q 358 757 243 757 q 553 693 482 757 q 624 518 624 629 l 624 0 l 522 0 l 522 78 l 519 78 q 431 6 488 32 q 306 -21 375 -21 q 129 35 194 -21 q 64 188 64 92 m 515 249 l 515 414 l 513 414 q 463 367 501 388 q 351 328 425 347 q 213 272 254 303 q 172 194 172 242 q 209 110 172 139 q 314 81 246 81 q 459 128 403 81 q 515 249 515 175 z "},"b":{"ha":814,"x_min":92,"x_max":750,"o":"m 199 74 l 196 74 l 196 0 l 92 0 l 92 1014 l 200 1014 l 200 658 l 203 658 q 296 731 239 704 q 419 757 353 757 q 590 708 515 757 q 708 570 665 658 q 750 368 750 482 q 708 166 750 254 q 590 28 665 78 q 419 -21 515 -21 q 293 4 351 -21 q 199 74 235 29 m 642 368 q 614 519 642 454 q 535 620 586 585 q 419 656 485 656 q 308 627 358 656 q 229 549 258 599 q 200 440 200 499 l 200 297 q 228 188 200 238 q 306 110 257 139 q 413 81 356 81 q 579 159 517 81 q 642 368 642 238 z "},"c":{"ha":782,"x_min":64,"x_max":725,"o":"m 64 368 q 107 571 64 482 q 227 708 150 660 q 404 757 304 757 q 617 685 531 757 q 725 489 704 613 l 619 467 q 547 606 604 557 q 404 656 490 656 q 236 577 300 656 q 172 368 172 499 q 236 159 172 238 q 404 81 300 81 q 547 130 490 81 q 619 269 604 179 l 725 247 q 617 51 704 124 q 404 -21 531 -21 q 227 28 304 -21 q 107 165 150 76 q 64 368 64 254 z "},"d":{"ha":814,"x_min":64,"x_max":722,"o":"m 64 368 q 106 570 64 482 q 224 708 149 658 q 394 757 299 757 q 518 731 461 757 q 611 658 575 704 l 614 658 l 614 1014 l 722 1014 l 722 0 l 618 0 l 618 74 l 615 74 q 521 4 579 29 q 394 -21 463 -21 q 224 28 299 -21 q 106 166 149 78 q 64 368 64 254 m 614 297 l 614 440 q 585 549 614 499 q 506 627 556 599 q 394 656 456 656 q 278 620 329 656 q 200 519 228 585 q 172 368 172 454 q 235 159 172 238 q 401 81 297 81 q 508 110 458 81 q 585 188 557 139 q 614 297 614 238 z "},"e":{"ha":796,"x_min":64,"x_max":733,"o":"m 64 368 q 107 572 64 483 q 227 708 150 660 q 404 757 304 757 q 577 711 503 757 q 692 583 651 665 q 733 392 733 500 l 733 336 l 174 336 q 203 206 175 265 q 283 113 232 147 q 401 78 335 78 q 529 110 479 78 q 626 225 579 143 l 717 171 q 590 28 669 76 q 404 -21 511 -21 q 226 28 303 -21 q 106 165 149 76 q 64 368 64 253 m 624 424 q 560 592 621 525 q 404 658 500 658 q 290 626 342 658 q 208 539 239 593 q 176 424 178 485 l 624 424 z "},"f":{"ha":469,"x_min":28,"x_max":449,"o":"m 154 639 l 28 639 l 28 736 l 154 736 l 154 817 q 198 930 154 888 q 319 972 242 972 l 428 972 l 428 871 l 332 871 q 263 801 263 871 l 263 736 l 449 736 l 449 639 l 263 639 l 263 0 l 154 0 l 154 639 z "},"g":{"ha":807,"x_min":64,"x_max":722,"o":"m 125 -132 l 224 -87 q 303 -199 257 -165 q 424 -233 349 -233 q 563 -175 513 -233 q 614 -15 614 -117 l 614 78 l 611 78 q 523 5 579 31 q 393 -21 467 -21 q 222 28 297 -21 q 106 167 147 78 q 64 368 64 256 q 106 570 64 482 q 222 708 147 658 q 394 757 297 757 q 517 731 460 757 q 611 658 574 706 l 614 658 l 614 736 l 722 736 l 722 -22 q 685 -185 722 -114 q 581 -294 649 -256 q 424 -333 513 -333 q 239 -280 318 -333 q 125 -132 160 -226 m 614 297 l 614 440 q 585 549 614 499 q 506 627 556 599 q 394 656 456 656 q 233 576 294 656 q 172 368 172 497 q 235 159 172 238 q 401 81 297 81 q 508 110 460 81 q 585 189 557 139 q 614 297 614 239 z "},"h":{"ha":771,"x_min":92,"x_max":686,"o":"m 92 1014 l 200 1014 l 200 668 l 203 668 q 290 732 233 707 q 407 757 347 757 q 610 681 535 757 q 686 478 686 606 l 686 0 l 578 0 l 578 463 q 528 604 578 553 q 394 656 479 656 q 253 602 307 656 q 200 463 200 549 l 200 0 l 92 0 l 92 1014 z "},"i":{"ha":290,"x_min":82,"x_max":207,"o":"m 92 736 l 200 736 l 200 0 l 92 0 l 92 736 m 82 986 l 207 986 l 207 865 l 82 865 l 82 986 z "},"j":{"ha":306,"x_min":-14,"x_max":222,"o":"m -14 -140 l 46 -140 q 107 -86 107 -140 l 107 736 l 215 736 l 215 -92 q 176 -206 215 -171 q 51 -242 136 -242 l -14 -242 l -14 -140 m 97 986 l 222 986 l 222 865 l 97 865 l 97 986 z "},"k":{"ha":710,"x_min":92,"x_max":681,"o":"m 92 1014 l 200 1014 l 200 408 l 203 408 l 510 736 l 663 736 l 389 451 l 681 0 l 553 0 l 314 374 l 311 374 l 200 256 l 200 0 l 92 0 l 92 1014 z "},"l":{"ha":290,"x_min":92,"x_max":200,"o":"m 92 1014 l 200 1014 l 200 0 l 92 0 l 92 1014 z "},"m":{"ha":1124,"x_min":92,"x_max":1039,"o":"m 92 736 l 199 736 l 199 679 l 201 679 q 279 736 231 715 q 381 757 328 757 q 493 731 442 757 q 574 663 544 706 l 576 663 q 667 733 614 708 q 782 757 719 757 q 911 727 853 757 q 1004 642 969 697 q 1039 513 1039 586 l 1039 0 l 931 0 l 931 499 q 888 613 931 569 q 775 656 844 656 q 660 610 704 656 q 617 489 617 564 l 617 0 l 513 0 l 513 499 q 469 613 513 569 q 357 656 425 656 q 243 609 286 656 q 200 488 200 563 l 200 0 l 92 0 l 92 736 z "},"n":{"ha":771,"x_min":92,"x_max":686,"o":"m 92 736 l 197 736 l 197 668 l 200 668 q 290 733 233 708 q 407 757 347 757 q 610 681 535 757 q 686 476 686 604 l 686 0 l 578 0 l 578 463 q 528 604 578 553 q 394 656 479 656 q 253 602 307 656 q 200 463 200 549 l 200 0 l 92 0 l 92 736 z "},"o":{"ha":819,"x_min":64,"x_max":757,"o":"m 64 368 q 107 572 64 483 q 228 708 150 660 q 410 757 307 757 q 592 708 513 757 q 714 572 671 660 q 757 368 757 483 q 714 165 757 253 q 592 28 671 76 q 410 -21 513 -21 q 228 28 307 -21 q 107 165 150 76 q 64 368 64 253 m 649 368 q 584 578 649 500 q 410 656 519 656 q 236 578 300 656 q 172 368 172 500 q 236 158 172 236 q 410 81 300 81 q 584 158 519 81 q 649 368 649 236 z "},"p":{"ha":814,"x_min":92,"x_max":750,"o":"m 92 736 l 200 736 l 200 658 l 203 658 q 296 730 239 703 q 418 757 353 757 q 590 708 514 757 q 708 570 665 658 q 750 368 750 482 q 708 166 750 254 q 590 28 665 78 q 421 -21 515 -21 q 296 5 354 -21 q 203 74 238 31 l 200 74 l 200 -312 l 92 -312 l 92 736 m 642 368 q 580 576 642 497 q 418 656 518 656 q 308 627 358 656 q 229 549 258 599 q 200 440 200 499 l 200 297 q 228 188 200 238 q 306 110 257 139 q 413 81 356 81 q 579 159 517 81 q 642 368 642 238 z "},"q":{"ha":814,"x_min":64,"x_max":722,"o":"m 614 -312 l 614 74 l 611 74 q 518 5 576 31 q 393 -21 460 -21 q 224 28 299 -21 q 106 166 149 78 q 64 368 64 254 q 106 570 64 482 q 224 708 149 658 q 396 757 300 757 q 518 730 461 757 q 611 658 575 703 l 614 658 l 614 736 l 722 736 l 722 -312 l 614 -312 m 614 297 l 614 440 q 585 549 614 499 q 506 627 556 599 q 396 656 456 656 q 234 576 296 656 q 172 368 172 497 q 235 159 172 238 q 401 81 297 81 q 508 110 458 81 q 585 188 557 139 q 614 297 614 238 z "},"r":{"ha":451,"x_min":92,"x_max":424,"o":"m 92 736 l 194 736 l 194 675 l 197 675 q 258 729 218 710 q 350 749 297 749 q 424 738 383 749 l 400 625 q 328 638 360 638 q 231 591 263 638 q 200 442 200 544 l 200 0 l 92 0 l 92 736 z "},"s":{"ha":697,"x_min":50,"x_max":649,"o":"m 50 251 l 156 271 q 224 125 172 169 q 376 81 275 81 q 495 109 451 81 q 539 186 539 138 q 521 247 539 222 q 460 291 503 271 q 336 335 417 311 q 187 391 242 363 q 108 456 132 419 q 85 546 85 493 q 117 655 85 607 q 209 730 150 703 q 342 757 268 757 q 528 698 451 757 q 626 538 606 639 l 521 514 q 456 619 501 583 q 342 656 411 656 q 234 626 275 656 q 193 550 193 597 q 231 486 193 511 q 372 431 269 461 q 536 367 476 400 q 622 292 596 335 q 649 190 649 250 q 574 37 649 94 q 376 -21 500 -21 q 148 50 233 -21 q 50 251 63 121 z "},"t":{"ha":469,"x_min":28,"x_max":428,"o":"m 247 639 l 247 168 q 265 117 247 132 q 328 101 283 101 l 389 101 l 389 0 l 319 0 q 179 38 219 0 q 139 169 139 75 l 139 639 l 28 639 l 28 736 l 139 736 l 139 903 l 247 903 l 247 736 l 428 736 l 428 639 l 247 639 z "},"u":{"ha":754,"x_min":78,"x_max":663,"o":"m 78 258 l 78 736 l 186 736 l 186 274 q 231 128 186 175 q 369 81 276 81 q 503 133 453 81 q 554 274 554 186 l 554 736 l 663 736 l 663 0 l 557 0 l 557 68 l 554 68 q 462 3 519 28 q 338 -21 404 -21 q 146 52 214 -21 q 78 258 78 125 z "},"v":{"ha":744,"x_min":14,"x_max":731,"o":"m 14 736 l 131 736 l 371 149 l 374 149 l 614 736 l 731 736 l 419 0 l 325 0 l 14 736 z "},"w":{"ha":1049,"x_min":35,"x_max":1014,"o":"m 35 736 l 142 736 l 275 164 l 278 164 l 475 736 l 574 736 l 771 164 l 774 164 l 907 736 l 1014 736 l 838 0 l 735 0 l 526 601 l 524 601 l 314 0 l 211 0 l 35 736 z "},"x":{"ha":651,"x_min":7,"x_max":644,"o":"m 260 375 l 15 736 l 143 736 l 324 460 l 326 460 l 508 736 l 636 736 l 390 375 l 644 0 l 517 0 l 326 290 l 324 290 l 135 0 l 7 0 l 260 375 z "},"y":{"ha":710,"x_min":14,"x_max":696,"o":"m 297 63 l 14 736 l 129 736 l 353 188 l 356 188 l 581 736 l 696 736 l 254 -312 l 142 -312 l 297 63 z "},"z":{"ha":694,"x_min":42,"x_max":653,"o":"m 42 97 l 510 636 l 510 639 l 58 639 l 58 736 l 642 736 l 642 639 l 174 100 l 174 97 l 653 97 l 653 0 l 42 0 l 42 97 z "},"{":{"ha":507,"x_min":85,"x_max":479,"o":"m 197 -51 l 197 250 q 181 315 197 297 q 124 332 165 332 l 85 332 l 85 460 l 124 460 q 181 476 165 460 q 197 542 197 493 l 197 815 q 241 967 197 919 q 381 1015 285 1015 l 479 1015 l 479 906 l 400 906 q 329 879 350 906 q 308 789 308 853 l 308 525 q 279 431 308 464 q 207 397 250 397 l 207 394 q 279 361 250 394 q 308 265 308 328 l 308 -25 q 329 -116 308 -89 q 400 -143 350 -143 l 479 -143 l 479 -251 l 381 -251 q 241 -204 285 -251 q 197 -51 197 -157 z "},"|":{"ha":361,"x_min":140,"x_max":221,"o":"m 140 1076 l 221 1076 l 221 -417 l 140 -417 l 140 1076 z "},"}":{"ha":507,"x_min":28,"x_max":422,"o":"m 28 -251 l 28 -143 l 107 -143 q 178 -116 157 -143 q 199 -25 199 -89 l 199 265 q 228 361 199 328 q 300 394 257 394 l 300 397 q 228 431 257 397 q 199 525 199 464 l 199 789 q 178 879 199 853 q 107 906 157 906 l 28 906 l 28 1015 l 126 1015 q 266 967 222 1015 q 310 815 310 919 l 310 542 q 326 476 310 493 q 383 460 342 460 l 422 460 l 422 332 l 383 332 q 326 315 342 332 q 310 250 310 297 l 310 -51 q 266 -204 310 -157 q 126 -251 222 -251 l 28 -251 z "},"~":{"ha":881,"x_min":85,"x_max":796,"o":"m 85 408 q 158 551 104 501 q 289 601 211 601 q 378 584 339 601 q 469 533 417 567 q 534 496 508 508 q 586 483 560 483 q 651 510 626 483 q 697 603 676 538 l 796 571 q 721 429 774 479 q 590 379 668 379 q 501 397 542 379 q 411 446 461 414 q 347 483 372 471 q 293 496 321 496 q 228 469 253 496 q 183 379 203 443 l 85 408 z "}," ":{"ha":375,"x_min":0,"x_max":0,"o":""},"¡":{"ha":431,"x_min":133,"x_max":299,"o":"m 299 736 l 299 575 l 133 575 l 133 736 l 299 736 m 274 450 l 274 -236 l 158 -236 l 158 450 l 274 450 z "},"¢":{"ha":869,"x_min":78,"x_max":800,"o":"m 696 268 l 800 247 q 693 62 778 133 q 485 -19 608 -10 l 485 -153 l 417 -153 l 417 -19 q 240 38 317 -12 q 120 174 163 89 q 78 368 78 260 q 120 562 78 476 q 240 698 163 647 q 417 756 317 749 l 417 876 l 485 876 l 485 756 q 693 674 608 746 q 800 489 778 603 l 696 468 q 625 599 681 550 q 485 657 569 647 l 485 79 q 625 138 569 89 q 696 268 681 186 m 417 79 l 417 657 q 247 567 311 646 q 183 368 183 489 q 247 169 183 247 q 417 79 311 90 z "},"£":{"ha":839,"x_min":97,"x_max":790,"o":"m 364 108 l 764 108 l 764 0 l 97 0 l 97 108 l 176 108 q 283 155 244 108 q 321 275 321 201 q 265 428 321 349 l 97 428 l 97 529 l 199 529 q 142 626 163 578 q 122 729 122 674 q 163 867 122 807 q 276 960 203 928 q 444 993 349 993 q 690 914 596 993 q 790 700 783 835 l 676 689 q 610 836 668 788 q 446 885 551 885 q 296 843 350 885 q 242 729 242 801 q 263 633 242 678 q 325 529 285 588 l 640 529 l 640 428 l 386 428 q 428 275 428 351 q 412 185 428 228 q 364 111 396 142 l 364 108 z "},"¤":{"ha":832,"x_min":64,"x_max":769,"o":"m 676 250 l 769 158 l 715 103 l 624 193 q 415 119 535 119 q 208 192 296 119 l 118 103 l 64 158 l 154 250 q 90 458 90 340 q 153 665 90 576 l 64 756 l 118 810 l 204 724 q 300 779 246 760 q 415 799 354 799 q 530 778 476 799 q 626 721 583 758 l 715 810 l 769 756 l 679 664 q 740 458 740 575 q 676 250 740 340 m 621 456 q 565 629 621 564 q 417 694 510 694 q 266 630 322 694 q 210 456 210 565 q 265 286 210 349 q 417 224 321 224 q 565 287 510 224 q 621 456 621 350 z "},"¥":{"ha":824,"x_min":14,"x_max":810,"o":"m 514 479 l 749 479 l 749 378 l 469 378 l 469 279 l 749 279 l 749 178 l 469 178 l 469 0 l 354 0 l 354 178 l 63 178 l 63 279 l 354 279 l 354 378 l 63 378 l 63 479 l 310 479 l 14 972 l 147 972 l 410 518 l 413 518 l 676 972 l 810 972 l 514 479 z "},"¦":{"ha":361,"x_min":140,"x_max":221,"o":"m 140 1076 l 221 1076 l 221 486 l 140 486 l 140 1076 m 140 174 l 221 174 l 221 -417 l 140 -417 l 140 174 z "},"§":{"ha":878,"x_min":113,"x_max":767,"o":"m 717 -18 q 683 -140 717 -86 q 590 -226 650 -194 q 451 -257 529 -257 q 251 -187 329 -257 q 163 -6 174 -117 l 278 8 q 451 -149 299 -149 q 559 -112 517 -149 q 601 -18 601 -76 q 567 64 601 29 q 458 128 532 99 l 308 188 q 159 278 206 228 q 113 406 113 329 q 232 599 113 506 q 163 756 163 664 q 196 878 163 824 q 289 963 229 932 q 426 993 349 993 q 626 923 549 993 q 715 742 704 853 l 600 729 q 545 845 589 806 q 426 885 501 885 q 319 849 361 885 q 276 756 276 813 q 311 672 276 707 q 421 608 346 638 l 571 549 q 719 458 672 508 q 767 331 767 407 q 647 139 767 229 q 717 -18 717 72 m 513 222 q 563 199 535 214 q 628 260 604 225 q 651 331 651 296 q 621 397 651 368 q 524 453 590 426 l 367 515 q 318 538 333 529 q 251 475 275 510 q 228 406 228 440 q 258 339 228 368 q 356 283 289 310 l 513 222 z "},"¨":{"ha":551,"x_min":85,"x_max":468,"o":"m 85 936 l 218 936 l 218 806 l 85 806 l 85 936 m 335 936 l 468 936 l 468 806 l 335 806 l 335 936 z "},"©":{"ha":996,"x_min":71,"x_max":925,"o":"m 71 450 q 127 667 71 569 q 281 819 183 764 q 497 875 378 875 q 715 819 617 875 q 869 667 813 764 q 925 450 925 569 q 869 233 925 331 q 715 78 813 135 q 497 22 617 22 q 281 78 378 22 q 127 233 183 135 q 71 450 71 331 m 846 450 q 801 631 846 550 q 676 758 756 713 q 497 804 597 804 q 319 758 399 804 q 194 631 239 713 q 149 450 149 550 q 194 268 149 350 q 319 140 239 186 q 497 93 399 93 q 676 140 597 93 q 801 268 756 186 q 846 450 846 350 m 292 449 q 351 633 292 563 q 510 703 411 703 q 642 655 588 703 q 708 531 697 607 l 619 513 q 581 591 610 564 q 510 618 553 618 q 419 572 453 618 q 386 449 386 526 q 419 325 386 371 q 510 279 453 279 q 581 306 553 279 q 619 385 610 333 l 708 367 q 642 242 697 290 q 510 194 588 194 q 351 265 411 194 q 292 449 292 335 z "},"ª":{"ha":389,"x_min":21,"x_max":347,"o":"m 24 688 q 59 767 24 738 q 174 814 94 796 q 242 836 222 825 q 261 864 261 847 q 243 898 261 886 q 194 910 225 910 q 135 891 158 910 q 106 838 111 872 l 21 851 q 78 946 31 910 q 194 982 126 982 q 306 945 264 982 q 347 847 347 908 l 347 589 l 271 589 l 271 629 l 269 629 q 222 592 254 606 q 151 579 190 579 q 58 608 93 579 q 24 688 24 638 m 263 728 l 263 786 l 261 786 q 238 767 254 774 q 190 751 222 760 q 127 726 144 738 q 110 694 110 714 q 171 653 110 653 q 235 675 207 653 q 263 728 263 697 z "},"«":{"ha":665,"x_min":99,"x_max":582,"o":"m 317 390 l 469 649 l 582 649 l 425 390 l 582 132 l 469 132 l 317 390 m 99 390 l 251 649 l 364 649 l 207 390 l 364 132 l 251 132 l 99 390 z "},"¬":{"ha":863,"x_min":85,"x_max":779,"o":"m 664 496 l 85 496 l 85 604 l 779 604 l 779 242 l 664 242 l 664 496 z "},"­":{"ha":504,"x_min":71,"x_max":433,"o":"m 71 464 l 433 464 l 433 360 l 71 360 l 71 464 z "},"®":{"ha":996,"x_min":71,"x_max":925,"o":"m 925 450 q 869 233 925 331 q 715 78 813 135 q 497 22 617 22 q 281 78 378 22 q 127 233 183 135 q 71 450 71 331 q 127 667 71 569 q 281 819 183 764 q 497 875 378 875 q 715 819 617 875 q 869 667 813 764 q 925 450 925 569 m 846 450 q 801 631 846 550 q 676 758 756 713 q 497 804 597 804 q 319 758 399 804 q 194 631 239 713 q 149 450 149 550 q 194 268 149 350 q 319 140 239 186 q 497 93 399 93 q 676 140 597 93 q 801 268 756 186 q 846 450 846 350 m 599 396 l 700 206 l 599 206 l 504 388 l 432 388 l 432 206 l 340 206 l 340 692 l 540 692 q 660 651 617 692 q 704 540 704 611 q 676 448 704 485 q 599 396 649 411 m 610 540 q 528 611 610 611 l 436 611 l 436 464 l 528 464 q 588 484 567 464 q 610 540 610 504 z "},"¯":{"ha":539,"x_min":85,"x_max":456,"o":"m 85 907 l 456 907 l 456 819 l 85 819 l 85 907 z "},"°":{"ha":604,"x_min":57,"x_max":549,"o":"m 57 743 q 89 865 57 811 q 176 949 121 919 q 303 979 232 979 q 428 949 372 979 q 517 865 485 919 q 549 743 549 811 q 517 619 549 674 q 428 535 485 565 q 303 506 372 506 q 176 535 232 506 q 89 619 121 565 q 57 743 57 674 m 447 743 q 407 846 447 807 q 303 885 367 885 q 198 846 238 885 q 158 743 158 807 q 198 640 158 679 q 303 601 238 601 q 407 640 367 601 q 447 743 447 679 z "},"±":{"ha":821,"x_min":85,"x_max":736,"o":"m 361 546 l 85 546 l 85 639 l 361 639 l 361 907 l 460 907 l 460 639 l 735 639 l 735 546 l 460 546 l 460 276 l 361 276 l 361 546 m 736 190 l 736 96 l 86 96 l 86 190 l 736 190 z "},"´":{"ha":407,"x_min":85,"x_max":324,"o":"m 188 981 l 324 981 l 182 819 l 85 819 l 188 981 z "},"¶":{"ha":797,"x_min":43,"x_max":671,"o":"m 244 554 q 143 582 189 556 q 70 656 97 608 q 43 763 43 703 q 102 916 43 860 q 250 972 161 972 l 671 972 l 671 -189 l 557 -189 l 557 864 l 360 864 l 360 -189 l 244 -189 l 244 554 z "},"·":{"ha":335,"x_min":86,"x_max":251,"o":"m 86 607 l 251 607 l 251 446 l 86 446 l 86 607 z "},"¸":{"ha":453,"x_min":85,"x_max":369,"o":"m 369 -174 q 328 -265 369 -231 q 226 -300 288 -300 q 85 -244 146 -300 l 132 -187 q 226 -229 175 -229 q 275 -213 257 -229 q 293 -172 293 -197 q 274 -132 293 -147 q 228 -117 256 -117 q 151 -153 182 -117 l 92 -126 l 181 39 l 244 19 l 196 -64 q 243 -56 217 -56 q 333 -89 296 -56 q 369 -174 369 -122 z "},"º":{"ha":431,"x_min":21,"x_max":410,"o":"m 21 781 q 75 926 21 869 q 215 982 129 982 q 356 926 301 982 q 410 781 410 869 q 356 635 410 692 q 215 579 301 579 q 75 635 129 579 q 21 781 21 692 m 321 781 q 292 870 321 838 q 215 903 264 903 q 138 870 167 903 q 110 781 110 838 q 138 691 110 724 q 215 658 167 658 q 292 691 264 658 q 321 781 321 724 z "},"»":{"ha":665,"x_min":83,"x_max":567,"o":"m 83 132 l 240 390 l 83 649 l 196 649 l 349 390 l 196 132 l 83 132 m 301 132 l 458 390 l 301 649 l 414 649 l 567 390 l 414 132 l 301 132 z "},"¼":{"ha":1139,"x_min":35,"x_max":1118,"o":"m 181 868 l 35 781 l 35 882 l 186 972 l 278 972 l 278 389 l 181 389 l 181 868 m 142 -51 l 819 1076 l 897 1028 l 222 -97 l 142 -51 m 943 108 l 635 108 l 635 199 l 883 583 l 1042 583 l 1042 197 l 1118 197 l 1118 108 l 1042 108 l 1042 0 l 943 0 l 943 108 m 943 197 l 943 515 l 942 515 l 735 197 l 943 197 z "},"½":{"ha":1179,"x_min":35,"x_max":1138,"o":"m 181 868 l 35 781 l 35 882 l 186 972 l 278 972 l 278 389 l 181 389 l 181 868 m 142 -51 l 819 1076 l 897 1028 l 222 -97 l 142 -51 m 817 88 l 1135 88 l 1135 0 l 711 0 l 711 72 q 746 200 711 160 q 803 247 767 225 q 903 296 840 269 q 1011 358 982 331 q 1040 422 1040 385 q 1010 485 1040 461 q 932 510 981 510 q 840 476 875 510 q 801 386 804 443 l 704 393 q 771 540 708 485 q 932 596 833 596 q 1079 547 1021 596 q 1138 422 1138 497 q 1101 315 1138 357 q 968 229 1064 274 q 865 178 889 192 q 832 153 842 165 q 821 128 824 142 q 817 88 818 115 z "},"¾":{"ha":1276,"x_min":35,"x_max":1256,"o":"m 35 585 l 131 599 q 171 499 138 533 q 264 465 204 465 q 347 491 317 465 q 376 561 376 517 q 258 653 376 653 l 208 653 l 208 732 l 249 732 q 329 753 301 732 q 357 814 357 775 q 329 874 357 850 q 257 897 301 897 q 179 872 210 897 q 142 800 149 846 l 46 815 q 114 939 57 893 q 257 985 171 985 q 399 940 343 985 q 454 824 454 894 q 438 758 454 788 q 383 703 421 729 l 383 701 q 472 553 472 656 q 415 425 472 474 q 264 376 357 376 q 103 431 163 376 q 35 585 43 485 m 279 -51 l 957 1076 l 1035 1028 l 360 -97 l 279 -51 m 1081 108 l 772 108 l 772 199 l 1021 583 l 1179 583 l 1179 197 l 1256 197 l 1256 108 l 1179 108 l 1179 0 l 1081 0 l 1081 108 m 1081 197 l 1081 515 l 1079 515 l 872 197 l 1081 197 z "},"¿":{"ha":819,"x_min":111,"x_max":724,"o":"m 532 575 l 367 575 l 367 736 l 532 736 l 532 575 m 508 383 q 476 272 508 319 q 371 183 443 225 q 260 95 293 138 q 226 -4 226 53 q 274 -108 226 -68 q 392 -149 321 -149 q 549 -94 494 -149 q 610 60 603 -39 l 724 54 q 681 -106 721 -36 q 565 -217 640 -176 q 392 -257 490 -257 q 252 -225 317 -257 q 149 -135 188 -193 q 111 -4 111 -78 q 158 143 111 82 q 307 263 204 204 q 378 322 360 294 q 397 393 397 349 l 397 472 l 508 472 l 508 383 z "},"À":{"ha":824,"x_min":7,"x_max":817,"o":"m 631 196 l 193 196 l 125 0 l 7 0 l 357 972 l 468 972 l 817 0 l 699 0 l 631 196 m 596 296 l 414 815 l 411 815 l 229 296 l 596 296 m 235 1217 l 371 1217 l 474 1056 l 376 1056 l 235 1217 z "},"Á":{"ha":824,"x_min":7,"x_max":817,"o":"m 631 196 l 193 196 l 125 0 l 7 0 l 357 972 l 468 972 l 817 0 l 699 0 l 631 196 m 596 296 l 414 815 l 411 815 l 229 296 l 596 296 m 450 1217 l 586 1217 l 444 1056 l 347 1056 l 450 1217 z "},"Â":{"ha":824,"x_min":7,"x_max":817,"o":"m 631 196 l 193 196 l 125 0 l 7 0 l 357 972 l 468 972 l 817 0 l 699 0 l 631 196 m 596 296 l 414 815 l 411 815 l 229 296 l 596 296 m 514 1028 l 413 1156 l 311 1028 l 246 1079 l 338 1197 l 488 1197 l 579 1079 l 514 1028 z "},"Ã":{"ha":824,"x_min":7,"x_max":817,"o":"m 631 196 l 193 196 l 125 0 l 7 0 l 357 972 l 468 972 l 817 0 l 699 0 l 631 196 m 596 296 l 414 815 l 411 815 l 229 296 l 596 296 m 394 1079 q 361 1094 378 1088 q 329 1101 344 1101 q 279 1056 289 1101 l 214 1056 q 251 1150 218 1115 q 335 1185 283 1185 q 383 1176 361 1185 q 429 1154 404 1168 q 463 1139 446 1146 q 494 1132 479 1132 q 544 1178 535 1132 l 610 1178 q 573 1083 606 1118 q 489 1049 540 1049 q 441 1057 463 1049 q 394 1079 419 1065 z "},"Ä":{"ha":824,"x_min":7,"x_max":817,"o":"m 631 196 l 193 196 l 125 0 l 7 0 l 357 972 l 468 972 l 817 0 l 699 0 l 631 196 m 596 296 l 414 815 l 411 815 l 229 296 l 596 296 m 221 1172 l 354 1172 l 354 1042 l 221 1042 l 221 1172 m 471 1172 l 604 1172 l 604 1042 l 471 1042 l 471 1172 z "},"Å":{"ha":824,"x_min":7,"x_max":817,"o":"m 631 196 l 193 196 l 125 0 l 7 0 l 357 972 l 468 972 l 817 0 l 699 0 l 631 196 m 596 296 l 414 815 l 411 815 l 229 296 l 596 296 m 243 1063 q 291 1176 243 1131 q 413 1221 339 1221 q 534 1176 486 1221 q 582 1063 582 1132 q 534 950 582 994 q 413 906 486 906 q 291 950 339 906 q 243 1063 243 994 m 504 1063 q 478 1128 504 1103 q 413 1154 453 1154 q 347 1128 372 1154 q 322 1063 322 1103 q 347 998 322 1024 q 413 972 372 972 q 478 998 453 972 q 504 1063 504 1024 z "},"Æ":{"ha":1192,"x_min":7,"x_max":1115,"o":"m 731 864 l 731 553 l 1076 553 l 1076 449 l 731 449 l 731 108 l 1115 108 l 1115 0 l 615 0 l 615 207 l 226 207 l 135 0 l 7 0 l 446 972 l 1115 972 l 1115 864 l 731 864 m 615 313 l 615 864 l 518 864 l 274 313 l 615 313 z "},"Ç":{"ha":896,"x_min":63,"x_max":847,"o":"m 63 486 q 114 751 63 636 q 258 930 165 867 q 472 993 350 993 q 723 901 622 993 q 844 654 824 810 l 731 635 q 644 821 710 757 q 472 885 578 885 q 315 836 382 885 q 213 698 249 788 q 178 486 178 608 q 256 194 178 300 q 472 88 335 88 q 650 157 585 88 q 729 360 715 226 l 847 344 q 733 77 833 175 q 472 -21 633 -21 q 256 42 349 -21 q 113 219 164 104 q 63 486 63 333 m 643 -193 q 602 -285 643 -250 q 500 -319 561 -319 q 358 -264 419 -319 l 406 -207 q 500 -249 449 -249 q 549 -233 531 -249 q 567 -192 567 -217 q 548 -151 567 -167 q 501 -136 529 -136 q 425 -172 456 -136 l 365 -146 l 454 19 l 518 0 l 469 -83 q 517 -75 490 -75 q 606 -108 569 -75 q 643 -193 643 -142 z "},"È":{"ha":779,"x_min":119,"x_max":703,"o":"m 119 972 l 703 972 l 703 864 l 233 864 l 233 553 l 664 553 l 664 450 l 233 450 l 233 108 l 703 108 l 703 0 l 119 0 l 119 972 m 249 1217 l 385 1217 l 488 1056 l 390 1056 l 249 1217 z "},"É":{"ha":779,"x_min":119,"x_max":703,"o":"m 119 972 l 703 972 l 703 864 l 233 864 l 233 553 l 664 553 l 664 450 l 233 450 l 233 108 l 703 108 l 703 0 l 119 0 l 119 972 m 464 1217 l 600 1217 l 458 1056 l 361 1056 l 464 1217 z "},"Ê":{"ha":779,"x_min":119,"x_max":703,"o":"m 119 972 l 703 972 l 703 864 l 233 864 l 233 553 l 664 553 l 664 450 l 233 450 l 233 108 l 703 108 l 703 0 l 119 0 l 119 972 m 528 1028 l 426 1156 l 325 1028 l 260 1079 l 351 1197 l 501 1197 l 593 1079 l 528 1028 z "},"Ë":{"ha":779,"x_min":119,"x_max":703,"o":"m 119 972 l 703 972 l 703 864 l 233 864 l 233 553 l 664 553 l 664 450 l 233 450 l 233 108 l 703 108 l 703 0 l 119 0 l 119 972 m 235 1172 l 368 1172 l 368 1042 l 235 1042 l 235 1172 m 485 1172 l 618 1172 l 618 1042 l 485 1042 l 485 1172 z "},"Ì":{"ha":353,"x_min":-1,"x_max":238,"o":"m 119 972 l 233 972 l 233 0 l 119 0 l 119 972 m -1 1217 l 135 1217 l 238 1056 l 140 1056 l -1 1217 z "},"Í":{"ha":353,"x_min":111,"x_max":350,"o":"m 119 972 l 233 972 l 233 0 l 119 0 l 119 972 m 214 1217 l 350 1217 l 208 1056 l 111 1056 l 214 1217 z "},"Î":{"ha":353,"x_min":10,"x_max":343,"o":"m 119 972 l 233 972 l 233 0 l 119 0 l 119 972 m 278 1028 l 176 1156 l 75 1028 l 10 1079 l 101 1197 l 251 1197 l 343 1079 l 278 1028 z "},"Ï":{"ha":353,"x_min":-15,"x_max":368,"o":"m 119 972 l 233 972 l 233 0 l 119 0 l 119 972 m -15 1172 l 118 1172 l 118 1042 l -15 1042 l -15 1172 m 235 1172 l 368 1172 l 368 1042 l 235 1042 l 235 1172 z "},"Ð":{"ha":904,"x_min":-6,"x_max":842,"o":"m 119 972 l 422 972 q 641 915 546 972 q 789 747 736 857 q 842 488 842 638 q 728 120 842 240 q 414 0 614 0 l 119 0 l 119 972 m 407 108 q 644 199 561 108 q 726 488 726 289 q 643 767 726 671 q 415 864 560 864 l 233 864 l 233 108 l 407 108 m -6 538 l 483 538 l 483 442 l -6 442 l -6 538 z "},"Ñ":{"ha":933,"x_min":119,"x_max":814,"o":"m 119 972 l 254 972 l 696 179 l 699 179 l 699 972 l 814 972 l 814 0 l 678 0 l 236 793 l 233 793 l 233 0 l 119 0 l 119 972 m 449 1079 q 415 1094 432 1088 q 383 1101 399 1101 q 333 1056 343 1101 l 268 1056 q 305 1150 272 1115 q 389 1185 338 1185 q 437 1176 415 1185 q 483 1154 458 1168 q 517 1139 500 1146 q 549 1132 533 1132 q 599 1178 589 1132 l 664 1178 q 627 1083 660 1118 q 543 1049 594 1049 q 495 1057 517 1049 q 449 1079 474 1065 z "},"Ò":{"ha":944,"x_min":63,"x_max":882,"o":"m 63 486 q 114 751 63 636 q 258 930 165 867 q 472 993 350 993 q 687 930 594 993 q 831 751 779 867 q 882 486 882 636 q 831 221 882 336 q 687 42 779 106 q 472 -21 594 -21 q 258 42 350 -21 q 114 221 165 106 q 63 486 63 336 m 767 486 q 731 698 767 608 q 629 836 696 788 q 472 885 563 885 q 315 836 382 885 q 213 698 249 788 q 178 486 178 608 q 213 274 178 364 q 315 136 249 185 q 472 88 382 88 q 629 136 563 88 q 731 274 696 185 q 767 486 767 364 m 294 1238 l 431 1238 l 533 1076 l 436 1076 l 294 1238 z "},"Ó":{"ha":944,"x_min":63,"x_max":882,"o":"m 63 486 q 114 751 63 636 q 258 930 165 867 q 472 993 350 993 q 687 930 594 993 q 831 751 779 867 q 882 486 882 636 q 831 221 882 336 q 687 42 779 106 q 472 -21 594 -21 q 258 42 350 -21 q 114 221 165 106 q 63 486 63 336 m 767 486 q 731 698 767 608 q 629 836 696 788 q 472 885 563 885 q 315 836 382 885 q 213 698 249 788 q 178 486 178 608 q 213 274 178 364 q 315 136 249 185 q 472 88 382 88 q 629 136 563 88 q 731 274 696 185 q 767 486 767 364 m 510 1238 l 646 1238 l 504 1076 l 407 1076 l 510 1238 z "},"Ô":{"ha":944,"x_min":63,"x_max":882,"o":"m 63 486 q 114 751 63 636 q 258 930 165 867 q 472 993 350 993 q 687 930 594 993 q 831 751 779 867 q 882 486 882 636 q 831 221 882 336 q 687 42 779 106 q 472 -21 594 -21 q 258 42 350 -21 q 114 221 165 106 q 63 486 63 336 m 767 486 q 731 698 767 608 q 629 836 696 788 q 472 885 563 885 q 315 836 382 885 q 213 698 249 788 q 178 486 178 608 q 213 274 178 364 q 315 136 249 185 q 472 88 382 88 q 629 136 563 88 q 731 274 696 185 q 767 486 767 364 m 574 1049 l 472 1176 l 371 1049 l 306 1100 l 397 1218 l 547 1218 l 639 1100 l 574 1049 z "},"Õ":{"ha":944,"x_min":63,"x_max":882,"o":"m 63 486 q 114 751 63 636 q 258 930 165 867 q 472 993 350 993 q 687 930 594 993 q 831 751 779 867 q 882 486 882 636 q 831 221 882 336 q 687 42 779 106 q 472 -21 594 -21 q 258 42 350 -21 q 114 221 165 106 q 63 486 63 336 m 767 486 q 731 698 767 608 q 629 836 696 788 q 472 885 563 885 q 315 836 382 885 q 213 698 249 788 q 178 486 178 608 q 213 274 178 364 q 315 136 249 185 q 472 88 382 88 q 629 136 563 88 q 731 274 696 185 q 767 486 767 364 m 454 1100 q 421 1115 438 1108 q 389 1122 404 1122 q 339 1076 349 1122 l 274 1076 q 310 1171 278 1136 q 394 1206 343 1206 q 442 1197 421 1206 q 489 1175 464 1189 q 522 1160 506 1167 q 554 1153 539 1153 q 604 1199 594 1153 l 669 1199 q 633 1104 665 1139 q 549 1069 600 1069 q 501 1078 522 1069 q 454 1100 479 1086 z "},"Ö":{"ha":944,"x_min":63,"x_max":882,"o":"m 63 486 q 114 751 63 636 q 258 930 165 867 q 472 993 350 993 q 687 930 594 993 q 831 751 779 867 q 882 486 882 636 q 831 221 882 336 q 687 42 779 106 q 472 -21 594 -21 q 258 42 350 -21 q 114 221 165 106 q 63 486 63 336 m 767 486 q 731 698 767 608 q 629 836 696 788 q 472 885 563 885 q 315 836 382 885 q 213 698 249 788 q 178 486 178 608 q 213 274 178 364 q 315 136 249 185 q 472 88 382 88 q 629 136 563 88 q 731 274 696 185 q 767 486 767 364 m 281 1193 l 414 1193 l 414 1063 l 281 1063 l 281 1193 m 531 1193 l 664 1193 l 664 1063 l 531 1063 l 531 1193 z "},"×":{"ha":754,"x_min":85,"x_max":669,"o":"m 85 250 l 313 475 l 85 700 l 153 768 l 376 540 l 601 768 l 669 700 l 442 475 l 669 250 l 601 182 l 376 410 l 153 182 l 85 250 z "},"Ø":{"ha":946,"x_min":63,"x_max":882,"o":"m 882 486 q 831 221 882 336 q 687 42 779 106 q 472 -21 594 -21 q 269 35 360 -21 l 229 -39 l 161 -1 l 207 83 q 100 253 138 150 q 63 486 63 357 q 114 751 63 636 q 258 930 165 867 q 472 993 350 993 q 676 936 588 993 l 717 1010 l 783 971 l 738 888 q 844 718 807 821 q 882 486 882 615 m 264 186 l 624 840 q 472 885 558 885 q 315 836 382 885 q 213 698 249 788 q 178 486 178 608 q 200 314 178 390 q 264 186 222 238 m 767 486 q 745 657 767 581 q 682 786 724 733 l 322 131 q 472 88 389 88 q 629 136 563 88 q 731 274 696 185 q 767 486 767 364 z "},"Ù":{"ha":919,"x_min":113,"x_max":808,"o":"m 113 317 l 113 972 l 226 972 l 226 325 q 285 147 226 207 q 458 88 343 88 q 633 147 574 88 q 693 322 693 207 l 693 972 l 808 972 l 808 317 q 717 67 808 154 q 458 -21 626 -21 q 201 67 290 -21 q 113 317 113 154 m 282 1217 l 418 1217 l 521 1056 l 424 1056 l 282 1217 z "},"Ú":{"ha":919,"x_min":113,"x_max":808,"o":"m 113 317 l 113 972 l 226 972 l 226 325 q 285 147 226 207 q 458 88 343 88 q 633 147 574 88 q 693 322 693 207 l 693 972 l 808 972 l 808 317 q 717 67 808 154 q 458 -21 626 -21 q 201 67 290 -21 q 113 317 113 154 m 497 1217 l 633 1217 l 492 1056 l 394 1056 l 497 1217 z "},"Û":{"ha":919,"x_min":113,"x_max":808,"o":"m 113 317 l 113 972 l 226 972 l 226 325 q 285 147 226 207 q 458 88 343 88 q 633 147 574 88 q 693 322 693 207 l 693 972 l 808 972 l 808 317 q 717 67 808 154 q 458 -21 626 -21 q 201 67 290 -21 q 113 317 113 154 m 561 1028 l 460 1156 l 358 1028 l 293 1079 l 385 1197 l 535 1197 l 626 1079 l 561 1028 z "},"Ü":{"ha":919,"x_min":113,"x_max":808,"o":"m 113 317 l 113 972 l 226 972 l 226 325 q 285 147 226 207 q 458 88 343 88 q 633 147 574 88 q 693 322 693 207 l 693 972 l 808 972 l 808 317 q 717 67 808 154 q 458 -21 626 -21 q 201 67 290 -21 q 113 317 113 154 m 268 1172 l 401 1172 l 401 1042 l 268 1042 l 268 1172 m 518 1172 l 651 1172 l 651 1042 l 518 1042 l 518 1172 z "},"Ý":{"ha":796,"x_min":0,"x_max":796,"o":"m 340 406 l 0 972 l 133 972 l 396 518 l 399 518 l 663 972 l 796 972 l 456 406 l 456 0 l 340 0 l 340 406 m 435 1217 l 571 1217 l 429 1056 l 332 1056 l 435 1217 z "},"Þ":{"ha":854,"x_min":119,"x_max":819,"o":"m 819 489 q 733 269 819 349 q 494 190 646 190 l 233 190 l 233 0 l 119 0 l 119 972 l 233 972 l 233 789 l 494 789 q 732 708 644 789 q 819 489 819 628 m 704 489 q 651 633 704 586 q 488 681 597 681 l 233 681 l 233 299 l 488 299 q 651 345 597 299 q 704 489 704 392 z "},"ß":{"ha":772,"x_min":92,"x_max":708,"o":"m 92 710 q 128 858 92 794 q 231 958 164 922 q 385 993 297 993 q 531 960 467 993 q 631 869 594 928 q 667 738 667 811 q 636 626 667 676 q 551 544 606 576 l 551 542 q 666 450 624 515 q 708 297 708 385 q 619 78 708 157 q 369 0 529 0 l 310 0 l 310 101 l 369 101 q 540 153 479 101 q 600 300 600 206 q 549 434 600 386 q 406 482 499 482 l 310 482 l 310 579 l 379 579 q 511 619 464 579 q 558 732 558 660 q 512 849 558 806 q 385 892 465 892 q 248 840 296 892 q 200 689 200 788 l 200 0 l 92 0 l 92 710 z "},"à":{"ha":708,"x_min":64,"x_max":624,"o":"m 64 188 q 124 334 64 281 q 322 421 183 388 q 469 474 429 447 q 510 546 510 501 q 468 628 510 597 q 358 658 426 658 q 238 616 286 658 q 174 500 189 574 l 64 521 q 163 693 82 629 q 358 757 243 757 q 553 693 482 757 q 624 518 624 629 l 624 0 l 522 0 l 522 78 l 519 78 q 431 6 488 32 q 306 -21 375 -21 q 129 35 194 -21 q 64 188 64 92 m 515 249 l 515 414 l 513 414 q 463 367 501 388 q 351 328 425 347 q 213 272 254 303 q 172 194 172 242 q 209 110 172 139 q 314 81 246 81 q 459 128 403 81 q 515 249 515 175 m 181 1001 l 317 1001 l 419 840 l 322 840 l 181 1001 z "},"á":{"ha":708,"x_min":64,"x_max":624,"o":"m 64 188 q 124 334 64 281 q 322 421 183 388 q 469 474 429 447 q 510 546 510 501 q 468 628 510 597 q 358 658 426 658 q 238 616 286 658 q 174 500 189 574 l 64 521 q 163 693 82 629 q 358 757 243 757 q 553 693 482 757 q 624 518 624 629 l 624 0 l 522 0 l 522 78 l 519 78 q 431 6 488 32 q 306 -21 375 -21 q 129 35 194 -21 q 64 188 64 92 m 515 249 l 515 414 l 513 414 q 463 367 501 388 q 351 328 425 347 q 213 272 254 303 q 172 194 172 242 q 209 110 172 139 q 314 81 246 81 q 459 128 403 81 q 515 249 515 175 m 396 1001 l 532 1001 l 390 840 l 293 840 l 396 1001 z "},"â":{"ha":708,"x_min":64,"x_max":624,"o":"m 64 188 q 124 334 64 281 q 322 421 183 388 q 469 474 429 447 q 510 546 510 501 q 468 628 510 597 q 358 658 426 658 q 238 616 286 658 q 174 500 189 574 l 64 521 q 163 693 82 629 q 358 757 243 757 q 553 693 482 757 q 624 518 624 629 l 624 0 l 522 0 l 522 78 l 519 78 q 431 6 488 32 q 306 -21 375 -21 q 129 35 194 -21 q 64 188 64 92 m 515 249 l 515 414 l 513 414 q 463 367 501 388 q 351 328 425 347 q 213 272 254 303 q 172 194 172 242 q 209 110 172 139 q 314 81 246 81 q 459 128 403 81 q 515 249 515 175 m 460 813 l 358 940 l 257 813 l 192 864 l 283 982 l 433 982 l 525 864 l 460 813 z "},"ã":{"ha":708,"x_min":64,"x_max":624,"o":"m 64 188 q 124 334 64 281 q 322 421 183 388 q 469 474 429 447 q 510 546 510 501 q 468 628 510 597 q 358 658 426 658 q 238 616 286 658 q 174 500 189 574 l 64 521 q 163 693 82 629 q 358 757 243 757 q 553 693 482 757 q 624 518 624 629 l 624 0 l 522 0 l 522 78 l 519 78 q 431 6 488 32 q 306 -21 375 -21 q 129 35 194 -21 q 64 188 64 92 m 515 249 l 515 414 l 513 414 q 463 367 501 388 q 351 328 425 347 q 213 272 254 303 q 172 194 172 242 q 209 110 172 139 q 314 81 246 81 q 459 128 403 81 q 515 249 515 175 m 340 864 q 307 879 324 872 q 275 886 290 886 q 225 840 235 886 l 160 840 q 197 935 164 900 q 281 969 229 969 q 328 961 307 969 q 375 939 350 953 q 408 924 392 931 q 440 917 425 917 q 490 963 481 917 l 556 963 q 519 868 551 903 q 435 833 486 833 q 387 842 408 833 q 340 864 365 850 z "},"ä":{"ha":708,"x_min":64,"x_max":624,"o":"m 64 188 q 124 334 64 281 q 322 421 183 388 q 469 474 429 447 q 510 546 510 501 q 468 628 510 597 q 358 658 426 658 q 238 616 286 658 q 174 500 189 574 l 64 521 q 163 693 82 629 q 358 757 243 757 q 553 693 482 757 q 624 518 624 629 l 624 0 l 522 0 l 522 78 l 519 78 q 431 6 488 32 q 306 -21 375 -21 q 129 35 194 -21 q 64 188 64 92 m 515 249 l 515 414 l 513 414 q 463 367 501 388 q 351 328 425 347 q 213 272 254 303 q 172 194 172 242 q 209 110 172 139 q 314 81 246 81 q 459 128 403 81 q 515 249 515 175 m 167 957 l 300 957 l 300 826 l 167 826 l 167 957 m 417 957 l 550 957 l 550 826 l 417 826 l 417 957 z "},"å":{"ha":708,"x_min":64,"x_max":624,"o":"m 199 931 q 242 1033 199 993 q 351 1074 286 1074 q 461 1033 418 1074 q 504 931 504 993 q 461 830 504 869 q 351 790 418 790 q 242 831 286 790 q 199 931 199 871 m 435 931 q 411 991 435 968 q 351 1014 388 1014 q 292 991 315 1014 q 269 931 269 968 q 292 873 269 896 q 351 850 315 850 q 411 873 388 850 q 435 931 435 896 m 64 188 q 124 334 64 281 q 322 421 183 388 q 469 474 429 447 q 510 546 510 501 q 468 628 510 597 q 358 658 426 658 q 238 616 286 658 q 174 500 189 574 l 64 521 q 163 693 82 629 q 358 757 243 757 q 553 693 482 757 q 624 518 624 629 l 624 0 l 522 0 l 522 78 l 519 78 q 431 6 488 32 q 306 -21 375 -21 q 129 35 194 -21 q 64 188 64 92 m 515 249 l 515 414 l 513 414 q 463 367 501 388 q 351 328 425 347 q 213 272 254 303 q 172 194 172 242 q 209 110 172 139 q 314 81 246 81 q 459 128 403 81 q 515 249 515 175 z "},"æ":{"ha":1233,"x_min":64,"x_max":1171,"o":"m 1171 338 l 624 338 q 687 147 625 219 q 847 74 749 74 q 974 106 925 74 q 1068 224 1022 139 l 1156 168 q 1031 27 1108 75 q 850 -21 953 -21 q 693 17 764 -21 q 579 124 622 54 q 475 17 544 54 q 308 -21 406 -21 q 133 35 197 -21 q 68 188 68 92 q 106 312 68 265 q 197 380 143 358 q 335 424 250 401 q 432 453 397 440 q 490 489 467 467 q 514 547 514 511 q 472 631 514 599 q 360 663 431 663 q 233 620 285 663 q 167 503 181 578 l 64 524 q 164 694 85 632 q 357 757 243 757 q 507 725 444 757 q 599 635 569 693 q 706 724 639 692 q 850 757 772 757 q 1017 711 944 757 q 1131 583 1090 665 q 1171 392 1171 500 l 1171 338 m 1065 422 q 1003 597 1063 532 q 850 663 944 663 q 738 631 789 663 q 657 545 688 600 q 625 422 626 490 l 1065 422 m 521 418 l 518 418 q 466 369 504 386 q 356 332 428 351 q 258 301 294 315 q 197 260 222 286 q 171 194 171 235 q 208 105 171 136 q 317 74 244 74 q 423 97 376 74 q 495 160 469 121 q 521 247 521 200 l 521 418 z "},"ç":{"ha":782,"x_min":64,"x_max":725,"o":"m 64 368 q 107 571 64 482 q 227 708 150 660 q 404 757 304 757 q 617 685 531 757 q 725 489 704 613 l 619 467 q 547 606 604 557 q 404 656 490 656 q 236 577 300 656 q 172 368 172 499 q 236 159 172 238 q 404 81 300 81 q 547 130 490 81 q 619 269 604 179 l 725 247 q 617 51 704 124 q 404 -21 531 -21 q 227 28 304 -21 q 107 165 150 76 q 64 368 64 254 m 575 -193 q 534 -285 575 -250 q 432 -319 493 -319 q 290 -264 351 -319 l 338 -207 q 432 -249 381 -249 q 481 -233 463 -249 q 499 -192 499 -217 q 480 -151 499 -167 q 433 -136 461 -136 q 357 -172 388 -136 l 297 -146 l 386 19 l 450 0 l 401 -83 q 449 -75 422 -75 q 538 -108 501 -75 q 575 -193 575 -142 z "},"è":{"ha":796,"x_min":64,"x_max":733,"o":"m 64 368 q 107 572 64 483 q 227 708 150 660 q 404 757 304 757 q 577 711 503 757 q 692 583 651 665 q 733 392 733 500 l 733 336 l 174 336 q 203 206 175 265 q 283 113 232 147 q 401 78 335 78 q 529 110 479 78 q 626 225 579 143 l 717 171 q 590 28 669 76 q 404 -21 511 -21 q 226 28 303 -21 q 106 165 149 76 q 64 368 64 253 m 624 424 q 560 592 621 525 q 404 658 500 658 q 290 626 342 658 q 208 539 239 593 q 176 424 178 485 l 624 424 m 226 1001 l 363 1001 l 465 840 l 368 840 l 226 1001 z "},"é":{"ha":796,"x_min":64,"x_max":733,"o":"m 64 368 q 107 572 64 483 q 227 708 150 660 q 404 757 304 757 q 577 711 503 757 q 692 583 651 665 q 733 392 733 500 l 733 336 l 174 336 q 203 206 175 265 q 283 113 232 147 q 401 78 335 78 q 529 110 479 78 q 626 225 579 143 l 717 171 q 590 28 669 76 q 404 -21 511 -21 q 226 28 303 -21 q 106 165 149 76 q 64 368 64 253 m 624 424 q 560 592 621 525 q 404 658 500 658 q 290 626 342 658 q 208 539 239 593 q 176 424 178 485 l 624 424 m 442 1001 l 578 1001 l 436 840 l 339 840 l 442 1001 z "},"ê":{"ha":796,"x_min":64,"x_max":733,"o":"m 64 368 q 107 572 64 483 q 227 708 150 660 q 404 757 304 757 q 577 711 503 757 q 692 583 651 665 q 733 392 733 500 l 733 336 l 174 336 q 203 206 175 265 q 283 113 232 147 q 401 78 335 78 q 529 110 479 78 q 626 225 579 143 l 717 171 q 590 28 669 76 q 404 -21 511 -21 q 226 28 303 -21 q 106 165 149 76 q 64 368 64 253 m 624 424 q 560 592 621 525 q 404 658 500 658 q 290 626 342 658 q 208 539 239 593 q 176 424 178 485 l 624 424 m 506 813 l 404 940 l 303 813 l 238 864 l 329 982 l 479 982 l 571 864 l 506 813 z "},"ë":{"ha":796,"x_min":64,"x_max":733,"o":"m 64 368 q 107 572 64 483 q 227 708 150 660 q 404 757 304 757 q 577 711 503 757 q 692 583 651 665 q 733 392 733 500 l 733 336 l 174 336 q 203 206 175 265 q 283 113 232 147 q 401 78 335 78 q 529 110 479 78 q 626 225 579 143 l 717 171 q 590 28 669 76 q 404 -21 511 -21 q 226 28 303 -21 q 106 165 149 76 q 64 368 64 253 m 624 424 q 560 592 621 525 q 404 658 500 658 q 290 626 342 658 q 208 539 239 593 q 176 424 178 485 l 624 424 m 213 957 l 346 957 l 346 826 l 213 826 l 213 957 m 463 957 l 596 957 l 596 826 l 463 826 l 463 957 z "},"ì":{"ha":290,"x_min":-32,"x_max":207,"o":"m 92 736 l 200 736 l 200 0 l 92 0 l 92 736 m -32 981 l 104 981 l 207 819 l 110 819 l -32 981 z "},"í":{"ha":290,"x_min":81,"x_max":319,"o":"m 92 736 l 200 736 l 200 0 l 92 0 l 92 736 m 183 981 l 319 981 l 178 819 l 81 819 l 183 981 z "},"î":{"ha":290,"x_min":-21,"x_max":313,"o":"m 92 736 l 200 736 l 200 0 l 92 0 l 92 736 m 247 792 l 146 919 l 44 792 l -21 843 l 71 961 l 221 961 l 313 843 l 247 792 z "},"ï":{"ha":276,"x_min":-40,"x_max":318,"o":"m -40 936 l 93 936 l 93 806 l -40 806 l -40 936 m 185 936 l 318 936 l 318 806 l 185 806 l 185 936 m 92 736 l 200 736 l 200 0 l 92 0 l 92 736 z "},"ð":{"ha":819,"x_min":64,"x_max":757,"o":"m 757 368 q 715 163 757 251 q 594 27 672 75 q 411 -21 515 -21 q 229 28 308 -21 q 107 165 150 76 q 64 368 64 253 q 106 572 64 483 q 226 708 149 660 q 403 757 303 757 q 588 696 514 757 l 590 696 q 479 885 550 789 l 289 825 l 268 886 l 438 939 q 318 1074 393 994 l 318 1076 l 442 1076 q 532 969 499 1015 l 724 1031 l 744 969 l 571 915 q 709 646 661 785 q 757 368 757 507 m 649 368 q 584 577 649 499 q 411 656 519 656 q 237 577 301 656 q 172 368 172 499 q 237 159 172 238 q 411 81 301 81 q 584 159 519 81 q 649 368 649 238 z "},"ñ":{"ha":771,"x_min":92,"x_max":686,"o":"m 92 736 l 197 736 l 197 668 l 200 668 q 290 733 233 708 q 407 757 347 757 q 610 681 535 757 q 686 476 686 604 l 686 0 l 578 0 l 578 463 q 528 604 578 553 q 394 656 479 656 q 253 602 307 656 q 200 463 200 549 l 200 0 l 92 0 l 92 736 m 388 864 q 354 879 371 872 q 322 886 338 886 q 272 840 282 886 l 207 840 q 244 935 211 900 q 328 969 276 969 q 376 961 354 969 q 422 939 397 953 q 456 924 439 931 q 488 917 472 917 q 538 963 528 917 l 603 963 q 566 868 599 903 q 482 833 533 833 q 434 842 456 833 q 388 864 413 850 z "},"ò":{"ha":819,"x_min":64,"x_max":757,"o":"m 64 368 q 107 572 64 483 q 228 708 150 660 q 410 757 307 757 q 592 708 513 757 q 714 572 671 660 q 757 368 757 483 q 714 165 757 253 q 592 28 671 76 q 410 -21 513 -21 q 228 28 307 -21 q 107 165 150 76 q 64 368 64 253 m 649 368 q 584 578 649 500 q 410 656 519 656 q 236 578 300 656 q 172 368 172 500 q 236 158 172 236 q 410 81 300 81 q 584 158 519 81 q 649 368 649 236 m 232 1001 l 368 1001 l 471 840 l 374 840 l 232 1001 z "},"ó":{"ha":819,"x_min":64,"x_max":757,"o":"m 64 368 q 107 572 64 483 q 228 708 150 660 q 410 757 307 757 q 592 708 513 757 q 714 572 671 660 q 757 368 757 483 q 714 165 757 253 q 592 28 671 76 q 410 -21 513 -21 q 228 28 307 -21 q 107 165 150 76 q 64 368 64 253 m 649 368 q 584 578 649 500 q 410 656 519 656 q 236 578 300 656 q 172 368 172 500 q 236 158 172 236 q 410 81 300 81 q 584 158 519 81 q 649 368 649 236 m 447 1001 l 583 1001 l 442 840 l 344 840 l 447 1001 z "},"ô":{"ha":819,"x_min":64,"x_max":757,"o":"m 64 368 q 107 572 64 483 q 228 708 150 660 q 410 757 307 757 q 592 708 513 757 q 714 572 671 660 q 757 368 757 483 q 714 165 757 253 q 592 28 671 76 q 410 -21 513 -21 q 228 28 307 -21 q 107 165 150 76 q 64 368 64 253 m 649 368 q 584 578 649 500 q 410 656 519 656 q 236 578 300 656 q 172 368 172 500 q 236 158 172 236 q 410 81 300 81 q 584 158 519 81 q 649 368 649 236 m 511 813 l 410 940 l 308 813 l 243 864 l 335 982 l 485 982 l 576 864 l 511 813 z "},"õ":{"ha":819,"x_min":64,"x_max":757,"o":"m 64 368 q 107 572 64 483 q 228 708 150 660 q 410 757 307 757 q 592 708 513 757 q 714 572 671 660 q 757 368 757 483 q 714 165 757 253 q 592 28 671 76 q 410 -21 513 -21 q 228 28 307 -21 q 107 165 150 76 q 64 368 64 253 m 649 368 q 584 578 649 500 q 410 656 519 656 q 236 578 300 656 q 172 368 172 500 q 236 158 172 236 q 410 81 300 81 q 584 158 519 81 q 649 368 649 236 m 392 864 q 358 879 375 872 q 326 886 342 886 q 276 840 286 886 l 211 840 q 248 935 215 900 q 332 969 281 969 q 380 961 358 969 q 426 939 401 953 q 460 924 443 931 q 492 917 476 917 q 542 963 532 917 l 607 963 q 570 868 603 903 q 486 833 538 833 q 438 842 460 833 q 392 864 417 850 z "},"ö":{"ha":819,"x_min":64,"x_max":757,"o":"m 64 368 q 107 572 64 483 q 228 708 150 660 q 410 757 307 757 q 592 708 513 757 q 714 572 671 660 q 757 368 757 483 q 714 165 757 253 q 592 28 671 76 q 410 -21 513 -21 q 228 28 307 -21 q 107 165 150 76 q 64 368 64 253 m 649 368 q 584 578 649 500 q 410 656 519 656 q 236 578 300 656 q 172 368 172 500 q 236 158 172 236 q 410 81 300 81 q 584 158 519 81 q 649 368 649 236 m 218 957 l 351 957 l 351 826 l 218 826 l 218 957 m 468 957 l 601 957 l 601 826 l 468 826 l 468 957 z "},"÷":{"ha":750,"x_min":85,"x_max":665,"o":"m 278 785 q 306 854 278 825 q 374 883 335 883 q 444 855 415 883 q 472 785 472 826 q 444 716 472 744 q 374 688 415 688 q 306 716 333 688 q 278 785 278 744 m 85 557 l 665 557 l 665 464 l 85 464 l 85 557 m 278 229 q 306 298 278 269 q 374 326 333 326 q 444 298 415 326 q 472 229 472 269 q 444 160 472 188 q 374 132 415 132 q 306 160 333 132 q 278 229 278 188 z "},"ø":{"ha":821,"x_min":64,"x_max":757,"o":"m 757 368 q 714 165 757 253 q 592 28 671 76 q 411 -21 514 -21 q 200 49 289 -21 l 150 -15 l 101 21 l 157 90 q 88 213 111 142 q 64 368 64 283 q 108 572 64 483 q 230 708 151 660 q 411 757 308 757 q 624 686 536 757 l 674 750 l 722 713 l 668 643 q 734 522 711 592 q 757 368 757 451 m 221 174 l 561 607 q 411 661 500 661 q 235 581 301 661 q 168 368 168 500 q 221 174 168 253 m 653 368 q 603 560 653 483 l 263 128 q 411 75 322 75 q 588 155 522 75 q 653 368 653 235 z "},"ù":{"ha":754,"x_min":78,"x_max":663,"o":"m 78 258 l 78 736 l 186 736 l 186 274 q 231 128 186 175 q 369 81 276 81 q 503 133 453 81 q 554 274 554 186 l 554 736 l 663 736 l 663 0 l 557 0 l 557 68 l 554 68 q 462 3 519 28 q 338 -21 404 -21 q 146 52 214 -21 q 78 258 78 125 m 193 981 l 329 981 l 432 819 l 335 819 l 193 981 z "},"ú":{"ha":754,"x_min":78,"x_max":663,"o":"m 78 258 l 78 736 l 186 736 l 186 274 q 231 128 186 175 q 369 81 276 81 q 503 133 453 81 q 554 274 554 186 l 554 736 l 663 736 l 663 0 l 557 0 l 557 68 l 554 68 q 462 3 519 28 q 338 -21 404 -21 q 146 52 214 -21 q 78 258 78 125 m 408 981 l 544 981 l 403 819 l 306 819 l 408 981 z "},"û":{"ha":754,"x_min":78,"x_max":663,"o":"m 78 258 l 78 736 l 186 736 l 186 274 q 231 128 186 175 q 369 81 276 81 q 503 133 453 81 q 554 274 554 186 l 554 736 l 663 736 l 663 0 l 557 0 l 557 68 l 554 68 q 462 3 519 28 q 338 -21 404 -21 q 146 52 214 -21 q 78 258 78 125 m 472 792 l 371 919 l 269 792 l 204 843 l 296 961 l 446 961 l 538 843 l 472 792 z "},"ü":{"ha":754,"x_min":78,"x_max":663,"o":"m 78 258 l 78 736 l 186 736 l 186 274 q 231 128 186 175 q 369 81 276 81 q 503 133 453 81 q 554 274 554 186 l 554 736 l 663 736 l 663 0 l 557 0 l 557 68 l 554 68 q 462 3 519 28 q 338 -21 404 -21 q 146 52 214 -21 q 78 258 78 125 m 179 936 l 313 936 l 313 806 l 179 806 l 179 936 m 429 936 l 563 936 l 563 806 l 429 806 l 429 936 z "},"ý":{"ha":710,"x_min":14,"x_max":696,"o":"m 297 63 l 14 736 l 129 736 l 353 188 l 356 188 l 581 736 l 696 736 l 254 -312 l 142 -312 l 297 63 m 393 981 l 529 981 l 388 819 l 290 819 l 393 981 z "},"þ":{"ha":814,"x_min":92,"x_max":750,"o":"m 750 368 q 708 166 750 254 q 590 28 665 78 q 421 -21 515 -21 q 296 5 354 -21 q 203 74 238 31 l 200 74 l 200 -312 l 92 -312 l 92 1014 l 200 1014 l 200 658 l 203 658 q 296 730 239 703 q 418 757 353 757 q 590 708 514 757 q 708 570 665 658 q 750 368 750 482 m 642 368 q 580 576 642 497 q 418 656 518 656 q 308 627 358 656 q 229 549 258 599 q 200 440 200 499 l 200 297 q 228 188 200 238 q 306 110 257 139 q 413 81 356 81 q 579 159 517 81 q 642 368 642 238 z "},"ÿ":{"ha":710,"x_min":14,"x_max":696,"o":"m 297 63 l 14 736 l 129 736 l 353 188 l 356 188 l 581 736 l 696 736 l 254 -312 l 142 -312 l 297 63 m 164 936 l 297 936 l 297 806 l 164 806 l 164 936 m 414 936 l 547 936 l 547 806 l 414 806 l 414 936 z "},"Ā":{"ha":824,"x_min":7,"x_max":817,"o":"m 631 196 l 193 196 l 125 0 l 7 0 l 357 972 l 468 972 l 817 0 l 699 0 l 631 196 m 596 296 l 414 815 l 411 815 l 229 296 l 596 296 m 228 1143 l 599 1143 l 599 1056 l 228 1056 l 228 1143 z "},"ā":{"ha":708,"x_min":64,"x_max":624,"o":"m 64 188 q 124 334 64 281 q 322 421 183 388 q 469 474 429 447 q 510 546 510 501 q 468 628 510 597 q 358 658 426 658 q 238 616 286 658 q 174 500 189 574 l 64 521 q 163 693 82 629 q 358 757 243 757 q 553 693 482 757 q 624 518 624 629 l 624 0 l 522 0 l 522 78 l 519 78 q 431 6 488 32 q 306 -21 375 -21 q 129 35 194 -21 q 64 188 64 92 m 515 249 l 515 414 l 513 414 q 463 367 501 388 q 351 328 425 347 q 213 272 254 303 q 172 194 172 242 q 209 110 172 139 q 314 81 246 81 q 459 128 403 81 q 515 249 515 175 m 174 928 l 544 928 l 544 840 l 174 840 l 174 928 z "},"Ă":{"ha":824,"x_min":7,"x_max":817,"o":"m 631 196 l 193 196 l 125 0 l 7 0 l 357 972 l 468 972 l 817 0 l 699 0 l 631 196 m 596 296 l 414 815 l 411 815 l 229 296 l 596 296 m 236 1210 l 304 1210 q 339 1152 310 1172 q 414 1132 368 1132 q 488 1152 458 1132 q 522 1210 517 1172 l 590 1210 q 539 1087 586 1132 q 414 1042 492 1042 q 288 1087 335 1042 q 236 1210 240 1132 z "},"ă":{"ha":708,"x_min":64,"x_max":624,"o":"m 64 188 q 124 334 64 281 q 322 421 183 388 q 469 474 429 447 q 510 546 510 501 q 468 628 510 597 q 358 658 426 658 q 238 616 286 658 q 174 500 189 574 l 64 521 q 163 693 82 629 q 358 757 243 757 q 553 693 482 757 q 624 518 624 629 l 624 0 l 522 0 l 522 78 l 519 78 q 431 6 488 32 q 306 -21 375 -21 q 129 35 194 -21 q 64 188 64 92 m 515 249 l 515 414 l 513 414 q 463 367 501 388 q 351 328 425 347 q 213 272 254 303 q 172 194 172 242 q 209 110 172 139 q 314 81 246 81 q 459 128 403 81 q 515 249 515 175 m 182 994 l 250 994 q 285 937 256 957 q 360 917 314 917 q 433 937 404 917 q 468 994 463 957 l 536 994 q 485 872 532 917 q 360 826 438 826 q 233 872 281 826 q 182 994 186 917 z "},"Ą":{"ha":824,"x_min":7,"x_max":857,"o":"m 631 196 l 193 196 l 125 0 l 7 0 l 357 972 l 468 972 l 817 0 l 699 0 l 631 196 m 596 296 l 414 815 l 411 815 l 229 296 l 596 296 m 603 -165 q 641 -69 603 -118 q 744 17 679 -19 l 803 0 q 694 -137 694 -60 q 742 -186 694 -186 q 824 -161 778 -186 l 857 -249 q 726 -278 794 -278 q 636 -248 669 -278 q 603 -165 603 -218 z "},"ą":{"ha":708,"x_min":64,"x_max":668,"o":"m 64 188 q 124 334 64 281 q 322 421 183 388 q 469 474 429 447 q 510 546 510 501 q 468 628 510 597 q 358 658 426 658 q 238 616 286 658 q 174 500 189 574 l 64 521 q 163 693 82 629 q 358 757 243 757 q 553 693 482 757 q 624 518 624 629 l 624 0 l 522 0 l 522 78 l 519 78 q 431 6 488 32 q 306 -21 375 -21 q 129 35 194 -21 q 64 188 64 92 m 515 249 l 515 414 l 513 414 q 463 367 501 388 q 351 328 425 347 q 213 272 254 303 q 172 194 172 242 q 209 110 172 139 q 314 81 246 81 q 459 128 403 81 q 515 249 515 175 m 414 -165 q 452 -69 414 -118 q 556 17 490 -19 l 614 0 q 506 -137 506 -60 q 553 -186 506 -186 q 635 -161 589 -186 l 668 -249 q 538 -278 606 -278 q 447 -248 481 -278 q 414 -165 414 -218 z "},"Ć":{"ha":896,"x_min":63,"x_max":847,"o":"m 63 486 q 114 751 63 636 q 258 930 165 867 q 472 993 350 993 q 723 901 622 993 q 844 654 824 810 l 731 635 q 644 821 710 757 q 472 885 578 885 q 315 836 382 885 q 213 698 249 788 q 178 486 178 608 q 256 194 178 300 q 472 88 335 88 q 650 157 585 88 q 729 360 715 226 l 847 344 q 733 77 833 175 q 472 -21 633 -21 q 256 42 349 -21 q 113 219 164 104 q 63 486 63 333 m 510 1238 l 646 1238 l 504 1076 l 407 1076 l 510 1238 z "},"ć":{"ha":782,"x_min":64,"x_max":725,"o":"m 64 368 q 107 571 64 482 q 227 708 150 660 q 404 757 304 757 q 617 685 531 757 q 725 489 704 613 l 619 467 q 547 606 604 557 q 404 656 490 656 q 236 577 300 656 q 172 368 172 499 q 236 159 172 238 q 404 81 300 81 q 547 130 490 81 q 619 269 604 179 l 725 247 q 617 51 704 124 q 404 -21 531 -21 q 227 28 304 -21 q 107 165 150 76 q 64 368 64 254 m 442 1001 l 578 1001 l 436 840 l 339 840 l 442 1001 z "},"Ĉ":{"ha":896,"x_min":63,"x_max":847,"o":"m 63 486 q 114 751 63 636 q 258 930 165 867 q 472 993 350 993 q 723 901 622 993 q 844 654 824 810 l 731 635 q 644 821 710 757 q 472 885 578 885 q 315 836 382 885 q 213 698 249 788 q 178 486 178 608 q 256 194 178 300 q 472 88 335 88 q 650 157 585 88 q 729 360 715 226 l 847 344 q 733 77 833 175 q 472 -21 633 -21 q 256 42 349 -21 q 113 219 164 104 q 63 486 63 333 m 574 1049 l 472 1176 l 371 1049 l 306 1100 l 397 1218 l 547 1218 l 639 1100 l 574 1049 z "},"ĉ":{"ha":782,"x_min":64,"x_max":725,"o":"m 64 368 q 107 571 64 482 q 227 708 150 660 q 404 757 304 757 q 617 685 531 757 q 725 489 704 613 l 619 467 q 547 606 604 557 q 404 656 490 656 q 236 577 300 656 q 172 368 172 499 q 236 159 172 238 q 404 81 300 81 q 547 130 490 81 q 619 269 604 179 l 725 247 q 617 51 704 124 q 404 -21 531 -21 q 227 28 304 -21 q 107 165 150 76 q 64 368 64 254 m 506 813 l 404 940 l 303 813 l 238 864 l 329 982 l 479 982 l 571 864 l 506 813 z "},"Ċ":{"ha":896,"x_min":63,"x_max":847,"o":"m 63 486 q 114 751 63 636 q 258 930 165 867 q 472 993 350 993 q 723 901 622 993 q 844 654 824 810 l 731 635 q 644 821 710 757 q 472 885 578 885 q 315 836 382 885 q 213 698 249 788 q 178 486 178 608 q 256 194 178 300 q 472 88 335 88 q 650 157 585 88 q 729 360 715 226 l 847 344 q 733 77 833 175 q 472 -21 633 -21 q 256 42 349 -21 q 113 219 164 104 q 63 486 63 333 m 406 1207 l 539 1207 l 539 1076 l 406 1076 l 406 1207 z "},"ċ":{"ha":782,"x_min":64,"x_max":725,"o":"m 64 368 q 107 571 64 482 q 227 708 150 660 q 404 757 304 757 q 617 685 531 757 q 725 489 704 613 l 619 467 q 547 606 604 557 q 404 656 490 656 q 236 577 300 656 q 172 368 172 499 q 236 159 172 238 q 404 81 300 81 q 547 130 490 81 q 619 269 604 179 l 725 247 q 617 51 704 124 q 404 -21 531 -21 q 227 28 304 -21 q 107 165 150 76 q 64 368 64 254 m 338 971 l 471 971 l 471 840 l 338 840 l 338 971 z "},"Č":{"ha":896,"x_min":63,"x_max":847,"o":"m 63 486 q 114 751 63 636 q 258 930 165 867 q 472 993 350 993 q 723 901 622 993 q 844 654 824 810 l 731 635 q 644 821 710 757 q 472 885 578 885 q 315 836 382 885 q 213 698 249 788 q 178 486 178 608 q 256 194 178 300 q 472 88 335 88 q 650 157 585 88 q 729 360 715 226 l 847 344 q 733 77 833 175 q 472 -21 633 -21 q 256 42 349 -21 q 113 219 164 104 q 63 486 63 333 m 639 1181 l 547 1063 l 397 1063 l 306 1181 l 371 1232 l 472 1104 l 574 1232 l 639 1181 z "},"č":{"ha":782,"x_min":64,"x_max":725,"o":"m 64 368 q 107 571 64 482 q 227 708 150 660 q 404 757 304 757 q 617 685 531 757 q 725 489 704 613 l 619 467 q 547 606 604 557 q 404 656 490 656 q 236 577 300 656 q 172 368 172 499 q 236 159 172 238 q 404 81 300 81 q 547 130 490 81 q 619 269 604 179 l 725 247 q 617 51 704 124 q 404 -21 531 -21 q 227 28 304 -21 q 107 165 150 76 q 64 368 64 254 m 571 944 l 479 826 l 329 826 l 238 944 l 303 996 l 404 868 l 506 996 l 571 944 z "},"Ď":{"ha":904,"x_min":119,"x_max":842,"o":"m 119 972 l 422 972 q 641 915 546 972 q 789 747 736 857 q 842 488 842 638 q 728 120 842 240 q 414 0 614 0 l 119 0 l 119 972 m 407 108 q 644 199 561 108 q 726 488 726 289 q 643 767 726 671 q 415 864 560 864 l 233 864 l 233 108 l 407 108 m 578 1160 l 486 1042 l 336 1042 l 244 1160 l 310 1211 l 411 1083 l 513 1211 l 578 1160 z "},"ď":{"ha":915,"x_min":64,"x_max":931,"o":"m 64 368 q 106 570 64 482 q 224 708 149 658 q 394 757 299 757 q 518 731 461 757 q 611 658 575 704 l 614 658 l 614 1014 l 722 1014 l 722 0 l 618 0 l 618 74 l 615 74 q 521 4 579 29 q 394 -21 463 -21 q 224 28 299 -21 q 106 166 149 78 q 64 368 64 254 m 614 297 l 614 440 q 585 549 614 499 q 506 627 556 599 q 394 656 456 656 q 278 620 329 656 q 200 519 228 585 q 172 368 172 454 q 235 159 172 238 q 401 81 297 81 q 508 110 458 81 q 585 188 557 139 q 614 297 614 238 m 791 810 q 834 832 821 816 q 847 881 847 848 l 785 881 l 785 1014 l 929 1014 l 929 898 q 894 797 929 833 q 791 758 858 761 l 791 810 z "},"Đ":{"ha":904,"x_min":-6,"x_max":842,"o":"m 119 972 l 422 972 q 641 915 546 972 q 789 747 736 857 q 842 488 842 638 q 728 120 842 240 q 414 0 614 0 l 119 0 l 119 972 m 407 108 q 644 199 561 108 q 726 488 726 289 q 643 767 726 671 q 415 864 560 864 l 233 864 l 233 108 l 407 108 m -6 538 l 483 538 l 483 442 l -6 442 l -6 538 z "},"đ":{"ha":814,"x_min":64,"x_max":801,"o":"m 64 368 q 106 570 64 482 q 224 708 149 658 q 394 757 299 757 q 518 731 461 757 q 611 658 575 704 l 614 658 l 614 1014 l 722 1014 l 722 0 l 618 0 l 618 74 l 615 74 q 521 4 579 29 q 394 -21 463 -21 q 224 28 299 -21 q 106 166 149 78 q 64 368 64 254 m 614 297 l 614 440 q 585 549 614 499 q 506 627 556 599 q 394 656 456 656 q 278 620 329 656 q 200 519 228 585 q 172 368 172 454 q 235 159 172 238 q 401 81 297 81 q 508 110 458 81 q 585 188 557 139 q 614 297 614 238 m 401 924 l 801 924 l 801 842 l 401 842 l 401 924 z "},"Ē":{"ha":779,"x_min":119,"x_max":703,"o":"m 119 972 l 703 972 l 703 864 l 233 864 l 233 553 l 664 553 l 664 450 l 233 450 l 233 108 l 703 108 l 703 0 l 119 0 l 119 972 m 242 1143 l 613 1143 l 613 1056 l 242 1056 l 242 1143 z "},"ē":{"ha":796,"x_min":64,"x_max":733,"o":"m 64 368 q 107 572 64 483 q 227 708 150 660 q 404 757 304 757 q 577 711 503 757 q 692 583 651 665 q 733 392 733 500 l 733 336 l 174 336 q 203 206 175 265 q 283 113 232 147 q 401 78 335 78 q 529 110 479 78 q 626 225 579 143 l 717 171 q 590 28 669 76 q 404 -21 511 -21 q 226 28 303 -21 q 106 165 149 76 q 64 368 64 253 m 624 424 q 560 592 621 525 q 404 658 500 658 q 290 626 342 658 q 208 539 239 593 q 176 424 178 485 l 624 424 m 219 928 l 590 928 l 590 840 l 219 840 l 219 928 z "},"Ĕ":{"ha":779,"x_min":119,"x_max":703,"o":"m 119 972 l 703 972 l 703 864 l 233 864 l 233 553 l 664 553 l 664 450 l 233 450 l 233 108 l 703 108 l 703 0 l 119 0 l 119 972 m 250 1210 l 318 1210 q 353 1152 324 1172 q 428 1132 382 1132 q 501 1152 472 1132 q 536 1210 531 1172 l 604 1210 q 553 1087 600 1132 q 428 1042 506 1042 q 301 1087 349 1042 q 250 1210 254 1132 z "},"ĕ":{"ha":796,"x_min":64,"x_max":733,"o":"m 64 368 q 107 572 64 483 q 227 708 150 660 q 404 757 304 757 q 577 711 503 757 q 692 583 651 665 q 733 392 733 500 l 733 336 l 174 336 q 203 206 175 265 q 283 113 232 147 q 401 78 335 78 q 529 110 479 78 q 626 225 579 143 l 717 171 q 590 28 669 76 q 404 -21 511 -21 q 226 28 303 -21 q 106 165 149 76 q 64 368 64 253 m 624 424 q 560 592 621 525 q 404 658 500 658 q 290 626 342 658 q 208 539 239 593 q 176 424 178 485 l 624 424 m 228 994 l 296 994 q 331 937 301 957 q 406 917 360 917 q 479 937 450 917 q 514 994 508 957 l 582 994 q 531 872 578 917 q 406 826 483 826 q 279 872 326 826 q 228 994 232 917 z "},"Ė":{"ha":779,"x_min":119,"x_max":703,"o":"m 119 972 l 703 972 l 703 864 l 233 864 l 233 553 l 664 553 l 664 450 l 233 450 l 233 108 l 703 108 l 703 0 l 119 0 l 119 972 m 360 1186 l 493 1186 l 493 1056 l 360 1056 l 360 1186 z "},"ė":{"ha":796,"x_min":64,"x_max":733,"o":"m 64 368 q 107 572 64 483 q 227 708 150 660 q 404 757 304 757 q 577 711 503 757 q 692 583 651 665 q 733 392 733 500 l 733 336 l 174 336 q 203 206 175 265 q 283 113 232 147 q 401 78 335 78 q 529 110 479 78 q 626 225 579 143 l 717 171 q 590 28 669 76 q 404 -21 511 -21 q 226 28 303 -21 q 106 165 149 76 q 64 368 64 253 m 624 424 q 560 592 621 525 q 404 658 500 658 q 290 626 342 658 q 208 539 239 593 q 176 424 178 485 l 624 424 m 338 971 l 471 971 l 471 840 l 338 840 l 338 971 z "},"Ę":{"ha":779,"x_min":119,"x_max":703,"o":"m 119 972 l 703 972 l 703 864 l 233 864 l 233 553 l 664 553 l 664 450 l 233 450 l 233 108 l 703 108 l 703 0 l 119 0 l 119 972 m 431 -165 q 469 -69 431 -118 q 572 17 507 -19 l 631 0 q 522 -137 522 -60 q 569 -186 522 -186 q 651 -161 606 -186 l 685 -249 q 554 -278 622 -278 q 464 -248 497 -278 q 431 -165 431 -218 z "},"ę":{"ha":796,"x_min":64,"x_max":733,"o":"m 64 368 q 107 572 64 483 q 227 708 150 660 q 404 757 304 757 q 577 711 503 757 q 692 583 651 665 q 733 392 733 500 l 733 336 l 174 336 q 203 206 175 265 q 283 113 232 147 q 401 78 335 78 q 529 110 479 78 q 626 225 579 143 l 717 171 q 590 28 669 76 q 404 -21 511 -21 q 226 28 303 -21 q 106 165 149 76 q 64 368 64 253 m 624 424 q 560 592 621 525 q 404 658 500 658 q 290 626 342 658 q 208 539 239 593 q 176 424 178 485 l 624 424 m 331 -165 q 369 -69 331 -118 q 472 17 407 -19 l 531 0 q 422 -137 422 -60 q 469 -186 422 -186 q 551 -161 506 -186 l 585 -249 q 454 -278 522 -278 q 364 -248 397 -278 q 331 -165 331 -218 z "},"Ě":{"ha":779,"x_min":119,"x_max":703,"o":"m 119 972 l 703 972 l 703 864 l 233 864 l 233 553 l 664 553 l 664 450 l 233 450 l 233 108 l 703 108 l 703 0 l 119 0 l 119 972 m 593 1160 l 501 1042 l 351 1042 l 260 1160 l 325 1211 l 426 1083 l 528 1211 l 593 1160 z "},"ě":{"ha":796,"x_min":64,"x_max":733,"o":"m 64 368 q 107 572 64 483 q 227 708 150 660 q 404 757 304 757 q 577 711 503 757 q 692 583 651 665 q 733 392 733 500 l 733 336 l 174 336 q 203 206 175 265 q 283 113 232 147 q 401 78 335 78 q 529 110 479 78 q 626 225 579 143 l 717 171 q 590 28 669 76 q 404 -21 511 -21 q 226 28 303 -21 q 106 165 149 76 q 64 368 64 253 m 624 424 q 560 592 621 525 q 404 658 500 658 q 290 626 342 658 q 208 539 239 593 q 176 424 178 485 l 624 424 m 571 944 l 479 826 l 329 826 l 238 944 l 303 996 l 404 868 l 506 996 l 571 944 z "},"Ĝ":{"ha":907,"x_min":63,"x_max":844,"o":"m 63 486 q 113 753 63 639 q 256 931 164 868 q 472 993 349 993 q 647 953 568 993 q 777 841 726 914 q 842 672 828 768 l 728 651 q 642 825 707 765 q 472 885 576 885 q 315 836 382 885 q 213 698 249 788 q 178 486 178 608 q 213 274 178 364 q 315 136 249 185 q 472 88 382 88 q 666 164 597 88 q 732 372 735 240 l 485 372 l 485 481 l 844 481 l 844 382 q 799 169 844 260 q 669 28 753 78 q 472 -21 585 -21 q 256 42 349 -21 q 113 219 164 104 q 63 486 63 333 m 574 1049 l 472 1176 l 371 1049 l 306 1100 l 397 1218 l 547 1218 l 639 1100 l 574 1049 z "},"ĝ":{"ha":807,"x_min":64,"x_max":722,"o":"m 125 -132 l 224 -87 q 303 -199 257 -165 q 424 -233 349 -233 q 563 -175 513 -233 q 614 -15 614 -117 l 614 78 l 611 78 q 523 5 579 31 q 393 -21 467 -21 q 222 28 297 -21 q 106 167 147 78 q 64 368 64 256 q 106 570 64 482 q 222 708 147 658 q 394 757 297 757 q 517 731 460 757 q 611 658 574 706 l 614 658 l 614 736 l 722 736 l 722 -22 q 685 -185 722 -114 q 581 -294 649 -256 q 424 -333 513 -333 q 239 -280 318 -333 q 125 -132 160 -226 m 614 297 l 614 440 q 585 549 614 499 q 506 627 556 599 q 394 656 456 656 q 233 576 294 656 q 172 368 172 497 q 235 159 172 238 q 401 81 297 81 q 508 110 460 81 q 585 189 557 139 q 614 297 614 239 m 496 813 l 394 940 l 293 813 l 228 864 l 319 982 l 469 982 l 561 864 l 496 813 z "},"Ğ":{"ha":907,"x_min":63,"x_max":844,"o":"m 63 486 q 113 753 63 639 q 256 931 164 868 q 472 993 349 993 q 647 953 568 993 q 777 841 726 914 q 842 672 828 768 l 728 651 q 642 825 707 765 q 472 885 576 885 q 315 836 382 885 q 213 698 249 788 q 178 486 178 608 q 213 274 178 364 q 315 136 249 185 q 472 88 382 88 q 666 164 597 88 q 732 372 735 240 l 485 372 l 485 481 l 844 481 l 844 382 q 799 169 844 260 q 669 28 753 78 q 472 -21 585 -21 q 256 42 349 -21 q 113 219 164 104 q 63 486 63 333 m 296 1231 l 364 1231 q 399 1173 369 1193 q 474 1153 428 1153 q 547 1173 518 1153 q 582 1231 576 1193 l 650 1231 q 599 1108 646 1153 q 474 1063 551 1063 q 347 1108 394 1063 q 296 1231 300 1153 z "},"ğ":{"ha":807,"x_min":64,"x_max":722,"o":"m 125 -132 l 224 -87 q 303 -199 257 -165 q 424 -233 349 -233 q 563 -175 513 -233 q 614 -15 614 -117 l 614 78 l 611 78 q 523 5 579 31 q 393 -21 467 -21 q 222 28 297 -21 q 106 167 147 78 q 64 368 64 256 q 106 570 64 482 q 222 708 147 658 q 394 757 297 757 q 517 731 460 757 q 611 658 574 706 l 614 658 l 614 736 l 722 736 l 722 -22 q 685 -185 722 -114 q 581 -294 649 -256 q 424 -333 513 -333 q 239 -280 318 -333 q 125 -132 160 -226 m 614 297 l 614 440 q 585 549 614 499 q 506 627 556 599 q 394 656 456 656 q 233 576 294 656 q 172 368 172 497 q 235 159 172 238 q 401 81 297 81 q 508 110 460 81 q 585 189 557 139 q 614 297 614 239 m 218 994 l 286 994 q 321 937 292 957 q 396 917 350 917 q 469 937 440 917 q 504 994 499 957 l 572 994 q 521 872 568 917 q 396 826 474 826 q 269 872 317 826 q 218 994 222 917 z "},"Ġ":{"ha":907,"x_min":63,"x_max":844,"o":"m 63 486 q 113 753 63 639 q 256 931 164 868 q 472 993 349 993 q 647 953 568 993 q 777 841 726 914 q 842 672 828 768 l 728 651 q 642 825 707 765 q 472 885 576 885 q 315 836 382 885 q 213 698 249 788 q 178 486 178 608 q 213 274 178 364 q 315 136 249 185 q 472 88 382 88 q 666 164 597 88 q 732 372 735 240 l 485 372 l 485 481 l 844 481 l 844 382 q 799 169 844 260 q 669 28 753 78 q 472 -21 585 -21 q 256 42 349 -21 q 113 219 164 104 q 63 486 63 333 m 406 1207 l 539 1207 l 539 1076 l 406 1076 l 406 1207 z "},"ġ":{"ha":807,"x_min":64,"x_max":722,"o":"m 125 -132 l 224 -87 q 303 -199 257 -165 q 424 -233 349 -233 q 563 -175 513 -233 q 614 -15 614 -117 l 614 78 l 611 78 q 523 5 579 31 q 393 -21 467 -21 q 222 28 297 -21 q 106 167 147 78 q 64 368 64 256 q 106 570 64 482 q 222 708 147 658 q 394 757 297 757 q 517 731 460 757 q 611 658 574 706 l 614 658 l 614 736 l 722 736 l 722 -22 q 685 -185 722 -114 q 581 -294 649 -256 q 424 -333 513 -333 q 239 -280 318 -333 q 125 -132 160 -226 m 614 297 l 614 440 q 585 549 614 499 q 506 627 556 599 q 394 656 456 656 q 233 576 294 656 q 172 368 172 497 q 235 159 172 238 q 401 81 297 81 q 508 110 460 81 q 585 189 557 139 q 614 297 614 239 m 328 971 l 461 971 l 461 840 l 328 840 l 328 971 z "},"Ģ":{"ha":907,"x_min":63,"x_max":844,"o":"m 63 486 q 113 753 63 639 q 256 931 164 868 q 472 993 349 993 q 647 953 568 993 q 777 841 726 914 q 842 672 828 768 l 728 651 q 642 825 707 765 q 472 885 576 885 q 315 836 382 885 q 213 698 249 788 q 178 486 178 608 q 213 274 178 364 q 315 136 249 185 q 472 88 382 88 q 666 164 597 88 q 732 372 735 240 l 485 372 l 485 481 l 844 481 l 844 382 q 799 169 844 260 q 669 28 753 78 q 472 -21 585 -21 q 256 42 349 -21 q 113 219 164 104 q 63 486 63 333 m 406 -293 q 449 -271 436 -287 q 462 -222 462 -255 l 400 -222 l 400 -89 l 545 -89 l 545 -205 q 509 -305 545 -269 q 406 -345 474 -341 l 406 -293 z "},"ģ":{"ha":807,"x_min":64,"x_max":722,"o":"m 125 -132 l 224 -87 q 303 -199 257 -165 q 424 -233 349 -233 q 563 -175 513 -233 q 614 -15 614 -117 l 614 78 l 611 78 q 523 5 579 31 q 393 -21 467 -21 q 222 28 297 -21 q 106 167 147 78 q 64 368 64 256 q 106 570 64 482 q 222 708 147 658 q 394 757 297 757 q 517 731 460 757 q 611 658 574 706 l 614 658 l 614 736 l 722 736 l 722 -22 q 685 -185 722 -114 q 581 -294 649 -256 q 424 -333 513 -333 q 239 -280 318 -333 q 125 -132 160 -226 m 614 297 l 614 440 q 585 549 614 499 q 506 627 556 599 q 394 656 456 656 q 233 576 294 656 q 172 368 172 497 q 235 159 172 238 q 401 81 297 81 q 508 110 460 81 q 585 189 557 139 q 614 297 614 239 m 465 1044 q 420 1023 433 1039 q 406 974 406 1007 l 471 974 l 471 840 l 319 840 l 319 956 q 356 1057 319 1021 q 465 1096 393 1093 l 465 1044 z "},"Ĥ":{"ha":906,"x_min":119,"x_max":786,"o":"m 119 972 l 233 972 l 233 550 l 672 550 l 672 972 l 786 972 l 786 0 l 672 0 l 672 450 l 233 450 l 233 0 l 119 0 l 119 972 m 554 1028 l 453 1156 l 351 1028 l 286 1079 l 378 1197 l 528 1197 l 619 1079 l 554 1028 z "},"ĥ":{"ha":771,"x_min":92,"x_max":686,"o":"m 92 1014 l 200 1014 l 200 668 l 203 668 q 290 732 233 707 q 407 757 347 757 q 610 681 535 757 q 686 478 686 606 l 686 0 l 578 0 l 578 463 q 528 604 578 553 q 394 656 479 656 q 253 602 307 656 q 200 463 200 549 l 200 0 l 92 0 l 92 1014 m 501 1028 l 400 1156 l 299 1028 l 233 1079 l 325 1197 l 475 1197 l 567 1079 l 501 1028 z "},"Ħ":{"ha":892,"x_min":0,"x_max":892,"o":"m 892 715 l 781 715 l 781 0 l 665 0 l 665 449 l 228 449 l 228 0 l 113 0 l 113 715 l 0 715 l 0 811 l 113 811 l 113 972 l 228 972 l 228 811 l 665 811 l 665 972 l 781 972 l 781 811 l 892 811 l 892 715 m 665 715 l 228 715 l 228 550 l 665 550 l 665 715 z "},"ħ":{"ha":771,"x_min":7,"x_max":686,"o":"m 92 1014 l 200 1014 l 200 668 l 203 668 q 290 732 233 707 q 407 757 347 757 q 610 681 535 757 q 686 478 686 606 l 686 0 l 578 0 l 578 463 q 528 604 578 553 q 394 656 479 656 q 253 602 307 656 q 200 463 200 549 l 200 0 l 92 0 l 92 1014 m 7 924 l 407 924 l 407 842 l 7 842 l 7 924 z "},"Ĩ":{"ha":353,"x_min":-22,"x_max":374,"o":"m 119 972 l 233 972 l 233 0 l 119 0 l 119 972 m 158 1079 q 125 1094 142 1088 q 93 1101 108 1101 q 43 1056 53 1101 l -22 1056 q 15 1150 -18 1115 q 99 1185 47 1185 q 147 1176 125 1185 q 193 1154 168 1168 q 226 1139 210 1146 q 258 1132 243 1132 q 308 1178 299 1132 l 374 1178 q 337 1083 369 1118 q 253 1049 304 1049 q 205 1057 226 1049 q 158 1079 183 1065 z "},"ĩ":{"ha":290,"x_min":-53,"x_max":343,"o":"m 92 736 l 200 736 l 200 0 l 92 0 l 92 736 m 128 843 q 94 858 111 851 q 63 865 78 865 q 13 819 22 865 l -53 819 q -16 914 -49 879 q 68 949 17 949 q 116 940 94 949 q 163 918 138 932 q 196 903 179 910 q 228 896 213 896 q 278 942 268 896 l 343 942 q 306 847 339 882 q 222 813 274 813 q 174 821 196 813 q 128 843 153 829 z "},"Ī":{"ha":353,"x_min":-8,"x_max":363,"o":"m 119 972 l 233 972 l 233 0 l 119 0 l 119 972 m -8 1143 l 363 1143 l 363 1056 l -8 1056 l -8 1143 z "},"ī":{"ha":290,"x_min":-39,"x_max":332,"o":"m 92 736 l 200 736 l 200 0 l 92 0 l 92 736 m -39 907 l 332 907 l 332 819 l -39 819 l -39 907 z "},"Ĭ":{"ha":353,"x_min":0,"x_max":354,"o":"m 119 972 l 233 972 l 233 0 l 119 0 l 119 972 m 0 1210 l 68 1210 q 103 1152 74 1172 q 178 1132 132 1132 q 251 1152 222 1132 q 286 1210 281 1172 l 354 1210 q 303 1087 350 1132 q 178 1042 256 1042 q 51 1087 99 1042 q 0 1210 4 1132 z "},"ĭ":{"ha":290,"x_min":-31,"x_max":324,"o":"m 92 736 l 200 736 l 200 0 l 92 0 l 92 736 m -31 974 l 38 974 q 72 916 43 936 q 147 896 101 896 q 221 916 192 896 q 256 974 250 936 l 324 974 q 272 851 319 896 q 147 806 225 806 q 21 851 68 806 q -31 974 -26 896 z "},"Į":{"ha":353,"x_min":24,"x_max":278,"o":"m 119 972 l 233 972 l 233 0 l 119 0 l 119 972 m 24 -165 q 62 -69 24 -118 q 165 17 100 -19 l 224 0 q 115 -137 115 -60 q 163 -186 115 -186 q 244 -161 199 -186 l 278 -249 q 147 -278 215 -278 q 57 -248 90 -278 q 24 -165 24 -218 z "},"į":{"ha":290,"x_min":-11,"x_max":243,"o":"m 92 736 l 200 736 l 200 0 l 92 0 l 92 736 m -11 -165 q 27 -69 -11 -118 q 131 17 65 -19 l 189 0 q 81 -137 81 -60 q 128 -186 81 -186 q 210 -161 164 -186 l 243 -249 q 113 -278 181 -278 q 22 -248 56 -278 q -11 -165 -11 -218 m 83 986 l 208 986 l 208 865 l 83 865 l 83 986 z "},"İ":{"ha":353,"x_min":110,"x_max":243,"o":"m 119 972 l 233 972 l 233 0 l 119 0 l 119 972 m 110 1186 l 243 1186 l 243 1056 l 110 1056 l 110 1186 z "},"ı":{"ha":290,"x_min":92,"x_max":200,"o":"m 92 736 l 200 736 l 200 0 l 92 0 l 92 736 z "},"Ĵ":{"ha":725,"x_min":42,"x_max":722,"o":"m 42 268 l 153 281 q 202 134 161 181 q 326 88 243 88 q 453 144 410 88 q 497 308 497 201 l 497 972 l 613 972 l 613 303 q 534 65 613 150 q 326 -21 456 -21 q 124 52 197 -21 q 42 268 51 125 m 657 1028 l 556 1156 l 454 1028 l 389 1079 l 481 1197 l 631 1197 l 722 1079 l 657 1028 z "},"ĵ":{"ha":306,"x_min":-14,"x_max":328,"o":"m -14 -140 l 46 -140 q 107 -86 107 -140 l 107 736 l 215 736 l 215 -92 q 176 -206 215 -171 q 51 -242 136 -242 l -14 -242 l -14 -140 m 263 792 l 161 919 l 60 792 l -6 843 l 86 961 l 236 961 l 328 843 l 263 792 z "},"Ķ":{"ha":835,"x_min":119,"x_max":828,"o":"m 119 972 l 233 972 l 233 468 l 236 468 l 649 972 l 789 972 l 435 546 l 828 0 l 688 0 l 361 457 l 358 457 l 233 306 l 233 0 l 119 0 l 119 972 m 394 -272 q 436 -250 423 -266 q 449 -201 449 -234 l 388 -201 l 388 -68 l 532 -68 l 532 -184 q 497 -285 532 -249 q 394 -324 461 -321 l 394 -272 z "},"ķ":{"ha":710,"x_min":92,"x_max":681,"o":"m 92 1014 l 200 1014 l 200 408 l 203 408 l 510 736 l 663 736 l 389 451 l 681 0 l 553 0 l 314 374 l 311 374 l 200 256 l 200 0 l 92 0 l 92 1014 m 308 -272 q 350 -250 337 -266 q 363 -201 363 -234 l 302 -201 l 302 -68 l 446 -68 l 446 -184 q 410 -285 446 -249 q 308 -324 375 -321 l 308 -272 z "},"ĸ":{"ha":722,"x_min":92,"x_max":694,"o":"m 92 736 l 200 736 l 200 408 l 203 408 l 521 736 l 675 736 l 393 451 l 694 0 l 567 0 l 318 374 l 315 374 l 200 256 l 200 0 l 92 0 l 92 736 z "},"Ĺ":{"ha":721,"x_min":111,"x_max":672,"o":"m 119 972 l 233 972 l 233 108 l 672 108 l 672 0 l 119 0 l 119 972 m 214 1217 l 350 1217 l 208 1056 l 111 1056 l 214 1217 z "},"ĺ":{"ha":290,"x_min":81,"x_max":319,"o":"m 92 1014 l 200 1014 l 200 0 l 92 0 l 92 1014 m 183 1258 l 319 1258 l 178 1097 l 81 1097 l 183 1258 z "},"Ļ":{"ha":721,"x_min":119,"x_max":672,"o":"m 119 972 l 233 972 l 233 108 l 672 108 l 672 0 l 119 0 l 119 972 m 330 -272 q 372 -250 360 -266 q 385 -201 385 -234 l 324 -201 l 324 -68 l 468 -68 l 468 -184 q 433 -285 468 -249 q 330 -324 397 -321 l 330 -272 z "},"ļ":{"ha":290,"x_min":75,"x_max":221,"o":"m 92 1014 l 200 1014 l 200 0 l 92 0 l 92 1014 m 81 -272 q 124 -250 111 -266 q 137 -201 137 -234 l 75 -201 l 75 -68 l 220 -68 l 220 -184 q 184 -285 220 -249 q 81 -324 149 -321 l 81 -272 z "},"Ľ":{"ha":685,"x_min":119,"x_max":672,"o":"m 119 972 l 233 972 l 233 108 l 672 108 l 672 0 l 119 0 l 119 972 m 531 768 q 574 790 561 774 q 587 839 587 806 l 525 839 l 525 972 l 670 972 l 670 857 q 634 756 670 792 q 531 716 599 720 l 531 768 z "},"ľ":{"ha":392,"x_min":92,"x_max":407,"o":"m 92 1014 l 200 1014 l 200 0 l 92 0 l 92 1014 m 267 810 q 310 832 297 816 q 323 881 323 848 l 262 881 l 262 1014 l 406 1014 l 406 898 q 370 797 406 833 q 267 758 335 761 l 267 810 z "},"Ŀ":{"ha":721,"x_min":119,"x_max":672,"o":"m 119 972 l 233 972 l 233 108 l 672 108 l 672 0 l 119 0 l 119 972 m 438 621 l 603 621 l 603 460 l 438 460 l 438 621 z "},"ŀ":{"ha":426,"x_min":92,"x_max":426,"o":"m 92 1014 l 200 1014 l 200 0 l 92 0 l 92 1014 m 261 607 l 426 607 l 426 446 l 261 446 l 261 607 z "},"Ł":{"ha":789,"x_min":0,"x_max":768,"o":"m 215 972 l 329 972 l 329 108 l 768 108 l 768 0 l 215 0 l 215 972 m 263 385 l 263 392 l 46 189 l 0 238 l 297 514 l 297 513 l 542 732 l 590 678 l 263 385 z "},"ł":{"ha":410,"x_min":-21,"x_max":429,"o":"m 153 1014 l 261 1014 l 261 0 l 153 0 l 153 1014 m 190 481 l 190 501 l 24 347 l -21 394 l 190 589 l 190 568 l 385 751 l 429 703 l 190 481 z "},"Ń":{"ha":933,"x_min":119,"x_max":814,"o":"m 119 972 l 254 972 l 696 179 l 699 179 l 699 972 l 814 972 l 814 0 l 678 0 l 236 793 l 233 793 l 233 0 l 119 0 l 119 972 m 504 1217 l 640 1217 l 499 1056 l 401 1056 l 504 1217 z "},"ń":{"ha":771,"x_min":92,"x_max":686,"o":"m 92 736 l 197 736 l 197 668 l 200 668 q 290 733 233 708 q 407 757 347 757 q 610 681 535 757 q 686 476 686 604 l 686 0 l 578 0 l 578 463 q 528 604 578 553 q 394 656 479 656 q 253 602 307 656 q 200 463 200 549 l 200 0 l 92 0 l 92 736 m 443 1001 l 579 1001 l 438 840 l 340 840 l 443 1001 z "},"Ņ":{"ha":933,"x_min":119,"x_max":814,"o":"m 119 972 l 254 972 l 696 179 l 699 179 l 699 972 l 814 972 l 814 0 l 678 0 l 236 793 l 233 793 l 233 0 l 119 0 l 119 972 m 412 -272 q 454 -250 441 -266 q 467 -201 467 -234 l 406 -201 l 406 -68 l 550 -68 l 550 -184 q 515 -285 550 -249 q 412 -324 479 -321 l 412 -272 z "},"ņ":{"ha":771,"x_min":92,"x_max":686,"o":"m 92 736 l 197 736 l 197 668 l 200 668 q 290 733 233 708 q 407 757 347 757 q 610 681 535 757 q 686 476 686 604 l 686 0 l 578 0 l 578 463 q 528 604 578 553 q 394 656 479 656 q 253 602 307 656 q 200 463 200 549 l 200 0 l 92 0 l 92 736 m 323 -272 q 366 -250 353 -266 q 379 -201 379 -234 l 317 -201 l 317 -68 l 461 -68 l 461 -184 q 426 -285 461 -249 q 323 -324 390 -321 l 323 -272 z "},"Ň":{"ha":933,"x_min":119,"x_max":814,"o":"m 119 972 l 254 972 l 696 179 l 699 179 l 699 972 l 814 972 l 814 0 l 678 0 l 236 793 l 233 793 l 233 0 l 119 0 l 119 972 m 633 1160 l 542 1042 l 392 1042 l 300 1160 l 365 1211 l 467 1083 l 568 1211 l 633 1160 z "},"ň":{"ha":771,"x_min":92,"x_max":686,"o":"m 92 736 l 197 736 l 197 668 l 200 668 q 290 733 233 708 q 407 757 347 757 q 610 681 535 757 q 686 476 686 604 l 686 0 l 578 0 l 578 463 q 528 604 578 553 q 394 656 479 656 q 253 602 307 656 q 200 463 200 549 l 200 0 l 92 0 l 92 736 m 572 944 l 481 826 l 331 826 l 239 944 l 304 996 l 406 868 l 507 996 l 572 944 z "},"Ŋ":{"ha":928,"x_min":119,"x_max":808,"o":"m 808 972 l 808 -94 q 769 -207 808 -172 q 639 -242 729 -242 l 581 -242 l 581 -140 l 639 -140 q 700 -86 700 -140 l 700 0 l 236 781 l 233 781 l 233 0 l 119 0 l 119 972 l 242 972 l 690 213 l 693 213 l 693 972 l 808 972 z "},"ŋ":{"ha":771,"x_min":92,"x_max":686,"o":"m 686 476 l 686 -94 q 647 -207 686 -172 q 518 -242 607 -242 l 458 -242 l 458 -140 l 518 -140 q 578 -86 578 -140 l 578 463 q 528 604 578 553 q 394 656 479 656 q 253 602 307 656 q 200 463 200 549 l 200 0 l 92 0 l 92 736 l 197 736 l 197 668 l 200 668 q 290 733 233 708 q 407 757 347 757 q 610 681 535 757 q 686 476 686 604 z "},"Ō":{"ha":944,"x_min":63,"x_max":882,"o":"m 63 486 q 114 751 63 636 q 258 930 165 867 q 472 993 350 993 q 687 930 594 993 q 831 751 779 867 q 882 486 882 636 q 831 221 882 336 q 687 42 779 106 q 472 -21 594 -21 q 258 42 350 -21 q 114 221 165 106 q 63 486 63 336 m 767 486 q 731 698 767 608 q 629 836 696 788 q 472 885 563 885 q 315 836 382 885 q 213 698 249 788 q 178 486 178 608 q 213 274 178 364 q 315 136 249 185 q 472 88 382 88 q 629 136 563 88 q 731 274 696 185 q 767 486 767 364 m 288 1164 l 658 1164 l 658 1076 l 288 1076 l 288 1164 z "},"ō":{"ha":819,"x_min":64,"x_max":757,"o":"m 64 368 q 107 572 64 483 q 228 708 150 660 q 410 757 307 757 q 592 708 513 757 q 714 572 671 660 q 757 368 757 483 q 714 165 757 253 q 592 28 671 76 q 410 -21 513 -21 q 228 28 307 -21 q 107 165 150 76 q 64 368 64 253 m 649 368 q 584 578 649 500 q 410 656 519 656 q 236 578 300 656 q 172 368 172 500 q 236 158 172 236 q 410 81 300 81 q 584 158 519 81 q 649 368 649 236 m 225 928 l 596 928 l 596 840 l 225 840 l 225 928 z "},"Ŏ":{"ha":944,"x_min":63,"x_max":882,"o":"m 63 486 q 114 751 63 636 q 258 930 165 867 q 472 993 350 993 q 687 930 594 993 q 831 751 779 867 q 882 486 882 636 q 831 221 882 336 q 687 42 779 106 q 472 -21 594 -21 q 258 42 350 -21 q 114 221 165 106 q 63 486 63 336 m 767 486 q 731 698 767 608 q 629 836 696 788 q 472 885 563 885 q 315 836 382 885 q 213 698 249 788 q 178 486 178 608 q 213 274 178 364 q 315 136 249 185 q 472 88 382 88 q 629 136 563 88 q 731 274 696 185 q 767 486 767 364 m 296 1231 l 364 1231 q 399 1173 369 1193 q 474 1153 428 1153 q 547 1173 518 1153 q 582 1231 576 1193 l 650 1231 q 599 1108 646 1153 q 474 1063 551 1063 q 347 1108 394 1063 q 296 1231 300 1153 z "},"ŏ":{"ha":819,"x_min":64,"x_max":757,"o":"m 64 368 q 107 572 64 483 q 228 708 150 660 q 410 757 307 757 q 592 708 513 757 q 714 572 671 660 q 757 368 757 483 q 714 165 757 253 q 592 28 671 76 q 410 -21 513 -21 q 228 28 307 -21 q 107 165 150 76 q 64 368 64 253 m 649 368 q 584 578 649 500 q 410 656 519 656 q 236 578 300 656 q 172 368 172 500 q 236 158 172 236 q 410 81 300 81 q 584 158 519 81 q 649 368 649 236 m 233 994 l 301 994 q 336 937 307 957 q 411 917 365 917 q 485 937 456 917 q 519 994 514 957 l 588 994 q 536 872 583 917 q 411 826 489 826 q 285 872 332 826 q 233 994 238 917 z "},"Ő":{"ha":944,"x_min":63,"x_max":882,"o":"m 63 486 q 114 751 63 636 q 258 930 165 867 q 472 993 350 993 q 687 930 594 993 q 831 751 779 867 q 882 486 882 636 q 831 221 882 336 q 687 42 779 106 q 472 -21 594 -21 q 258 42 350 -21 q 114 221 165 106 q 63 486 63 336 m 767 486 q 731 698 767 608 q 629 836 696 788 q 472 885 563 885 q 315 836 382 885 q 213 698 249 788 q 178 486 178 608 q 213 274 178 364 q 315 136 249 185 q 472 88 382 88 q 629 136 563 88 q 731 274 696 185 q 767 486 767 364 m 390 1238 l 526 1238 l 385 1076 l 288 1076 l 390 1238 m 604 1238 l 740 1238 l 599 1076 l 501 1076 l 604 1238 z "},"ő":{"ha":819,"x_min":64,"x_max":757,"o":"m 64 368 q 107 572 64 483 q 228 708 150 660 q 410 757 307 757 q 592 708 513 757 q 714 572 671 660 q 757 368 757 483 q 714 165 757 253 q 592 28 671 76 q 410 -21 513 -21 q 228 28 307 -21 q 107 165 150 76 q 64 368 64 253 m 649 368 q 584 578 649 500 q 410 656 519 656 q 236 578 300 656 q 172 368 172 500 q 236 158 172 236 q 410 81 300 81 q 584 158 519 81 q 649 368 649 236 m 328 1001 l 464 1001 l 322 840 l 225 840 l 328 1001 m 542 1001 l 678 1001 l 536 840 l 439 840 l 542 1001 z "},"Œ":{"ha":1303,"x_min":63,"x_max":1226,"o":"m 63 486 q 114 751 63 636 q 258 930 165 867 q 472 993 350 993 q 688 928 600 993 l 690 928 l 690 972 l 1226 972 l 1226 864 l 806 864 l 806 553 l 1188 553 l 1188 449 l 806 449 l 806 108 l 1226 108 l 1226 0 l 690 0 l 690 43 l 688 43 q 472 -21 599 -21 q 258 42 350 -21 q 114 221 165 106 q 63 486 63 336 m 690 186 l 690 786 q 597 860 653 835 q 472 885 542 885 q 315 836 382 885 q 213 698 249 788 q 178 486 178 608 q 213 274 178 364 q 315 136 249 185 q 472 88 382 88 q 690 186 615 88 z "},"œ":{"ha":1382,"x_min":64,"x_max":1318,"o":"m 1318 336 l 760 336 q 790 206 761 265 q 869 111 818 146 q 986 76 919 76 q 1115 110 1065 76 q 1214 225 1165 143 l 1301 171 q 1175 28 1254 76 q 989 -21 1096 -21 q 819 24 893 -21 q 703 149 744 68 q 584 24 660 68 q 411 -21 508 -21 q 229 28 308 -21 q 107 165 150 76 q 64 368 64 253 q 107 572 64 483 q 229 708 150 660 q 411 757 308 757 q 584 713 508 757 q 703 588 660 668 q 819 713 746 668 q 989 757 893 757 q 1162 711 1088 757 q 1277 583 1236 665 q 1318 392 1318 500 l 1318 336 m 650 368 q 585 580 650 500 q 411 660 519 660 q 236 580 301 660 q 171 368 171 500 q 236 156 171 236 q 411 76 301 76 q 585 156 519 76 q 650 368 650 236 m 1210 424 q 1147 593 1207 526 q 989 660 1086 660 q 875 627 926 660 q 793 540 824 594 q 763 424 763 485 l 1210 424 z "},"Ŕ":{"ha":846,"x_min":119,"x_max":797,"o":"m 554 400 l 768 0 l 633 0 l 428 394 l 233 394 l 233 0 l 119 0 l 119 972 l 474 972 q 711 896 625 972 q 797 685 797 819 q 733 496 797 569 q 554 403 669 422 l 554 400 m 464 503 q 626 549 571 503 q 682 685 682 596 q 627 819 682 774 q 464 864 572 864 l 233 864 l 233 503 l 464 503 m 461 1217 l 597 1217 l 456 1056 l 358 1056 l 461 1217 z "},"ŕ":{"ha":451,"x_min":92,"x_max":424,"o":"m 92 736 l 194 736 l 194 675 l 197 675 q 258 729 218 710 q 350 749 297 749 q 424 738 383 749 l 400 625 q 328 638 360 638 q 231 591 263 638 q 200 442 200 544 l 200 0 l 92 0 l 92 736 m 256 981 l 392 981 l 250 819 l 153 819 l 256 981 z "},"Ŗ":{"ha":846,"x_min":119,"x_max":797,"o":"m 554 400 l 768 0 l 633 0 l 428 394 l 233 394 l 233 0 l 119 0 l 119 972 l 474 972 q 711 896 625 972 q 797 685 797 819 q 733 496 797 569 q 554 403 669 422 l 554 400 m 464 503 q 626 549 571 503 q 682 685 682 596 q 627 819 682 774 q 464 864 572 864 l 233 864 l 233 503 l 464 503 m 372 -272 q 414 -250 401 -266 q 427 -201 427 -234 l 366 -201 l 366 -68 l 510 -68 l 510 -184 q 474 -285 510 -249 q 372 -324 439 -321 l 372 -272 z "},"ŗ":{"ha":451,"x_min":75,"x_max":424,"o":"m 92 736 l 194 736 l 194 675 l 197 675 q 258 729 218 710 q 350 749 297 749 q 424 738 383 749 l 400 625 q 328 638 360 638 q 231 591 263 638 q 200 442 200 544 l 200 0 l 92 0 l 92 736 m 81 -272 q 124 -250 111 -266 q 137 -201 137 -234 l 75 -201 l 75 -68 l 220 -68 l 220 -184 q 184 -285 220 -249 q 81 -324 149 -321 l 81 -272 z "},"Ř":{"ha":846,"x_min":119,"x_max":797,"o":"m 554 400 l 768 0 l 633 0 l 428 394 l 233 394 l 233 0 l 119 0 l 119 972 l 474 972 q 711 896 625 972 q 797 685 797 819 q 733 496 797 569 q 554 403 669 422 l 554 400 m 464 503 q 626 549 571 503 q 682 685 682 596 q 627 819 682 774 q 464 864 572 864 l 233 864 l 233 503 l 464 503 m 590 1160 l 499 1042 l 349 1042 l 257 1160 l 322 1211 l 424 1083 l 525 1211 l 590 1160 z "},"ř":{"ha":451,"x_min":51,"x_max":424,"o":"m 92 736 l 194 736 l 194 675 l 197 675 q 258 729 218 710 q 350 749 297 749 q 424 738 383 749 l 400 625 q 328 638 360 638 q 231 591 263 638 q 200 442 200 544 l 200 0 l 92 0 l 92 736 m 385 924 l 293 806 l 143 806 l 51 924 l 117 975 l 218 847 l 319 975 l 385 924 z "},"Ś":{"ha":836,"x_min":49,"x_max":788,"o":"m 49 322 l 163 342 q 248 150 178 213 q 450 88 318 88 q 613 131 551 88 q 674 244 674 174 q 649 331 674 294 q 566 398 624 367 q 406 461 508 429 q 221 538 288 500 q 125 623 154 576 q 96 736 96 669 q 135 869 96 811 q 246 960 175 928 q 407 993 317 993 q 640 917 544 993 q 760 710 736 840 l 647 686 q 563 834 625 783 q 406 885 500 885 q 263 844 317 885 q 210 736 210 804 q 231 671 210 699 q 303 618 253 643 q 443 565 353 593 q 646 479 571 524 q 754 379 721 435 q 788 246 788 324 q 745 107 788 168 q 626 13 703 46 q 449 -21 549 -21 q 167 67 271 -21 q 49 322 64 156 m 444 1238 l 581 1238 l 439 1076 l 342 1076 l 444 1238 z "},"ś":{"ha":697,"x_min":50,"x_max":649,"o":"m 50 251 l 156 271 q 224 125 172 169 q 376 81 275 81 q 495 109 451 81 q 539 186 539 138 q 521 247 539 222 q 460 291 503 271 q 336 335 417 311 q 187 391 242 363 q 108 456 132 419 q 85 546 85 493 q 117 655 85 607 q 209 730 150 703 q 342 757 268 757 q 528 698 451 757 q 626 538 606 639 l 521 514 q 456 619 501 583 q 342 656 411 656 q 234 626 275 656 q 193 550 193 597 q 231 486 193 511 q 372 431 269 461 q 536 367 476 400 q 622 292 596 335 q 649 190 649 250 q 574 37 649 94 q 376 -21 500 -21 q 148 50 233 -21 q 50 251 63 121 m 379 1001 l 515 1001 l 374 840 l 276 840 l 379 1001 z "},"Ŝ":{"ha":836,"x_min":49,"x_max":788,"o":"m 49 322 l 163 342 q 248 150 178 213 q 450 88 318 88 q 613 131 551 88 q 674 244 674 174 q 649 331 674 294 q 566 398 624 367 q 406 461 508 429 q 221 538 288 500 q 125 623 154 576 q 96 736 96 669 q 135 869 96 811 q 246 960 175 928 q 407 993 317 993 q 640 917 544 993 q 760 710 736 840 l 647 686 q 563 834 625 783 q 406 885 500 885 q 263 844 317 885 q 210 736 210 804 q 231 671 210 699 q 303 618 253 643 q 443 565 353 593 q 646 479 571 524 q 754 379 721 435 q 788 246 788 324 q 745 107 788 168 q 626 13 703 46 q 449 -21 549 -21 q 167 67 271 -21 q 49 322 64 156 m 508 1049 l 407 1176 l 306 1049 l 240 1100 l 332 1218 l 482 1218 l 574 1100 l 508 1049 z "},"ŝ":{"ha":697,"x_min":50,"x_max":649,"o":"m 50 251 l 156 271 q 224 125 172 169 q 376 81 275 81 q 495 109 451 81 q 539 186 539 138 q 521 247 539 222 q 460 291 503 271 q 336 335 417 311 q 187 391 242 363 q 108 456 132 419 q 85 546 85 493 q 117 655 85 607 q 209 730 150 703 q 342 757 268 757 q 528 698 451 757 q 626 538 606 639 l 521 514 q 456 619 501 583 q 342 656 411 656 q 234 626 275 656 q 193 550 193 597 q 231 486 193 511 q 372 431 269 461 q 536 367 476 400 q 622 292 596 335 q 649 190 649 250 q 574 37 649 94 q 376 -21 500 -21 q 148 50 233 -21 q 50 251 63 121 m 443 813 l 342 940 l 240 813 l 175 864 l 267 982 l 417 982 l 508 864 l 443 813 z "},"Ş":{"ha":836,"x_min":49,"x_max":788,"o":"m 49 322 l 163 342 q 248 150 178 213 q 450 88 318 88 q 613 131 551 88 q 674 244 674 174 q 649 331 674 294 q 566 398 624 367 q 406 461 508 429 q 221 538 288 500 q 125 623 154 576 q 96 736 96 669 q 135 869 96 811 q 246 960 175 928 q 407 993 317 993 q 640 917 544 993 q 760 710 736 840 l 647 686 q 563 834 625 783 q 406 885 500 885 q 263 844 317 885 q 210 736 210 804 q 231 671 210 699 q 303 618 253 643 q 443 565 353 593 q 646 479 571 524 q 754 379 721 435 q 788 246 788 324 q 745 107 788 168 q 626 13 703 46 q 449 -21 549 -21 q 167 67 271 -21 q 49 322 64 156 m 619 -193 q 578 -285 619 -250 q 476 -319 538 -319 q 335 -264 396 -319 l 382 -207 q 476 -249 425 -249 q 525 -233 507 -249 q 543 -192 543 -217 q 524 -151 543 -167 q 478 -136 506 -136 q 401 -172 432 -136 l 342 -146 l 431 19 l 494 0 l 446 -83 q 493 -75 467 -75 q 583 -108 546 -75 q 619 -193 619 -142 z "},"ş":{"ha":697,"x_min":50,"x_max":649,"o":"m 50 251 l 156 271 q 224 125 172 169 q 376 81 275 81 q 495 109 451 81 q 539 186 539 138 q 521 247 539 222 q 460 291 503 271 q 336 335 417 311 q 187 391 242 363 q 108 456 132 419 q 85 546 85 493 q 117 655 85 607 q 209 730 150 703 q 342 757 268 757 q 528 698 451 757 q 626 538 606 639 l 521 514 q 456 619 501 583 q 342 656 411 656 q 234 626 275 656 q 193 550 193 597 q 231 486 193 511 q 372 431 269 461 q 536 367 476 400 q 622 292 596 335 q 649 190 649 250 q 574 37 649 94 q 376 -21 500 -21 q 148 50 233 -21 q 50 251 63 121 m 547 -193 q 506 -285 547 -250 q 404 -319 465 -319 q 263 -264 324 -319 l 310 -207 q 404 -249 353 -249 q 453 -233 435 -249 q 471 -192 471 -217 q 452 -151 471 -167 q 406 -136 433 -136 q 329 -172 360 -136 l 269 -146 l 358 19 l 422 0 l 374 -83 q 421 -75 394 -75 q 510 -108 474 -75 q 547 -193 547 -142 z "},"Š":{"ha":836,"x_min":49,"x_max":788,"o":"m 49 322 l 163 342 q 248 150 178 213 q 450 88 318 88 q 613 131 551 88 q 674 244 674 174 q 649 331 674 294 q 566 398 624 367 q 406 461 508 429 q 221 538 288 500 q 125 623 154 576 q 96 736 96 669 q 135 869 96 811 q 246 960 175 928 q 407 993 317 993 q 640 917 544 993 q 760 710 736 840 l 647 686 q 563 834 625 783 q 406 885 500 885 q 263 844 317 885 q 210 736 210 804 q 231 671 210 699 q 303 618 253 643 q 443 565 353 593 q 646 479 571 524 q 754 379 721 435 q 788 246 788 324 q 745 107 788 168 q 626 13 703 46 q 449 -21 549 -21 q 167 67 271 -21 q 49 322 64 156 m 574 1181 l 482 1063 l 332 1063 l 240 1181 l 306 1232 l 407 1104 l 508 1232 l 574 1181 z "},"š":{"ha":697,"x_min":50,"x_max":649,"o":"m 50 251 l 156 271 q 224 125 172 169 q 376 81 275 81 q 495 109 451 81 q 539 186 539 138 q 521 247 539 222 q 460 291 503 271 q 336 335 417 311 q 187 391 242 363 q 108 456 132 419 q 85 546 85 493 q 117 655 85 607 q 209 730 150 703 q 342 757 268 757 q 528 698 451 757 q 626 538 606 639 l 521 514 q 456 619 501 583 q 342 656 411 656 q 234 626 275 656 q 193 550 193 597 q 231 486 193 511 q 372 431 269 461 q 536 367 476 400 q 622 292 596 335 q 649 190 649 250 q 574 37 649 94 q 376 -21 500 -21 q 148 50 233 -21 q 50 251 63 121 m 508 944 l 417 826 l 267 826 l 175 944 l 240 996 l 342 868 l 443 996 l 508 944 z "},"Ţ":{"ha":818,"x_min":49,"x_max":769,"o":"m 351 864 l 49 864 l 49 972 l 769 972 l 769 864 l 467 864 l 467 0 l 351 0 l 351 864 m 579 -174 q 538 -265 579 -231 q 436 -300 497 -300 q 294 -244 356 -300 l 342 -187 q 436 -229 385 -229 q 485 -213 467 -229 q 503 -172 503 -197 q 484 -132 503 -147 q 438 -117 465 -117 q 361 -153 392 -117 l 301 -126 l 390 39 l 454 19 l 406 -64 q 453 -56 426 -56 q 542 -89 506 -56 q 579 -174 579 -122 z "},"ţ":{"ha":469,"x_min":28,"x_max":431,"o":"m 247 639 l 247 168 q 265 117 247 132 q 328 101 283 101 l 389 101 l 389 0 l 319 0 q 179 38 219 0 q 139 169 139 75 l 139 639 l 28 639 l 28 736 l 139 736 l 139 903 l 247 903 l 247 736 l 428 736 l 428 639 l 247 639 m 431 -174 q 390 -265 431 -231 q 288 -300 349 -300 q 146 -244 207 -300 l 193 -187 q 288 -229 236 -229 q 336 -213 318 -229 q 354 -172 354 -197 q 335 -132 354 -147 q 289 -117 317 -117 q 213 -153 243 -117 l 153 -126 l 242 39 l 306 19 l 257 -64 q 304 -56 278 -56 q 394 -89 357 -56 q 431 -174 431 -122 z "},"Ť":{"ha":818,"x_min":49,"x_max":769,"o":"m 351 864 l 49 864 l 49 972 l 769 972 l 769 864 l 467 864 l 467 0 l 351 0 l 351 864 m 575 1160 l 483 1042 l 333 1042 l 242 1160 l 307 1211 l 408 1083 l 510 1211 l 575 1160 z "},"ť":{"ha":469,"x_min":28,"x_max":469,"o":"m 247 639 l 247 168 q 265 117 247 132 q 328 101 283 101 l 389 101 l 389 0 l 319 0 q 179 38 219 0 q 139 169 139 75 l 139 639 l 28 639 l 28 736 l 139 736 l 139 903 l 247 903 l 247 736 l 428 736 l 428 639 l 247 639 m 330 861 q 372 883 360 867 q 385 932 385 899 l 324 932 l 324 1065 l 468 1065 l 468 950 q 433 849 468 885 q 330 809 397 813 l 330 861 z "},"Ŧ":{"ha":818,"x_min":49,"x_max":769,"o":"m 351 864 l 49 864 l 49 972 l 769 972 l 769 864 l 467 864 l 467 0 l 351 0 l 351 864 m 163 538 l 651 538 l 651 442 l 163 442 l 163 538 z "},"ŧ":{"ha":469,"x_min":28,"x_max":428,"o":"m 247 639 l 247 168 q 265 117 247 132 q 328 101 283 101 l 389 101 l 389 0 l 319 0 q 179 38 219 0 q 139 169 139 75 l 139 639 l 28 639 l 28 736 l 139 736 l 139 903 l 247 903 l 247 736 l 428 736 l 428 639 l 247 639 m 28 424 l 428 424 l 428 342 l 28 342 l 28 424 z "},"Ũ":{"ha":919,"x_min":113,"x_max":808,"o":"m 113 317 l 113 972 l 226 972 l 226 325 q 285 147 226 207 q 458 88 343 88 q 633 147 574 88 q 693 322 693 207 l 693 972 l 808 972 l 808 317 q 717 67 808 154 q 458 -21 626 -21 q 201 67 290 -21 q 113 317 113 154 m 442 1079 q 408 1094 425 1088 q 376 1101 392 1101 q 326 1056 336 1101 l 261 1056 q 298 1150 265 1115 q 382 1185 331 1185 q 430 1176 408 1185 q 476 1154 451 1168 q 510 1139 493 1146 q 542 1132 526 1132 q 592 1178 582 1132 l 657 1178 q 620 1083 653 1118 q 536 1049 588 1049 q 488 1057 510 1049 q 442 1079 467 1065 z "},"ũ":{"ha":754,"x_min":78,"x_max":663,"o":"m 78 258 l 78 736 l 186 736 l 186 274 q 231 128 186 175 q 369 81 276 81 q 503 133 453 81 q 554 274 554 186 l 554 736 l 663 736 l 663 0 l 557 0 l 557 68 l 554 68 q 462 3 519 28 q 338 -21 404 -21 q 146 52 214 -21 q 78 258 78 125 m 353 843 q 319 858 336 851 q 288 865 303 865 q 238 819 247 865 l 172 819 q 209 914 176 879 q 293 949 242 949 q 341 940 319 949 q 388 918 363 932 q 421 903 404 910 q 453 896 438 896 q 503 942 493 896 l 568 942 q 531 847 564 882 q 447 813 499 813 q 399 821 421 813 q 353 843 378 829 z "},"Ū":{"ha":919,"x_min":113,"x_max":808,"o":"m 113 317 l 113 972 l 226 972 l 226 325 q 285 147 226 207 q 458 88 343 88 q 633 147 574 88 q 693 322 693 207 l 693 972 l 808 972 l 808 317 q 717 67 808 154 q 458 -21 626 -21 q 201 67 290 -21 q 113 317 113 154 m 275 1143 l 646 1143 l 646 1056 l 275 1056 l 275 1143 z "},"ū":{"ha":754,"x_min":78,"x_max":663,"o":"m 78 258 l 78 736 l 186 736 l 186 274 q 231 128 186 175 q 369 81 276 81 q 503 133 453 81 q 554 274 554 186 l 554 736 l 663 736 l 663 0 l 557 0 l 557 68 l 554 68 q 462 3 519 28 q 338 -21 404 -21 q 146 52 214 -21 q 78 258 78 125 m 186 907 l 557 907 l 557 819 l 186 819 l 186 907 z "},"Ŭ":{"ha":919,"x_min":113,"x_max":808,"o":"m 113 317 l 113 972 l 226 972 l 226 325 q 285 147 226 207 q 458 88 343 88 q 633 147 574 88 q 693 322 693 207 l 693 972 l 808 972 l 808 317 q 717 67 808 154 q 458 -21 626 -21 q 201 67 290 -21 q 113 317 113 154 m 283 1210 l 351 1210 q 386 1152 357 1172 q 461 1132 415 1132 q 535 1152 506 1132 q 569 1210 564 1172 l 638 1210 q 586 1087 633 1132 q 461 1042 539 1042 q 335 1087 382 1042 q 283 1210 288 1132 z "},"ŭ":{"ha":754,"x_min":78,"x_max":663,"o":"m 78 258 l 78 736 l 186 736 l 186 274 q 231 128 186 175 q 369 81 276 81 q 503 133 453 81 q 554 274 554 186 l 554 736 l 663 736 l 663 0 l 557 0 l 557 68 l 554 68 q 462 3 519 28 q 338 -21 404 -21 q 146 52 214 -21 q 78 258 78 125 m 194 974 l 263 974 q 297 916 268 936 q 372 896 326 896 q 446 916 417 896 q 481 974 475 936 l 549 974 q 497 851 544 896 q 372 806 450 806 q 246 851 293 806 q 194 974 199 896 z "},"Ů":{"ha":919,"x_min":113,"x_max":808,"o":"m 113 317 l 113 972 l 226 972 l 226 325 q 285 147 226 207 q 458 88 343 88 q 633 147 574 88 q 693 322 693 207 l 693 972 l 808 972 l 808 317 q 717 67 808 154 q 458 -21 626 -21 q 201 67 290 -21 q 113 317 113 154 m 290 1063 q 338 1176 290 1131 q 460 1221 386 1221 q 581 1176 533 1221 q 629 1063 629 1132 q 581 950 629 994 q 460 906 533 906 q 338 950 386 906 q 290 1063 290 994 m 551 1063 q 526 1128 551 1103 q 460 1154 500 1154 q 394 1128 419 1154 q 369 1063 369 1103 q 394 998 369 1024 q 460 972 419 972 q 526 998 500 972 q 551 1063 551 1024 z "},"ů":{"ha":754,"x_min":78,"x_max":663,"o":"m 78 258 l 78 736 l 186 736 l 186 274 q 231 128 186 175 q 369 81 276 81 q 503 133 453 81 q 554 274 554 186 l 554 736 l 663 736 l 663 0 l 557 0 l 557 68 l 554 68 q 462 3 519 28 q 338 -21 404 -21 q 146 52 214 -21 q 78 258 78 125 m 208 893 q 256 1006 208 961 q 378 1051 304 1051 q 499 1007 451 1051 q 547 893 547 963 q 499 781 547 825 q 378 736 451 736 q 256 781 304 736 q 208 893 208 825 m 469 893 q 444 959 469 933 q 378 985 418 985 q 313 959 338 985 q 288 893 288 933 q 313 828 288 854 q 378 803 338 803 q 444 828 418 803 q 469 893 469 854 z "},"Ű":{"ha":919,"x_min":113,"x_max":808,"o":"m 113 317 l 113 972 l 226 972 l 226 325 q 285 147 226 207 q 458 88 343 88 q 633 147 574 88 q 693 322 693 207 l 693 972 l 808 972 l 808 317 q 717 67 808 154 q 458 -21 626 -21 q 201 67 290 -21 q 113 317 113 154 m 378 1217 l 514 1217 l 372 1056 l 275 1056 l 378 1217 m 592 1217 l 728 1217 l 586 1056 l 489 1056 l 592 1217 z "},"ű":{"ha":754,"x_min":78,"x_max":663,"o":"m 78 258 l 78 736 l 186 736 l 186 274 q 231 128 186 175 q 369 81 276 81 q 503 133 453 81 q 554 274 554 186 l 554 736 l 663 736 l 663 0 l 557 0 l 557 68 l 554 68 q 462 3 519 28 q 338 -21 404 -21 q 146 52 214 -21 q 78 258 78 125 m 289 981 l 425 981 l 283 819 l 186 819 l 289 981 m 503 981 l 639 981 l 497 819 l 400 819 l 503 981 z "},"Ų":{"ha":919,"x_min":113,"x_max":808,"o":"m 113 317 l 113 972 l 226 972 l 226 325 q 285 147 226 207 q 458 88 343 88 q 633 147 574 88 q 693 322 693 207 l 693 972 l 808 972 l 808 317 q 717 67 808 154 q 458 -21 626 -21 q 201 67 290 -21 q 113 317 113 154 m 403 -165 q 441 -69 403 -118 q 544 17 479 -19 l 603 0 q 494 -137 494 -60 q 542 -186 494 -186 q 624 -161 578 -186 l 657 -249 q 526 -278 594 -278 q 436 -248 469 -278 q 403 -165 403 -218 z "},"ų":{"ha":754,"x_min":78,"x_max":707,"o":"m 78 258 l 78 736 l 186 736 l 186 274 q 231 128 186 175 q 369 81 276 81 q 503 133 453 81 q 554 274 554 186 l 554 736 l 663 736 l 663 0 l 557 0 l 557 68 l 554 68 q 462 3 519 28 q 338 -21 404 -21 q 146 52 214 -21 q 78 258 78 125 m 453 -165 q 491 -69 453 -118 q 594 17 529 -19 l 653 0 q 544 -137 544 -60 q 592 -186 544 -186 q 674 -161 628 -186 l 707 -249 q 576 -278 644 -278 q 486 -248 519 -278 q 453 -165 453 -218 z "},"Ŵ":{"ha":1174,"x_min":28,"x_max":1146,"o":"m 28 972 l 146 972 l 289 182 l 292 182 l 532 972 l 640 972 l 882 182 l 885 182 l 1028 972 l 1146 972 l 965 0 l 826 0 l 588 781 l 585 781 l 347 0 l 207 0 l 28 972 m 688 1028 l 586 1156 l 485 1028 l 419 1079 l 511 1197 l 661 1197 l 753 1079 l 688 1028 z "},"ŵ":{"ha":1049,"x_min":35,"x_max":1014,"o":"m 35 736 l 142 736 l 275 164 l 278 164 l 475 736 l 574 736 l 771 164 l 774 164 l 907 736 l 1014 736 l 838 0 l 735 0 l 526 601 l 524 601 l 314 0 l 211 0 l 35 736 m 626 792 l 525 919 l 424 792 l 358 843 l 450 961 l 600 961 l 692 843 l 626 792 z "},"Ŷ":{"ha":796,"x_min":0,"x_max":796,"o":"m 340 406 l 0 972 l 133 972 l 396 518 l 399 518 l 663 972 l 796 972 l 456 406 l 456 0 l 340 0 l 340 406 m 499 1028 l 397 1156 l 296 1028 l 231 1079 l 322 1197 l 472 1197 l 564 1079 l 499 1028 z "},"ŷ":{"ha":710,"x_min":14,"x_max":696,"o":"m 297 63 l 14 736 l 129 736 l 353 188 l 356 188 l 581 736 l 696 736 l 254 -312 l 142 -312 l 297 63 m 457 792 l 356 919 l 254 792 l 189 843 l 281 961 l 431 961 l 522 843 l 457 792 z "},"Ÿ":{"ha":796,"x_min":0,"x_max":796,"o":"m 340 406 l 0 972 l 133 972 l 396 518 l 399 518 l 663 972 l 796 972 l 456 406 l 456 0 l 340 0 l 340 406 m 206 1172 l 339 1172 l 339 1042 l 206 1042 l 206 1172 m 456 1172 l 589 1172 l 589 1042 l 456 1042 l 456 1172 z "},"Ź":{"ha":824,"x_min":63,"x_max":761,"o":"m 63 97 l 622 861 l 622 864 l 85 864 l 85 972 l 761 972 l 761 875 l 203 111 l 203 108 l 747 108 l 747 0 l 63 0 l 63 97 m 461 1217 l 597 1217 l 456 1056 l 358 1056 l 461 1217 z "},"ź":{"ha":694,"x_min":42,"x_max":653,"o":"m 42 97 l 510 636 l 510 639 l 58 639 l 58 736 l 642 736 l 642 639 l 174 100 l 174 97 l 653 97 l 653 0 l 42 0 l 42 97 m 385 981 l 521 981 l 379 819 l 282 819 l 385 981 z "},"Ż":{"ha":824,"x_min":63,"x_max":761,"o":"m 63 97 l 622 861 l 622 864 l 85 864 l 85 972 l 761 972 l 761 875 l 203 111 l 203 108 l 747 108 l 747 0 l 63 0 l 63 97 m 357 1186 l 490 1186 l 490 1056 l 357 1056 l 357 1186 z "},"ż":{"ha":694,"x_min":42,"x_max":653,"o":"m 42 97 l 510 636 l 510 639 l 58 639 l 58 736 l 642 736 l 642 639 l 174 100 l 174 97 l 653 97 l 653 0 l 42 0 l 42 97 m 285 986 l 410 986 l 410 865 l 285 865 l 285 986 z "},"Ž":{"ha":824,"x_min":63,"x_max":761,"o":"m 63 97 l 622 861 l 622 864 l 85 864 l 85 972 l 761 972 l 761 875 l 203 111 l 203 108 l 747 108 l 747 0 l 63 0 l 63 97 m 590 1160 l 499 1042 l 349 1042 l 257 1160 l 322 1211 l 424 1083 l 525 1211 l 590 1160 z "},"ž":{"ha":694,"x_min":42,"x_max":653,"o":"m 42 97 l 510 636 l 510 639 l 58 639 l 58 736 l 642 736 l 642 639 l 174 100 l 174 97 l 653 97 l 653 0 l 42 0 l 42 97 m 514 924 l 422 806 l 272 806 l 181 924 l 246 975 l 347 847 l 449 975 l 514 924 z "},"ſ":{"ha":379,"x_min":28,"x_max":414,"o":"m 140 638 l 28 638 l 28 736 l 140 736 l 140 838 q 184 950 140 908 q 306 992 228 992 l 414 992 l 414 890 l 318 890 q 265 874 282 890 q 249 821 249 857 l 249 0 l 140 0 l 140 638 z "},"Ǝ":{"ha":779,"x_min":76,"x_max":660,"o":"m 76 0 l 76 108 l 546 108 l 546 450 l 115 450 l 115 553 l 546 553 l 546 864 l 76 864 l 76 972 l 660 972 l 660 0 l 76 0 z "},"Ə":{"ha":933,"x_min":63,"x_max":871,"o":"m 63 486 l 63 528 l 753 528 q 671 789 749 693 q 465 885 593 885 q 301 832 369 885 q 199 675 233 779 l 92 713 q 239 922 143 850 q 465 993 335 993 q 679 931 588 993 q 821 753 771 868 q 871 485 871 638 q 821 219 871 333 q 679 42 771 104 q 465 -21 588 -21 q 253 41 344 -21 q 112 217 161 103 q 63 486 63 332 m 753 426 l 183 426 q 265 177 189 267 q 465 88 340 88 q 666 177 590 88 q 753 426 742 267 z "},"ƒ":{"ha":593,"x_min":-71,"x_max":546,"o":"m 354 817 l 339 736 l 518 736 l 518 635 l 322 635 l 214 18 l 194 -90 q 7 -242 167 -242 l -71 -242 l -71 -140 l 6 -140 q 65 -124 46 -140 q 90 -67 83 -108 l 214 635 l 54 635 l 54 736 l 231 736 l 250 842 q 311 953 264 915 q 438 992 358 992 l 546 992 l 546 890 l 439 890 q 380 874 399 890 q 354 817 361 858 z "},"Ǎ":{"ha":824,"x_min":7,"x_max":817,"o":"m 631 196 l 193 196 l 125 0 l 7 0 l 357 972 l 468 972 l 817 0 l 699 0 l 631 196 m 596 296 l 414 815 l 411 815 l 229 296 l 596 296 m 579 1160 l 488 1042 l 338 1042 l 246 1160 l 311 1211 l 413 1083 l 514 1211 l 579 1160 z "},"ǎ":{"ha":708,"x_min":64,"x_max":624,"o":"m 64 188 q 124 334 64 281 q 322 421 183 388 q 469 474 429 447 q 510 546 510 501 q 468 628 510 597 q 358 658 426 658 q 238 616 286 658 q 174 500 189 574 l 64 521 q 163 693 82 629 q 358 757 243 757 q 553 693 482 757 q 624 518 624 629 l 624 0 l 522 0 l 522 78 l 519 78 q 431 6 488 32 q 306 -21 375 -21 q 129 35 194 -21 q 64 188 64 92 m 515 249 l 515 414 l 513 414 q 463 367 501 388 q 351 328 425 347 q 213 272 254 303 q 172 194 172 242 q 209 110 172 139 q 314 81 246 81 q 459 128 403 81 q 515 249 515 175 m 525 944 l 433 826 l 283 826 l 192 944 l 257 996 l 358 868 l 460 996 l 525 944 z "},"Ǐ":{"ha":353,"x_min":10,"x_max":343,"o":"m 119 972 l 233 972 l 233 0 l 119 0 l 119 972 m 343 1160 l 251 1042 l 101 1042 l 10 1160 l 75 1211 l 176 1083 l 278 1211 l 343 1160 z "},"ǐ":{"ha":290,"x_min":-21,"x_max":313,"o":"m 92 736 l 200 736 l 200 0 l 92 0 l 92 736 m 313 924 l 221 806 l 71 806 l -21 924 l 44 975 l 146 847 l 247 975 l 313 924 z "},"Ǒ":{"ha":944,"x_min":63,"x_max":882,"o":"m 63 486 q 114 751 63 636 q 258 930 165 867 q 472 993 350 993 q 687 930 594 993 q 831 751 779 867 q 882 486 882 636 q 831 221 882 336 q 687 42 779 106 q 472 -21 594 -21 q 258 42 350 -21 q 114 221 165 106 q 63 486 63 336 m 767 486 q 731 698 767 608 q 629 836 696 788 q 472 885 563 885 q 315 836 382 885 q 213 698 249 788 q 178 486 178 608 q 213 274 178 364 q 315 136 249 185 q 472 88 382 88 q 629 136 563 88 q 731 274 696 185 q 767 486 767 364 m 639 1181 l 547 1063 l 397 1063 l 306 1181 l 371 1232 l 472 1104 l 574 1232 l 639 1181 z "},"ǒ":{"ha":819,"x_min":64,"x_max":757,"o":"m 64 368 q 107 572 64 483 q 228 708 150 660 q 410 757 307 757 q 592 708 513 757 q 714 572 671 660 q 757 368 757 483 q 714 165 757 253 q 592 28 671 76 q 410 -21 513 -21 q 228 28 307 -21 q 107 165 150 76 q 64 368 64 253 m 649 368 q 584 578 649 500 q 410 656 519 656 q 236 578 300 656 q 172 368 172 500 q 236 158 172 236 q 410 81 300 81 q 584 158 519 81 q 649 368 649 236 m 576 944 l 485 826 l 335 826 l 243 944 l 308 996 l 410 868 l 511 996 l 576 944 z "},"Ǔ":{"ha":919,"x_min":113,"x_max":808,"o":"m 113 317 l 113 972 l 226 972 l 226 325 q 285 147 226 207 q 458 88 343 88 q 633 147 574 88 q 693 322 693 207 l 693 972 l 808 972 l 808 317 q 717 67 808 154 q 458 -21 626 -21 q 201 67 290 -21 q 113 317 113 154 m 626 1160 l 535 1042 l 385 1042 l 293 1160 l 358 1211 l 460 1083 l 561 1211 l 626 1160 z "},"ǔ":{"ha":754,"x_min":78,"x_max":663,"o":"m 78 258 l 78 736 l 186 736 l 186 274 q 231 128 186 175 q 369 81 276 81 q 503 133 453 81 q 554 274 554 186 l 554 736 l 663 736 l 663 0 l 557 0 l 557 68 l 554 68 q 462 3 519 28 q 338 -21 404 -21 q 146 52 214 -21 q 78 258 78 125 m 538 924 l 446 806 l 296 806 l 204 924 l 269 975 l 371 847 l 472 975 l 538 924 z "},"Ǖ":{"ha":919,"x_min":113,"x_max":808,"o":"m 113 317 l 113 972 l 226 972 l 226 325 q 285 147 226 207 q 458 88 343 88 q 633 147 574 88 q 693 322 693 207 l 693 972 l 808 972 l 808 317 q 717 67 808 154 q 458 -21 626 -21 q 201 67 290 -21 q 113 317 113 154 m 268 1172 l 401 1172 l 401 1042 l 268 1042 l 268 1172 m 518 1172 l 651 1172 l 651 1042 l 518 1042 l 518 1172 m 275 1315 l 646 1315 l 646 1228 l 275 1228 l 275 1315 z "},"ǖ":{"ha":754,"x_min":78,"x_max":663,"o":"m 78 258 l 78 736 l 186 736 l 186 274 q 231 128 186 175 q 369 81 276 81 q 503 133 453 81 q 554 274 554 186 l 554 736 l 663 736 l 663 0 l 557 0 l 557 68 l 554 68 q 462 3 519 28 q 338 -21 404 -21 q 146 52 214 -21 q 78 258 78 125 m 179 936 l 313 936 l 313 806 l 179 806 l 179 936 m 429 936 l 563 936 l 563 806 l 429 806 l 429 936 m 186 1079 l 557 1079 l 557 992 l 186 992 l 186 1079 z "},"Ǘ":{"ha":919,"x_min":113,"x_max":808,"o":"m 113 317 l 113 972 l 226 972 l 226 325 q 285 147 226 207 q 458 88 343 88 q 633 147 574 88 q 693 322 693 207 l 693 972 l 808 972 l 808 317 q 717 67 808 154 q 458 -21 626 -21 q 201 67 290 -21 q 113 317 113 154 m 268 1172 l 401 1172 l 401 1042 l 268 1042 l 268 1172 m 518 1172 l 651 1172 l 651 1042 l 518 1042 l 518 1172 m 497 1389 l 633 1389 l 492 1228 l 394 1228 l 497 1389 z "},"ǘ":{"ha":754,"x_min":78,"x_max":663,"o":"m 78 258 l 78 736 l 186 736 l 186 274 q 231 128 186 175 q 369 81 276 81 q 503 133 453 81 q 554 274 554 186 l 554 736 l 663 736 l 663 0 l 557 0 l 557 68 l 554 68 q 462 3 519 28 q 338 -21 404 -21 q 146 52 214 -21 q 78 258 78 125 m 179 936 l 313 936 l 313 806 l 179 806 l 179 936 m 429 936 l 563 936 l 563 806 l 429 806 l 429 936 m 408 1153 l 544 1153 l 403 992 l 306 992 l 408 1153 z "},"Ǚ":{"ha":919,"x_min":113,"x_max":808,"o":"m 113 317 l 113 972 l 226 972 l 226 325 q 285 147 226 207 q 458 88 343 88 q 633 147 574 88 q 693 322 693 207 l 693 972 l 808 972 l 808 317 q 717 67 808 154 q 458 -21 626 -21 q 201 67 290 -21 q 113 317 113 154 m 268 1172 l 401 1172 l 401 1042 l 268 1042 l 268 1172 m 518 1172 l 651 1172 l 651 1042 l 518 1042 l 518 1172 m 626 1332 l 535 1214 l 385 1214 l 293 1332 l 358 1383 l 460 1256 l 561 1383 l 626 1332 z "},"ǚ":{"ha":754,"x_min":78,"x_max":663,"o":"m 78 258 l 78 736 l 186 736 l 186 274 q 231 128 186 175 q 369 81 276 81 q 503 133 453 81 q 554 274 554 186 l 554 736 l 663 736 l 663 0 l 557 0 l 557 68 l 554 68 q 462 3 519 28 q 338 -21 404 -21 q 146 52 214 -21 q 78 258 78 125 m 179 936 l 313 936 l 313 806 l 179 806 l 179 936 m 429 936 l 563 936 l 563 806 l 429 806 l 429 936 m 538 1096 l 446 978 l 296 978 l 204 1096 l 269 1147 l 371 1019 l 472 1147 l 538 1096 z "},"Ǜ":{"ha":919,"x_min":113,"x_max":808,"o":"m 113 317 l 113 972 l 226 972 l 226 325 q 285 147 226 207 q 458 88 343 88 q 633 147 574 88 q 693 322 693 207 l 693 972 l 808 972 l 808 317 q 717 67 808 154 q 458 -21 626 -21 q 201 67 290 -21 q 113 317 113 154 m 268 1172 l 401 1172 l 401 1042 l 268 1042 l 268 1172 m 518 1172 l 651 1172 l 651 1042 l 518 1042 l 518 1172 m 282 1389 l 418 1389 l 521 1228 l 424 1228 l 282 1389 z "},"ǜ":{"ha":754,"x_min":78,"x_max":663,"o":"m 78 258 l 78 736 l 186 736 l 186 274 q 231 128 186 175 q 369 81 276 81 q 503 133 453 81 q 554 274 554 186 l 554 736 l 663 736 l 663 0 l 557 0 l 557 68 l 554 68 q 462 3 519 28 q 338 -21 404 -21 q 146 52 214 -21 q 78 258 78 125 m 179 936 l 313 936 l 313 806 l 179 806 l 179 936 m 429 936 l 563 936 l 563 806 l 429 806 l 429 936 m 193 1153 l 329 1153 l 432 992 l 335 992 l 193 1153 z "},"Ǟ":{"ha":824,"x_min":7,"x_max":817,"o":"m 631 196 l 193 196 l 125 0 l 7 0 l 357 972 l 468 972 l 817 0 l 699 0 l 631 196 m 596 296 l 414 815 l 411 815 l 229 296 l 596 296 m 221 1172 l 354 1172 l 354 1042 l 221 1042 l 221 1172 m 471 1172 l 604 1172 l 604 1042 l 471 1042 l 471 1172 m 228 1315 l 599 1315 l 599 1228 l 228 1228 l 228 1315 z "},"ǟ":{"ha":708,"x_min":64,"x_max":624,"o":"m 64 188 q 124 334 64 281 q 322 421 183 388 q 469 474 429 447 q 510 546 510 501 q 468 628 510 597 q 358 658 426 658 q 238 616 286 658 q 174 500 189 574 l 64 521 q 163 693 82 629 q 358 757 243 757 q 553 693 482 757 q 624 518 624 629 l 624 0 l 522 0 l 522 78 l 519 78 q 431 6 488 32 q 306 -21 375 -21 q 129 35 194 -21 q 64 188 64 92 m 515 249 l 515 414 l 513 414 q 463 367 501 388 q 351 328 425 347 q 213 272 254 303 q 172 194 172 242 q 209 110 172 139 q 314 81 246 81 q 459 128 403 81 q 515 249 515 175 m 167 957 l 300 957 l 300 826 l 167 826 l 167 957 m 417 957 l 550 957 l 550 826 l 417 826 l 417 957 m 174 1100 l 544 1100 l 544 1013 l 174 1013 l 174 1100 z "},"Ǻ":{"ha":824,"x_min":7,"x_max":817,"o":"m 631 196 l 193 196 l 125 0 l 7 0 l 357 972 l 468 972 l 817 0 l 699 0 l 631 196 m 596 296 l 414 815 l 411 815 l 229 296 l 596 296 m 243 1063 q 291 1176 243 1131 q 413 1221 339 1221 q 534 1176 486 1221 q 582 1063 582 1132 q 534 950 582 994 q 413 906 486 906 q 291 950 339 906 q 243 1063 243 994 m 504 1063 q 478 1128 504 1103 q 413 1154 453 1154 q 347 1128 372 1154 q 322 1063 322 1103 q 347 998 322 1024 q 413 972 372 972 q 478 998 453 972 q 504 1063 504 1024 m 450 1368 l 586 1368 l 444 1207 l 347 1207 l 450 1368 z "},"ǻ":{"ha":708,"x_min":64,"x_max":624,"o":"m 199 943 q 224 1025 199 989 q 292 1076 250 1061 l 389 1228 l 525 1228 l 396 1081 q 474 1031 444 1068 q 504 943 504 994 q 461 842 504 882 q 351 803 418 803 q 242 843 286 803 q 199 943 199 883 m 269 943 q 292 885 269 908 q 351 863 315 863 q 411 885 388 863 q 435 943 435 908 q 411 1003 435 981 q 351 1026 388 1026 q 292 1003 315 1026 q 269 943 269 981 m 624 518 l 624 0 l 522 0 l 522 78 l 519 78 q 431 6 488 32 q 306 -21 375 -21 q 129 35 194 -21 q 64 188 64 92 q 124 334 64 281 q 322 421 183 388 q 469 474 429 447 q 510 546 510 501 q 468 628 510 597 q 358 658 426 658 q 238 616 286 658 q 174 500 189 574 l 64 521 q 163 693 82 629 q 358 757 243 757 q 553 693 482 757 q 624 518 624 629 m 515 414 l 513 414 q 463 367 501 388 q 351 328 425 347 q 213 272 254 303 q 172 194 172 242 q 209 110 172 139 q 314 81 246 81 q 459 128 403 81 q 515 249 515 175 l 515 414 z "},"Ǽ":{"ha":1192,"x_min":7,"x_max":1115,"o":"m 731 864 l 731 553 l 1076 553 l 1076 449 l 731 449 l 731 108 l 1115 108 l 1115 0 l 615 0 l 615 207 l 226 207 l 135 0 l 7 0 l 446 972 l 1115 972 l 1115 864 l 731 864 m 615 313 l 615 864 l 518 864 l 274 313 l 615 313 m 642 1217 l 778 1217 l 636 1056 l 539 1056 l 642 1217 z "},"ǽ":{"ha":1233,"x_min":64,"x_max":1171,"o":"m 1171 338 l 624 338 q 687 147 625 219 q 847 74 749 74 q 974 106 925 74 q 1068 224 1022 139 l 1156 168 q 1031 27 1108 75 q 850 -21 953 -21 q 693 17 764 -21 q 579 124 622 54 q 475 17 544 54 q 308 -21 406 -21 q 133 35 197 -21 q 68 188 68 92 q 106 312 68 265 q 197 380 143 358 q 335 424 250 401 q 432 453 397 440 q 490 489 467 467 q 514 547 514 511 q 472 631 514 599 q 360 663 431 663 q 233 620 285 663 q 167 503 181 578 l 64 524 q 164 694 85 632 q 357 757 243 757 q 507 725 444 757 q 599 635 569 693 q 706 724 639 692 q 850 757 772 757 q 1017 711 944 757 q 1131 583 1090 665 q 1171 392 1171 500 l 1171 338 m 1065 422 q 1003 597 1063 532 q 850 663 944 663 q 738 631 789 663 q 657 545 688 600 q 625 422 626 490 l 1065 422 m 521 418 l 518 418 q 466 369 504 386 q 356 332 428 351 q 258 301 294 315 q 197 260 222 286 q 171 194 171 235 q 208 105 171 136 q 317 74 244 74 q 423 97 376 74 q 495 160 469 121 q 521 247 521 200 l 521 418 m 656 981 l 792 981 l 650 819 l 553 819 l 656 981 z "},"Ǿ":{"ha":946,"x_min":63,"x_max":882,"o":"m 882 486 q 831 221 882 336 q 687 42 779 106 q 472 -21 594 -21 q 269 35 360 -21 l 229 -39 l 161 -1 l 207 83 q 100 253 138 150 q 63 486 63 357 q 114 751 63 636 q 258 930 165 867 q 472 993 350 993 q 676 936 588 993 l 717 1010 l 783 971 l 738 888 q 844 718 807 821 q 882 486 882 615 m 264 186 l 624 840 q 472 885 558 885 q 315 836 382 885 q 213 698 249 788 q 178 486 178 608 q 200 314 178 390 q 264 186 222 238 m 767 486 q 745 657 767 581 q 682 786 724 733 l 322 131 q 472 88 389 88 q 629 136 563 88 q 731 274 696 185 q 767 486 767 364 m 510 1238 l 646 1238 l 504 1076 l 407 1076 l 510 1238 z "},"ǿ":{"ha":821,"x_min":64,"x_max":757,"o":"m 757 368 q 714 165 757 253 q 592 28 671 76 q 411 -21 514 -21 q 200 49 289 -21 l 150 -15 l 101 21 l 157 90 q 88 213 111 142 q 64 368 64 283 q 108 572 64 483 q 230 708 151 660 q 411 757 308 757 q 624 686 536 757 l 674 750 l 722 713 l 668 643 q 734 522 711 592 q 757 368 757 451 m 221 174 l 561 607 q 411 661 500 661 q 235 581 301 661 q 168 368 168 500 q 221 174 168 253 m 653 368 q 603 560 653 483 l 263 128 q 411 75 322 75 q 588 155 522 75 q 653 368 653 235 m 449 1001 l 585 1001 l 443 840 l 346 840 l 449 1001 z "},"Ș":{"ha":836,"x_min":49,"x_max":788,"o":"m 49 322 l 163 342 q 248 150 178 213 q 450 88 318 88 q 613 131 551 88 q 674 244 674 174 q 649 331 674 294 q 566 398 624 367 q 406 461 508 429 q 221 538 288 500 q 125 623 154 576 q 96 736 96 669 q 135 869 96 811 q 246 960 175 928 q 407 993 317 993 q 640 917 544 993 q 760 710 736 840 l 647 686 q 563 834 625 783 q 406 885 500 885 q 263 844 317 885 q 210 736 210 804 q 231 671 210 699 q 303 618 253 643 q 443 565 353 593 q 646 479 571 524 q 754 379 721 435 q 788 246 788 324 q 745 107 788 168 q 626 13 703 46 q 449 -21 549 -21 q 167 67 271 -21 q 49 322 64 156 m 383 -293 q 425 -271 412 -287 q 438 -222 438 -255 l 377 -222 l 377 -89 l 521 -89 l 521 -205 q 485 -305 521 -269 q 383 -345 450 -341 l 383 -293 z "},"ș":{"ha":697,"x_min":50,"x_max":649,"o":"m 50 251 l 156 271 q 224 125 172 169 q 376 81 275 81 q 495 109 451 81 q 539 186 539 138 q 521 247 539 222 q 460 291 503 271 q 336 335 417 311 q 187 391 242 363 q 108 456 132 419 q 85 546 85 493 q 117 655 85 607 q 209 730 150 703 q 342 757 268 757 q 528 698 451 757 q 626 538 606 639 l 521 514 q 456 619 501 583 q 342 656 411 656 q 234 626 275 656 q 193 550 193 597 q 231 486 193 511 q 372 431 269 461 q 536 367 476 400 q 622 292 596 335 q 649 190 649 250 q 574 37 649 94 q 376 -21 500 -21 q 148 50 233 -21 q 50 251 63 121 m 311 -293 q 353 -271 340 -287 q 366 -222 366 -255 l 305 -222 l 305 -89 l 449 -89 l 449 -205 q 413 -305 449 -269 q 311 -345 378 -341 l 311 -293 z "},"Ț":{"ha":818,"x_min":49,"x_max":769,"o":"m 351 864 l 49 864 l 49 972 l 769 972 l 769 864 l 467 864 l 467 0 l 351 0 l 351 864 m 342 -272 q 385 -250 372 -266 q 398 -201 398 -234 l 337 -201 l 337 -68 l 481 -68 l 481 -184 q 445 -285 481 -249 q 342 -324 410 -321 l 342 -272 z "},"ț":{"ha":469,"x_min":28,"x_max":428,"o":"m 247 639 l 247 168 q 265 117 247 132 q 328 101 283 101 l 389 101 l 389 0 l 319 0 q 179 38 219 0 q 139 169 139 75 l 139 639 l 28 639 l 28 736 l 139 736 l 139 903 l 247 903 l 247 736 l 428 736 l 428 639 l 247 639 m 194 -272 q 236 -250 223 -266 q 249 -201 249 -234 l 188 -201 l 188 -68 l 332 -68 l 332 -184 q 297 -285 332 -249 q 194 -324 261 -321 l 194 -272 z "},"Ȩ":{"ha":779,"x_min":119,"x_max":703,"o":"m 119 972 l 703 972 l 703 864 l 233 864 l 233 553 l 664 553 l 664 450 l 233 450 l 233 108 l 703 108 l 703 0 l 119 0 l 119 972 m 582 -174 q 541 -265 582 -231 q 439 -300 500 -300 q 297 -244 358 -300 l 344 -187 q 439 -229 388 -229 q 488 -213 469 -229 q 506 -172 506 -197 q 487 -132 506 -147 q 440 -117 468 -117 q 364 -153 394 -117 l 304 -126 l 393 39 l 457 19 l 408 -64 q 456 -56 429 -56 q 545 -89 508 -56 q 582 -174 582 -122 z "},"ȩ":{"ha":796,"x_min":64,"x_max":733,"o":"m 64 368 q 107 572 64 483 q 227 708 150 660 q 404 757 304 757 q 577 711 503 757 q 692 583 651 665 q 733 392 733 500 l 733 336 l 174 336 q 203 206 175 265 q 283 113 232 147 q 401 78 335 78 q 529 110 479 78 q 626 225 579 143 l 717 171 q 590 28 669 76 q 404 -21 511 -21 q 226 28 303 -21 q 106 165 149 76 q 64 368 64 253 m 624 424 q 560 592 621 525 q 404 658 500 658 q 290 626 342 658 q 208 539 239 593 q 176 424 178 485 l 624 424 m 575 -193 q 534 -285 575 -250 q 432 -319 493 -319 q 290 -264 351 -319 l 338 -207 q 432 -249 381 -249 q 481 -233 463 -249 q 499 -192 499 -217 q 480 -151 499 -167 q 433 -136 461 -136 q 357 -172 388 -136 l 297 -146 l 386 19 l 450 0 l 401 -83 q 449 -75 422 -75 q 538 -108 501 -75 q 575 -193 575 -142 z "},"ȷ":{"ha":306,"x_min":-14,"x_max":215,"o":"m -14 -140 l 46 -140 q 107 -86 107 -140 l 107 736 l 215 736 l 215 -92 q 176 -206 215 -171 q 51 -242 136 -242 l -14 -242 l -14 -140 z "},"ɘ":{"ha":796,"x_min":63,"x_max":732,"o":"m 79 171 l 169 225 q 267 110 217 143 q 394 78 317 78 q 513 113 461 78 q 592 206 564 147 q 622 336 621 265 l 63 336 l 63 392 q 103 583 63 500 q 219 711 144 665 q 392 757 293 757 q 569 708 492 757 q 689 572 646 660 q 732 368 732 483 q 690 165 732 253 q 570 28 647 76 q 392 -21 493 -21 q 206 28 285 -21 q 79 171 126 76 m 392 658 q 235 592 296 658 q 172 424 175 525 l 619 424 q 588 539 618 485 q 506 626 557 593 q 392 658 454 658 z "},"ə":{"ha":796,"x_min":64,"x_max":733,"o":"m 64 344 l 64 400 l 622 400 q 592 530 621 471 q 513 624 564 589 q 394 658 461 658 q 267 626 317 658 q 169 511 218 593 l 81 561 q 207 707 128 657 q 392 757 286 757 q 570 708 493 757 q 690 572 647 660 q 733 368 733 483 q 690 165 733 253 q 569 28 647 76 q 392 -21 492 -21 q 219 25 293 -21 q 104 153 144 71 q 64 344 64 236 m 619 313 l 174 313 q 236 144 176 211 q 392 78 296 78 q 506 110 454 78 q 589 197 558 143 q 619 313 619 251 z "},"ˆ":{"ha":501,"x_min":85,"x_max":418,"o":"m 353 792 l 251 919 l 150 792 l 85 843 l 176 961 l 326 961 l 418 843 l 353 792 z "},"ˇ":{"ha":501,"x_min":85,"x_max":418,"o":"m 418 924 l 326 806 l 176 806 l 85 924 l 150 975 l 251 847 l 353 975 l 418 924 z "},"˘":{"ha":513,"x_min":85,"x_max":439,"o":"m 85 974 l 153 974 q 188 916 158 936 q 263 896 217 896 q 336 916 307 896 q 371 974 365 936 l 439 974 q 388 851 435 896 q 263 806 340 806 q 136 851 183 806 q 85 974 89 896 z "},"˙":{"ha":301,"x_min":85,"x_max":218,"o":"m 85 950 l 218 950 l 218 819 l 85 819 l 85 950 z "},"˚":{"ha":508,"x_min":85,"x_max":424,"o":"m 85 826 q 133 940 85 894 q 254 985 181 985 q 376 940 328 985 q 424 826 424 896 q 376 714 424 758 q 254 669 328 669 q 133 714 181 669 q 85 826 85 758 m 346 826 q 320 892 346 867 q 254 918 294 918 q 189 892 214 918 q 164 826 164 867 q 189 762 164 788 q 254 736 214 736 q 320 762 294 736 q 346 826 346 788 z "},"˛":{"ha":422,"x_min":85,"x_max":339,"o":"m 85 -165 q 123 -69 85 -118 q 226 17 161 -19 l 285 0 q 176 -137 176 -60 q 224 -186 176 -186 q 306 -161 260 -186 l 339 -249 q 208 -278 276 -278 q 118 -248 151 -278 q 85 -165 85 -218 z "},"˜":{"ha":564,"x_min":85,"x_max":481,"o":"m 265 843 q 232 858 249 851 q 200 865 215 865 q 150 819 160 865 l 85 819 q 122 914 89 879 q 206 949 154 949 q 253 940 232 949 q 300 918 275 932 q 333 903 317 910 q 365 896 350 896 q 415 942 406 896 l 481 942 q 444 847 476 882 q 360 813 411 813 q 312 821 333 813 q 265 843 290 829 z "},"˝":{"ha":621,"x_min":85,"x_max":538,"o":"m 188 981 l 324 981 l 182 819 l 85 819 l 188 981 m 401 981 l 538 981 l 396 819 l 299 819 l 401 981 z "},"̀":{"ha":0,"x_min":-239,"x_max":0,"o":"m -239 981 l -103 981 l 0 819 l -97 819 l -239 981 z "},"́":{"ha":0,"x_min":-239,"x_max":0,"o":"m -136 981 l 0 981 l -142 819 l -239 819 l -136 981 z "},"̂":{"ha":0,"x_min":-333,"x_max":0,"o":"m -65 792 l -167 919 l -268 792 l -333 843 l -242 961 l -92 961 l 0 843 l -65 792 z "},"̃":{"ha":0,"x_min":-396,"x_max":0,"o":"m -215 843 q -249 858 -232 851 q -281 865 -265 865 q -331 819 -321 865 l -396 819 q -359 914 -392 879 q -275 949 -326 949 q -227 940 -249 949 q -181 918 -206 932 q -147 903 -164 910 q -115 896 -131 896 q -65 942 -75 896 l 0 942 q -37 847 -4 882 q -121 813 -69 813 q -169 821 -147 813 q -215 843 -190 829 z "},"̄":{"ha":0,"x_min":-371,"x_max":0,"o":"m -371 907 l 0 907 l 0 819 l -371 819 l -371 907 z "},"̆":{"ha":0,"x_min":-354,"x_max":0,"o":"m -354 974 l -286 974 q -251 916 -281 936 q -176 896 -222 896 q -103 916 -132 896 q -68 974 -74 936 l 0 974 q -51 851 -4 896 q -176 806 -99 806 q -303 851 -256 806 q -354 974 -350 896 z "},"̇":{"ha":0,"x_min":-133,"x_max":0,"o":"m -133 950 l 0 950 l 0 819 l -133 819 l -133 950 z "},"̈":{"ha":0,"x_min":-383,"x_max":0,"o":"m -383 936 l -250 936 l -250 806 l -383 806 l -383 936 m -133 936 l 0 936 l 0 806 l -133 806 l -133 936 z "},"̊":{"ha":0,"x_min":-339,"x_max":0,"o":"m -339 826 q -291 940 -339 894 q -169 985 -243 985 q -48 940 -96 985 q 0 826 0 896 q -48 714 0 758 q -169 669 -96 669 q -291 714 -243 669 q -339 826 -339 758 m -78 826 q -103 892 -78 867 q -169 918 -129 918 q -235 892 -210 918 q -260 826 -260 867 q -235 762 -260 788 q -169 736 -210 736 q -103 762 -129 736 q -78 826 -78 788 z "},"̋":{"ha":0,"x_min":-453,"x_max":0,"o":"m -350 981 l -214 981 l -356 819 l -453 819 l -350 981 m -136 981 l 0 981 l -142 819 l -239 819 l -136 981 z "},"̌":{"ha":0,"x_min":-333,"x_max":0,"o":"m 0 924 l -92 806 l -242 806 l -333 924 l -268 975 l -167 847 l -65 975 l 0 924 z "},"̒":{"ha":0,"x_min":-153,"x_max":0,"o":"m -6 1024 q -51 1001 -37 1018 q -65 953 -65 985 l 0 953 l 0 819 l -153 819 l -153 935 q -115 1036 -153 1000 q -6 1075 -78 1072 l -6 1024 z "},"̣":{"ha":0,"x_min":-133,"x_max":0,"o":"m -133 -68 l 0 -68 l 0 -199 l -133 -199 l -133 -68 z "},"̦":{"ha":0,"x_min":-144,"x_max":0,"o":"m -137 -274 q -95 -251 -108 -268 q -82 -203 -82 -235 l -144 -203 l -144 -69 l 0 -69 l 0 -185 q -35 -286 0 -250 q -137 -325 -71 -322 l -137 -274 z "},"̧":{"ha":0,"x_min":-285,"x_max":0,"o":"m 0 -174 q -41 -265 0 -231 q -143 -300 -82 -300 q -285 -244 -224 -300 l -237 -187 q -143 -229 -194 -229 q -94 -213 -112 -229 q -76 -172 -76 -197 q -95 -132 -76 -147 q -142 -117 -114 -117 q -218 -153 -187 -117 l -278 -126 l -189 39 l -125 19 l -174 -64 q -126 -56 -153 -56 q -37 -89 -74 -56 q 0 -174 0 -122 z "},"̨":{"ha":0,"x_min":-254,"x_max":0,"o":"m -254 -165 q -216 -69 -254 -118 q -112 17 -178 -19 l -54 0 q -162 -137 -162 -60 q -115 -186 -162 -186 q -33 -161 -79 -186 l 0 -249 q -131 -278 -62 -278 q -221 -248 -187 -278 q -254 -165 -254 -218 z "},"̵":{"ha":0,"x_min":-489,"x_max":0,"o":"m -489 547 l 0 547 l 0 451 l -489 451 l -489 547 z "},"̶":{"ha":0,"x_min":-892,"x_max":0,"o":"m -892 547 l 0 547 l 0 451 l -892 451 l -892 547 z "},"̷":{"ha":0,"x_min":-618,"x_max":0,"o":"m -618 25 l -49 754 l 0 717 l -569 -12 l -618 25 z "},"̸":{"ha":0,"x_min":-622,"x_max":0,"o":"m -622 0 l -67 1011 l 0 972 l -554 -37 l -622 0 z "},"Δ":{"ha":825,"x_min":7,"x_max":818,"o":"m 818 0 l 7 0 l 358 972 l 469 972 l 818 0 m 664 101 l 414 815 l 411 815 l 161 101 l 664 101 z "},"Ω":{"ha":944,"x_min":63,"x_max":882,"o":"m 682 94 l 863 94 l 863 0 l 522 0 l 522 92 q 646 164 590 106 q 734 311 701 222 q 767 500 767 400 q 731 703 767 617 q 628 838 694 790 q 472 885 561 885 q 317 838 383 885 q 214 703 250 790 q 178 500 178 617 q 210 311 178 400 q 298 164 242 222 q 421 92 354 106 l 421 0 l 79 0 l 79 94 l 258 94 l 258 97 q 115 261 168 153 q 63 500 63 369 q 114 757 63 644 q 258 931 165 869 q 472 993 351 993 q 686 931 593 993 q 831 757 779 869 q 882 500 882 644 q 828 260 882 368 q 682 97 775 153 l 682 94 z "},"μ":{"ha":768,"x_min":92,"x_max":676,"o":"m 676 736 l 676 0 l 571 0 l 571 68 l 568 68 q 483 3 536 28 q 371 -21 431 -21 q 203 36 264 -21 l 200 36 l 200 -312 l 92 -312 l 92 736 l 200 736 l 200 274 q 245 128 200 175 q 383 81 290 81 q 517 133 467 81 q 568 274 568 186 l 568 736 l 676 736 z "},"π":{"ha":897,"x_min":28,"x_max":828,"o":"m 679 635 l 679 182 q 697 119 679 136 q 760 101 714 101 l 821 101 l 821 0 l 739 0 q 612 40 653 0 q 571 167 571 81 l 571 635 l 281 635 l 281 0 l 172 0 l 172 635 l 28 635 l 28 736 l 828 736 l 828 635 l 679 635 z "},"฿":{"ha":903,"x_min":133,"x_max":826,"o":"m 486 0 l 486 -153 l 418 -153 l 418 0 l 133 0 l 133 972 l 418 972 l 418 1113 l 486 1113 l 486 972 l 507 972 q 713 903 635 972 q 790 721 790 835 q 760 597 790 650 q 675 521 729 544 l 675 518 q 785 433 744 494 q 826 288 826 371 q 740 74 826 147 q 486 0 653 0 m 247 560 l 418 560 l 418 864 l 247 864 l 247 560 m 486 864 l 486 560 q 675 715 675 560 q 486 864 675 864 m 418 108 l 418 458 l 247 458 l 247 108 l 418 108 m 711 288 q 659 417 711 376 q 486 458 607 457 l 486 108 q 658 154 604 111 q 711 288 711 197 z "},"Ḅ":{"ha":876,"x_min":119,"x_max":813,"o":"m 119 972 l 493 972 q 699 903 621 972 q 776 721 776 835 q 746 597 776 650 q 663 521 715 544 l 663 518 q 772 433 731 494 q 813 288 813 371 q 726 74 813 147 q 471 0 639 0 l 119 0 l 119 972 m 472 560 q 661 715 661 560 q 613 826 661 789 q 472 864 565 864 l 233 864 l 233 560 l 472 560 m 456 108 q 640 151 582 108 q 697 288 697 193 q 642 418 697 378 q 458 458 586 458 l 233 458 l 233 108 l 456 108 m 372 -68 l 506 -68 l 506 -199 l 372 -199 l 372 -68 z "},"ḅ":{"ha":814,"x_min":92,"x_max":750,"o":"m 199 74 l 196 74 l 196 0 l 92 0 l 92 1014 l 200 1014 l 200 658 l 203 658 q 296 731 239 704 q 419 757 353 757 q 590 708 515 757 q 708 570 665 658 q 750 368 750 482 q 708 166 750 254 q 590 28 665 78 q 419 -21 515 -21 q 293 4 351 -21 q 199 74 235 29 m 642 368 q 614 519 642 454 q 535 620 586 585 q 419 656 485 656 q 308 627 358 656 q 229 549 258 599 q 200 440 200 499 l 200 297 q 228 188 200 238 q 306 110 257 139 q 413 81 356 81 q 579 159 517 81 q 642 368 642 238 m 357 -89 l 490 -89 l 490 -219 l 357 -219 l 357 -89 z "},"Ḍ":{"ha":904,"x_min":119,"x_max":842,"o":"m 119 972 l 422 972 q 641 915 546 972 q 789 747 736 857 q 842 488 842 638 q 728 120 842 240 q 414 0 614 0 l 119 0 l 119 972 m 407 108 q 644 199 561 108 q 726 488 726 289 q 643 767 726 671 q 415 864 560 864 l 233 864 l 233 108 l 407 108 m 382 -68 l 515 -68 l 515 -199 l 382 -199 l 382 -68 z "},"ḍ":{"ha":814,"x_min":64,"x_max":722,"o":"m 64 368 q 106 570 64 482 q 224 708 149 658 q 394 757 299 757 q 518 731 461 757 q 611 658 575 704 l 614 658 l 614 1014 l 722 1014 l 722 0 l 618 0 l 618 74 l 615 74 q 521 4 579 29 q 394 -21 463 -21 q 224 28 299 -21 q 106 166 149 78 q 64 368 64 254 m 614 297 l 614 440 q 585 549 614 499 q 506 627 556 599 q 394 656 456 656 q 278 620 329 656 q 200 519 228 585 q 172 368 172 454 q 235 159 172 238 q 401 81 297 81 q 508 110 458 81 q 585 188 557 139 q 614 297 614 238 m 342 -68 l 475 -68 l 475 -199 l 342 -199 l 342 -68 z "},"Ḥ":{"ha":906,"x_min":119,"x_max":786,"o":"m 119 972 l 233 972 l 233 550 l 672 550 l 672 972 l 786 972 l 786 0 l 672 0 l 672 450 l 233 450 l 233 0 l 119 0 l 119 972 m 386 -68 l 519 -68 l 519 -199 l 386 -199 l 386 -68 z "},"ḥ":{"ha":771,"x_min":92,"x_max":686,"o":"m 92 1014 l 200 1014 l 200 668 l 203 668 q 290 732 233 707 q 407 757 347 757 q 610 681 535 757 q 686 478 686 606 l 686 0 l 578 0 l 578 463 q 528 604 578 553 q 394 656 479 656 q 253 602 307 656 q 200 463 200 549 l 200 0 l 92 0 l 92 1014 m 322 -68 l 456 -68 l 456 -199 l 322 -199 l 322 -68 z "},"Ḷ":{"ha":721,"x_min":119,"x_max":672,"o":"m 119 972 l 233 972 l 233 108 l 672 108 l 672 0 l 119 0 l 119 972 m 329 -68 l 463 -68 l 463 -199 l 329 -199 l 329 -68 z "},"ḷ":{"ha":290,"x_min":79,"x_max":213,"o":"m 92 1014 l 200 1014 l 200 0 l 92 0 l 92 1014 m 79 -68 l 213 -68 l 213 -199 l 79 -199 l 79 -68 z "},"Ṅ":{"ha":933,"x_min":119,"x_max":814,"o":"m 119 972 l 254 972 l 696 179 l 699 179 l 699 972 l 814 972 l 814 0 l 678 0 l 236 793 l 233 793 l 233 0 l 119 0 l 119 972 m 400 1186 l 533 1186 l 533 1056 l 400 1056 l 400 1186 z "},"ṅ":{"ha":771,"x_min":92,"x_max":686,"o":"m 92 736 l 197 736 l 197 668 l 200 668 q 290 733 233 708 q 407 757 347 757 q 610 681 535 757 q 686 476 686 604 l 686 0 l 578 0 l 578 463 q 528 604 578 553 q 394 656 479 656 q 253 602 307 656 q 200 463 200 549 l 200 0 l 92 0 l 92 736 m 339 971 l 472 971 l 472 840 l 339 840 l 339 971 z "},"Ṇ":{"ha":933,"x_min":119,"x_max":814,"o":"m 119 972 l 254 972 l 696 179 l 699 179 l 699 972 l 814 972 l 814 0 l 678 0 l 236 793 l 233 793 l 233 0 l 119 0 l 119 972 m 411 -68 l 544 -68 l 544 -199 l 411 -199 l 411 -68 z "},"ṇ":{"ha":771,"x_min":92,"x_max":686,"o":"m 92 736 l 197 736 l 197 668 l 200 668 q 290 733 233 708 q 407 757 347 757 q 610 681 535 757 q 686 476 686 604 l 686 0 l 578 0 l 578 463 q 528 604 578 553 q 394 656 479 656 q 253 602 307 656 q 200 463 200 549 l 200 0 l 92 0 l 92 736 m 322 -68 l 456 -68 l 456 -199 l 322 -199 l 322 -68 z "},"Ṍ":{"ha":944,"x_min":63,"x_max":882,"o":"m 63 486 q 114 751 63 636 q 258 930 165 867 q 472 993 350 993 q 687 930 594 993 q 831 751 779 867 q 882 486 882 636 q 831 221 882 336 q 687 42 779 106 q 472 -21 594 -21 q 258 42 350 -21 q 114 221 165 106 q 63 486 63 336 m 767 486 q 731 698 767 608 q 629 836 696 788 q 472 885 563 885 q 315 836 382 885 q 213 698 249 788 q 178 486 178 608 q 213 274 178 364 q 315 136 249 185 q 472 88 382 88 q 629 136 563 88 q 731 274 696 185 q 767 486 767 364 m 454 1100 q 421 1115 438 1108 q 389 1122 404 1122 q 339 1076 349 1122 l 274 1076 q 310 1171 278 1136 q 394 1206 343 1206 q 442 1197 421 1206 q 489 1175 464 1189 q 522 1160 506 1167 q 554 1153 539 1153 q 604 1199 594 1153 l 669 1199 q 633 1104 665 1139 q 549 1069 600 1069 q 501 1078 522 1069 q 454 1100 479 1086 m 510 1408 l 646 1408 l 504 1247 l 407 1247 l 510 1408 z "},"ṍ":{"ha":819,"x_min":64,"x_max":757,"o":"m 64 368 q 107 572 64 483 q 228 708 150 660 q 410 757 307 757 q 592 708 513 757 q 714 572 671 660 q 757 368 757 483 q 714 165 757 253 q 592 28 671 76 q 410 -21 513 -21 q 228 28 307 -21 q 107 165 150 76 q 64 368 64 253 m 649 368 q 584 578 649 500 q 410 656 519 656 q 236 578 300 656 q 172 368 172 500 q 236 158 172 236 q 410 81 300 81 q 584 158 519 81 q 649 368 649 236 m 392 864 q 358 879 375 872 q 326 886 342 886 q 276 840 286 886 l 211 840 q 248 935 215 900 q 332 969 281 969 q 380 961 358 969 q 426 939 401 953 q 460 924 443 931 q 492 917 476 917 q 542 963 532 917 l 607 963 q 570 868 603 903 q 486 833 538 833 q 438 842 460 833 q 392 864 417 850 m 447 1172 l 583 1172 l 442 1011 l 344 1011 l 447 1172 z "},"Ṣ":{"ha":836,"x_min":49,"x_max":788,"o":"m 49 322 l 163 342 q 248 150 178 213 q 450 88 318 88 q 613 131 551 88 q 674 244 674 174 q 649 331 674 294 q 566 398 624 367 q 406 461 508 429 q 221 538 288 500 q 125 623 154 576 q 96 736 96 669 q 135 869 96 811 q 246 960 175 928 q 407 993 317 993 q 640 917 544 993 q 760 710 736 840 l 647 686 q 563 834 625 783 q 406 885 500 885 q 263 844 317 885 q 210 736 210 804 q 231 671 210 699 q 303 618 253 643 q 443 565 353 593 q 646 479 571 524 q 754 379 721 435 q 788 246 788 324 q 745 107 788 168 q 626 13 703 46 q 449 -21 549 -21 q 167 67 271 -21 q 49 322 64 156 m 382 -89 l 515 -89 l 515 -219 l 382 -219 l 382 -89 z "},"ṣ":{"ha":697,"x_min":50,"x_max":649,"o":"m 50 251 l 156 271 q 224 125 172 169 q 376 81 275 81 q 495 109 451 81 q 539 186 539 138 q 521 247 539 222 q 460 291 503 271 q 336 335 417 311 q 187 391 242 363 q 108 456 132 419 q 85 546 85 493 q 117 655 85 607 q 209 730 150 703 q 342 757 268 757 q 528 698 451 757 q 626 538 606 639 l 521 514 q 456 619 501 583 q 342 656 411 656 q 234 626 275 656 q 193 550 193 597 q 231 486 193 511 q 372 431 269 461 q 536 367 476 400 q 622 292 596 335 q 649 190 649 250 q 574 37 649 94 q 376 -21 500 -21 q 148 50 233 -21 q 50 251 63 121 m 310 -89 l 443 -89 l 443 -219 l 310 -219 l 310 -89 z "},"Ṭ":{"ha":818,"x_min":49,"x_max":769,"o":"m 351 864 l 49 864 l 49 972 l 769 972 l 769 864 l 467 864 l 467 0 l 351 0 l 351 864 m 342 -68 l 475 -68 l 475 -199 l 342 -199 l 342 -68 z "},"ṭ":{"ha":469,"x_min":28,"x_max":428,"o":"m 247 639 l 247 168 q 265 117 247 132 q 328 101 283 101 l 389 101 l 389 0 l 319 0 q 179 38 219 0 q 139 169 139 75 l 139 639 l 28 639 l 28 736 l 139 736 l 139 903 l 247 903 l 247 736 l 428 736 l 428 639 l 247 639 m 193 -68 l 326 -68 l 326 -199 l 193 -199 l 193 -68 z "},"Ẁ":{"ha":1174,"x_min":28,"x_max":1146,"o":"m 28 972 l 146 972 l 289 182 l 292 182 l 532 972 l 640 972 l 882 182 l 885 182 l 1028 972 l 1146 972 l 965 0 l 826 0 l 588 781 l 585 781 l 347 0 l 207 0 l 28 972 m 408 1217 l 544 1217 l 647 1056 l 550 1056 l 408 1217 z "},"ẁ":{"ha":1049,"x_min":35,"x_max":1014,"o":"m 35 736 l 142 736 l 275 164 l 278 164 l 475 736 l 574 736 l 771 164 l 774 164 l 907 736 l 1014 736 l 838 0 l 735 0 l 526 601 l 524 601 l 314 0 l 211 0 l 35 736 m 347 981 l 483 981 l 586 819 l 489 819 l 347 981 z "},"Ẃ":{"ha":1174,"x_min":28,"x_max":1146,"o":"m 28 972 l 146 972 l 289 182 l 292 182 l 532 972 l 640 972 l 882 182 l 885 182 l 1028 972 l 1146 972 l 965 0 l 826 0 l 588 781 l 585 781 l 347 0 l 207 0 l 28 972 m 624 1217 l 760 1217 l 618 1056 l 521 1056 l 624 1217 z "},"ẃ":{"ha":1049,"x_min":35,"x_max":1014,"o":"m 35 736 l 142 736 l 275 164 l 278 164 l 475 736 l 574 736 l 771 164 l 774 164 l 907 736 l 1014 736 l 838 0 l 735 0 l 526 601 l 524 601 l 314 0 l 211 0 l 35 736 m 563 981 l 699 981 l 557 819 l 460 819 l 563 981 z "},"Ẅ":{"ha":1174,"x_min":28,"x_max":1146,"o":"m 28 972 l 146 972 l 289 182 l 292 182 l 532 972 l 640 972 l 882 182 l 885 182 l 1028 972 l 1146 972 l 965 0 l 826 0 l 588 781 l 585 781 l 347 0 l 207 0 l 28 972 m 394 1172 l 528 1172 l 528 1042 l 394 1042 l 394 1172 m 644 1172 l 778 1172 l 778 1042 l 644 1042 l 644 1172 z "},"ẅ":{"ha":1049,"x_min":35,"x_max":1014,"o":"m 35 736 l 142 736 l 275 164 l 278 164 l 475 736 l 574 736 l 771 164 l 774 164 l 907 736 l 1014 736 l 838 0 l 735 0 l 526 601 l 524 601 l 314 0 l 211 0 l 35 736 m 333 936 l 467 936 l 467 806 l 333 806 l 333 936 m 583 936 l 717 936 l 717 806 l 583 806 l 583 936 z "},"Ẓ":{"ha":824,"x_min":63,"x_max":761,"o":"m 63 97 l 622 861 l 622 864 l 85 864 l 85 972 l 761 972 l 761 875 l 203 111 l 203 108 l 747 108 l 747 0 l 63 0 l 63 97 m 346 -68 l 479 -68 l 479 -199 l 346 -199 l 346 -68 z "},"ẓ":{"ha":694,"x_min":42,"x_max":653,"o":"m 42 97 l 510 636 l 510 639 l 58 639 l 58 736 l 642 736 l 642 639 l 174 100 l 174 97 l 653 97 l 653 0 l 42 0 l 42 97 m 281 -68 l 414 -68 l 414 -199 l 281 -199 l 281 -68 z "},"Ạ":{"ha":824,"x_min":7,"x_max":817,"o":"m 631 196 l 193 196 l 125 0 l 7 0 l 357 972 l 468 972 l 817 0 l 699 0 l 631 196 m 596 296 l 414 815 l 411 815 l 229 296 l 596 296 m 346 -68 l 479 -68 l 479 -199 l 346 -199 l 346 -68 z "},"ạ":{"ha":708,"x_min":64,"x_max":624,"o":"m 64 188 q 124 334 64 281 q 322 421 183 388 q 469 474 429 447 q 510 546 510 501 q 468 628 510 597 q 358 658 426 658 q 238 616 286 658 q 174 500 189 574 l 64 521 q 163 693 82 629 q 358 757 243 757 q 553 693 482 757 q 624 518 624 629 l 624 0 l 522 0 l 522 78 l 519 78 q 431 6 488 32 q 306 -21 375 -21 q 129 35 194 -21 q 64 188 64 92 m 515 249 l 515 414 l 513 414 q 463 367 501 388 q 351 328 425 347 q 213 272 254 303 q 172 194 172 242 q 209 110 172 139 q 314 81 246 81 q 459 128 403 81 q 515 249 515 175 m 296 -89 l 429 -89 l 429 -219 l 296 -219 l 296 -89 z "},"Ậ":{"ha":824,"x_min":7,"x_max":817,"o":"m 631 196 l 193 196 l 125 0 l 7 0 l 357 972 l 468 972 l 817 0 l 699 0 l 631 196 m 596 296 l 414 815 l 411 815 l 229 296 l 596 296 m 514 1028 l 413 1156 l 311 1028 l 246 1079 l 338 1197 l 488 1197 l 579 1079 l 514 1028 m 346 -68 l 479 -68 l 479 -199 l 346 -199 l 346 -68 z "},"ậ":{"ha":708,"x_min":64,"x_max":624,"o":"m 64 188 q 124 334 64 281 q 322 421 183 388 q 469 474 429 447 q 510 546 510 501 q 468 628 510 597 q 358 658 426 658 q 238 616 286 658 q 174 500 189 574 l 64 521 q 163 693 82 629 q 358 757 243 757 q 553 693 482 757 q 624 518 624 629 l 624 0 l 522 0 l 522 78 l 519 78 q 431 6 488 32 q 306 -21 375 -21 q 129 35 194 -21 q 64 188 64 92 m 515 249 l 515 414 l 513 414 q 463 367 501 388 q 351 328 425 347 q 213 272 254 303 q 172 194 172 242 q 209 110 172 139 q 314 81 246 81 q 459 128 403 81 q 515 249 515 175 m 460 813 l 358 940 l 257 813 l 192 864 l 283 982 l 433 982 l 525 864 l 460 813 m 296 -89 l 429 -89 l 429 -219 l 296 -219 l 296 -89 z "},"Ẹ":{"ha":779,"x_min":119,"x_max":703,"o":"m 119 972 l 703 972 l 703 864 l 233 864 l 233 553 l 664 553 l 664 450 l 233 450 l 233 108 l 703 108 l 703 0 l 119 0 l 119 972 m 344 -68 l 478 -68 l 478 -199 l 344 -199 l 344 -68 z "},"ẹ":{"ha":796,"x_min":64,"x_max":733,"o":"m 64 368 q 107 572 64 483 q 227 708 150 660 q 404 757 304 757 q 577 711 503 757 q 692 583 651 665 q 733 392 733 500 l 733 336 l 174 336 q 203 206 175 265 q 283 113 232 147 q 401 78 335 78 q 529 110 479 78 q 626 225 579 143 l 717 171 q 590 28 669 76 q 404 -21 511 -21 q 226 28 303 -21 q 106 165 149 76 q 64 368 64 253 m 624 424 q 560 592 621 525 q 404 658 500 658 q 290 626 342 658 q 208 539 239 593 q 176 424 178 485 l 624 424 m 338 -89 l 471 -89 l 471 -219 l 338 -219 l 338 -89 z "},"Ẽ":{"ha":779,"x_min":119,"x_max":703,"o":"m 119 972 l 703 972 l 703 864 l 233 864 l 233 553 l 664 553 l 664 450 l 233 450 l 233 108 l 703 108 l 703 0 l 119 0 l 119 972 m 408 1079 q 375 1094 392 1088 q 343 1101 358 1101 q 293 1056 303 1101 l 228 1056 q 265 1150 232 1115 q 349 1185 297 1185 q 397 1176 375 1185 q 443 1154 418 1168 q 476 1139 460 1146 q 508 1132 493 1132 q 558 1178 549 1132 l 624 1178 q 587 1083 619 1118 q 503 1049 554 1049 q 455 1057 476 1049 q 408 1079 433 1065 z "},"ẽ":{"ha":796,"x_min":64,"x_max":733,"o":"m 64 368 q 107 572 64 483 q 227 708 150 660 q 404 757 304 757 q 577 711 503 757 q 692 583 651 665 q 733 392 733 500 l 733 336 l 174 336 q 203 206 175 265 q 283 113 232 147 q 401 78 335 78 q 529 110 479 78 q 626 225 579 143 l 717 171 q 590 28 669 76 q 404 -21 511 -21 q 226 28 303 -21 q 106 165 149 76 q 64 368 64 253 m 624 424 q 560 592 621 525 q 404 658 500 658 q 290 626 342 658 q 208 539 239 593 q 176 424 178 485 l 624 424 m 386 864 q 353 879 369 872 q 321 886 336 886 q 271 840 281 886 l 206 840 q 242 935 210 900 q 326 969 275 969 q 374 961 353 969 q 421 939 396 953 q 454 924 438 931 q 486 917 471 917 q 536 963 526 917 l 601 963 q 565 868 597 903 q 481 833 532 833 q 433 842 454 833 q 386 864 411 850 z "},"Ệ":{"ha":779,"x_min":119,"x_max":703,"o":"m 119 972 l 703 972 l 703 864 l 233 864 l 233 553 l 664 553 l 664 450 l 233 450 l 233 108 l 703 108 l 703 0 l 119 0 l 119 972 m 528 1028 l 426 1156 l 325 1028 l 260 1079 l 351 1197 l 501 1197 l 593 1079 l 528 1028 m 344 -68 l 478 -68 l 478 -199 l 344 -199 l 344 -68 z "},"ệ":{"ha":796,"x_min":64,"x_max":733,"o":"m 64 368 q 107 572 64 483 q 227 708 150 660 q 404 757 304 757 q 577 711 503 757 q 692 583 651 665 q 733 392 733 500 l 733 336 l 174 336 q 203 206 175 265 q 283 113 232 147 q 401 78 335 78 q 529 110 479 78 q 626 225 579 143 l 717 171 q 590 28 669 76 q 404 -21 511 -21 q 226 28 303 -21 q 106 165 149 76 q 64 368 64 253 m 624 424 q 560 592 621 525 q 404 658 500 658 q 290 626 342 658 q 208 539 239 593 q 176 424 178 485 l 624 424 m 506 813 l 404 940 l 303 813 l 238 864 l 329 982 l 479 982 l 571 864 l 506 813 m 338 -89 l 471 -89 l 471 -219 l 338 -219 l 338 -89 z "},"Ị":{"ha":353,"x_min":110,"x_max":243,"o":"m 119 972 l 233 972 l 233 0 l 119 0 l 119 972 m 110 -68 l 243 -68 l 243 -199 l 110 -199 l 110 -68 z "},"ị":{"ha":290,"x_min":72,"x_max":207,"o":"m 92 736 l 200 736 l 200 0 l 92 0 l 92 736 m 82 986 l 207 986 l 207 865 l 82 865 l 82 986 m 72 -68 l 206 -68 l 206 -199 l 72 -199 l 72 -68 z "},"Ọ":{"ha":944,"x_min":63,"x_max":882,"o":"m 63 486 q 114 751 63 636 q 258 930 165 867 q 472 993 350 993 q 687 930 594 993 q 831 751 779 867 q 882 486 882 636 q 831 221 882 336 q 687 42 779 106 q 472 -21 594 -21 q 258 42 350 -21 q 114 221 165 106 q 63 486 63 336 m 767 486 q 731 698 767 608 q 629 836 696 788 q 472 885 563 885 q 315 836 382 885 q 213 698 249 788 q 178 486 178 608 q 213 274 178 364 q 315 136 249 185 q 472 88 382 88 q 629 136 563 88 q 731 274 696 185 q 767 486 767 364 m 406 -89 l 539 -89 l 539 -219 l 406 -219 l 406 -89 z "},"ọ":{"ha":819,"x_min":64,"x_max":757,"o":"m 64 368 q 107 572 64 483 q 228 708 150 660 q 410 757 307 757 q 592 708 513 757 q 714 572 671 660 q 757 368 757 483 q 714 165 757 253 q 592 28 671 76 q 410 -21 513 -21 q 228 28 307 -21 q 107 165 150 76 q 64 368 64 253 m 649 368 q 584 578 649 500 q 410 656 519 656 q 236 578 300 656 q 172 368 172 500 q 236 158 172 236 q 410 81 300 81 q 584 158 519 81 q 649 368 649 236 m 343 -89 l 476 -89 l 476 -219 l 343 -219 l 343 -89 z "},"Ộ":{"ha":944,"x_min":63,"x_max":882,"o":"m 63 486 q 114 751 63 636 q 258 930 165 867 q 472 993 350 993 q 687 930 594 993 q 831 751 779 867 q 882 486 882 636 q 831 221 882 336 q 687 42 779 106 q 472 -21 594 -21 q 258 42 350 -21 q 114 221 165 106 q 63 486 63 336 m 767 486 q 731 698 767 608 q 629 836 696 788 q 472 885 563 885 q 315 836 382 885 q 213 698 249 788 q 178 486 178 608 q 213 274 178 364 q 315 136 249 185 q 472 88 382 88 q 629 136 563 88 q 731 274 696 185 q 767 486 767 364 m 574 1049 l 472 1176 l 371 1049 l 306 1100 l 397 1218 l 547 1218 l 639 1100 l 574 1049 m 406 -89 l 539 -89 l 539 -219 l 406 -219 l 406 -89 z "},"ộ":{"ha":819,"x_min":64,"x_max":757,"o":"m 64 368 q 107 572 64 483 q 228 708 150 660 q 410 757 307 757 q 592 708 513 757 q 714 572 671 660 q 757 368 757 483 q 714 165 757 253 q 592 28 671 76 q 410 -21 513 -21 q 228 28 307 -21 q 107 165 150 76 q 64 368 64 253 m 649 368 q 584 578 649 500 q 410 656 519 656 q 236 578 300 656 q 172 368 172 500 q 236 158 172 236 q 410 81 300 81 q 584 158 519 81 q 649 368 649 236 m 511 813 l 410 940 l 308 813 l 243 864 l 335 982 l 485 982 l 576 864 l 511 813 m 343 -89 l 476 -89 l 476 -219 l 343 -219 l 343 -89 z "},"Ụ":{"ha":919,"x_min":113,"x_max":808,"o":"m 113 317 l 113 972 l 226 972 l 226 325 q 285 147 226 207 q 458 88 343 88 q 633 147 574 88 q 693 322 693 207 l 693 972 l 808 972 l 808 317 q 717 67 808 154 q 458 -21 626 -21 q 201 67 290 -21 q 113 317 113 154 m 392 -89 l 525 -89 l 525 -219 l 392 -219 l 392 -89 z "},"ụ":{"ha":754,"x_min":78,"x_max":663,"o":"m 78 258 l 78 736 l 186 736 l 186 274 q 231 128 186 175 q 369 81 276 81 q 503 133 453 81 q 554 274 554 186 l 554 736 l 663 736 l 663 0 l 557 0 l 557 68 l 554 68 q 462 3 519 28 q 338 -21 404 -21 q 146 52 214 -21 q 78 258 78 125 m 271 -89 l 404 -89 l 404 -219 l 271 -219 l 271 -89 z "},"Ỳ":{"ha":796,"x_min":0,"x_max":796,"o":"m 340 406 l 0 972 l 133 972 l 396 518 l 399 518 l 663 972 l 796 972 l 456 406 l 456 0 l 340 0 l 340 406 m 219 1217 l 356 1217 l 458 1056 l 361 1056 l 219 1217 z "},"ỳ":{"ha":710,"x_min":14,"x_max":696,"o":"m 297 63 l 14 736 l 129 736 l 353 188 l 356 188 l 581 736 l 696 736 l 254 -312 l 142 -312 l 297 63 m 178 981 l 314 981 l 417 819 l 319 819 l 178 981 z "},"Ỵ":{"ha":796,"x_min":0,"x_max":796,"o":"m 340 406 l 0 972 l 133 972 l 396 518 l 399 518 l 663 972 l 796 972 l 456 406 l 456 0 l 340 0 l 340 406 m 331 -68 l 464 -68 l 464 -199 l 331 -199 l 331 -68 z "},"ỵ":{"ha":710,"x_min":14,"x_max":696,"o":"m 297 63 l 14 736 l 129 736 l 353 188 l 356 188 l 581 736 l 696 736 l 254 -312 l 142 -312 l 297 63 m 426 -68 l 560 -68 l 560 -199 l 426 -199 l 426 -68 z "},"Ỹ":{"ha":796,"x_min":0,"x_max":796,"o":"m 340 406 l 0 972 l 133 972 l 396 518 l 399 518 l 663 972 l 796 972 l 456 406 l 456 0 l 340 0 l 340 406 m 379 1079 q 346 1094 363 1088 q 314 1101 329 1101 q 264 1056 274 1101 l 199 1056 q 235 1150 203 1115 q 319 1185 268 1185 q 367 1176 346 1185 q 414 1154 389 1168 q 447 1139 431 1146 q 479 1132 464 1132 q 529 1178 519 1132 l 594 1178 q 558 1083 590 1118 q 474 1049 525 1049 q 426 1057 447 1049 q 379 1079 404 1065 z "},"ỹ":{"ha":710,"x_min":14,"x_max":696,"o":"m 297 63 l 14 736 l 129 736 l 353 188 l 356 188 l 581 736 l 696 736 l 254 -312 l 142 -312 l 297 63 m 338 843 q 304 858 321 851 q 272 865 288 865 q 222 819 232 865 l 157 819 q 194 914 161 879 q 278 949 226 949 q 326 940 304 949 q 372 918 347 932 q 406 903 389 910 q 438 896 422 896 q 488 942 478 896 l 553 942 q 516 847 549 882 q 432 813 483 813 q 384 821 406 813 q 338 843 363 829 z "}," ":{"ha":1042,"x_min":0,"x_max":0,"o":""}," ":{"ha":1389,"x_min":0,"x_max":0,"o":""}," ":{"ha":486,"x_min":0,"x_max":0,"o":""}," ":{"ha":347,"x_min":0,"x_max":0,"o":""}," ":{"ha":903,"x_min":0,"x_max":0,"o":""}," ":{"ha":418,"x_min":0,"x_max":0,"o":""}," ":{"ha":208,"x_min":0,"x_max":0,"o":""}," ":{"ha":104,"x_min":0,"x_max":0,"o":""},"​":{"ha":0,"x_min":0,"x_max":0,"o":""},"–":{"ha":771,"x_min":71,"x_max":700,"o":"m 71 464 l 700 464 l 700 360 l 71 360 l 71 464 z "},"—":{"ha":1167,"x_min":71,"x_max":1096,"o":"m 71 464 l 1096 464 l 1096 360 l 71 360 l 71 464 z "},"‘":{"ha":365,"x_min":97,"x_max":267,"o":"m 260 911 q 210 885 225 904 q 194 828 194 867 l 267 828 l 267 671 l 97 671 l 97 807 q 139 926 97 883 q 260 972 181 968 l 260 911 z "},"’":{"ha":365,"x_min":99,"x_max":268,"o":"m 106 732 q 156 758 140 739 q 171 815 171 776 l 99 815 l 99 972 l 268 972 l 268 836 q 226 717 268 760 q 106 671 185 675 l 106 732 z "},"‚":{"ha":421,"x_min":126,"x_max":296,"o":"m 133 -83 q 183 -58 168 -76 q 199 0 199 -39 l 126 0 l 126 157 l 296 157 l 296 21 q 254 -98 296 -56 q 133 -144 213 -140 l 133 -83 z "},"“":{"ha":653,"x_min":125,"x_max":526,"o":"m 288 911 q 238 885 253 904 q 222 828 222 867 l 294 828 l 294 671 l 125 671 l 125 807 q 167 926 125 883 q 288 972 208 968 l 288 911 m 519 911 q 469 885 485 904 q 454 828 454 867 l 526 828 l 526 671 l 357 671 l 357 807 q 399 926 357 883 q 519 972 440 968 l 519 911 z "},"”":{"ha":653,"x_min":126,"x_max":528,"o":"m 133 732 q 183 758 168 739 q 199 815 199 776 l 126 815 l 126 972 l 296 972 l 296 836 q 254 717 296 760 q 133 671 213 675 l 133 732 m 365 732 q 415 758 400 739 q 431 815 431 776 l 358 815 l 358 972 l 528 972 l 528 836 q 486 717 528 760 q 365 671 444 675 l 365 732 z "},"„":{"ha":653,"x_min":126,"x_max":528,"o":"m 133 -83 q 183 -58 168 -76 q 199 0 199 -39 l 126 0 l 126 157 l 296 157 l 296 21 q 254 -98 296 -56 q 133 -144 213 -140 l 133 -83 m 365 -83 q 415 -58 400 -76 q 431 0 431 -39 l 358 0 l 358 157 l 528 157 l 528 21 q 486 -98 528 -56 q 365 -144 444 -140 l 365 -83 z "},"†":{"ha":865,"x_min":71,"x_max":794,"o":"m 375 628 l 71 628 l 71 736 l 375 736 l 375 1056 l 490 1056 l 490 736 l 794 736 l 794 628 l 490 628 l 490 -272 l 375 -272 l 375 628 z "},"‡":{"ha":865,"x_min":71,"x_max":794,"o":"m 375 50 l 71 50 l 71 158 l 375 158 l 375 628 l 71 628 l 71 736 l 375 736 l 375 1054 l 490 1054 l 490 736 l 794 736 l 794 628 l 490 628 l 490 158 l 794 158 l 794 50 l 490 50 l 490 -272 l 375 -272 l 375 50 z "},"•":{"ha":497,"x_min":126,"x_max":372,"o":"m 126 528 q 160 617 126 582 q 249 653 193 653 q 338 617 304 653 q 372 528 372 582 q 338 439 372 474 q 249 404 304 404 q 160 439 193 404 q 126 528 126 474 z "},"…":{"ha":1063,"x_min":126,"x_max":938,"o":"m 449 161 l 614 161 l 614 0 l 449 0 l 449 161 m 126 161 l 292 161 l 292 0 l 126 0 l 126 161 m 772 161 l 938 161 l 938 0 l 772 0 l 772 161 z "},"‰":{"ha":1964,"x_min":85,"x_max":1881,"o":"m 322 -50 l 999 1076 l 1085 1024 l 410 -100 l 322 -50 m 85 681 q 150 903 85 821 q 328 985 215 985 q 508 903 442 985 q 574 681 574 821 q 508 458 574 540 q 328 376 442 376 q 150 458 215 376 q 85 681 85 540 m 469 681 q 433 836 469 782 q 328 890 397 890 q 224 836 260 890 q 189 681 189 782 q 224 525 189 579 q 328 471 260 471 q 433 525 397 471 q 469 681 469 579 m 821 292 q 886 514 821 432 q 1064 596 951 596 q 1244 514 1178 596 q 1310 292 1310 432 q 1244 69 1310 151 q 1064 -12 1178 -12 q 886 69 951 -12 q 821 292 821 151 m 1392 292 q 1457 514 1392 432 q 1635 596 1522 596 q 1815 514 1749 596 q 1881 292 1881 432 q 1815 69 1881 151 q 1635 -12 1749 -12 q 1457 69 1522 -12 q 1392 292 1392 151 m 1204 292 q 1168 447 1204 393 q 1064 501 1132 501 q 960 447 996 501 q 925 292 925 393 q 960 136 925 190 q 1064 82 996 82 q 1168 136 1132 82 q 1204 292 1204 190 m 1776 292 q 1740 447 1776 393 q 1635 501 1704 501 q 1532 447 1568 501 q 1496 292 1496 393 q 1532 136 1496 190 q 1635 82 1568 82 q 1740 136 1704 82 q 1776 292 1776 190 z "},"‹":{"ha":447,"x_min":99,"x_max":364,"o":"m 99 390 l 251 649 l 364 649 l 207 390 l 364 132 l 251 132 l 99 390 z "},"›":{"ha":447,"x_min":83,"x_max":349,"o":"m 83 132 l 240 390 l 83 649 l 196 649 l 349 390 l 196 132 l 83 132 z "},"⁄":{"ha":286,"x_min":-235,"x_max":521,"o":"m -235 -51 l 443 1076 l 521 1028 l -154 -97 l -235 -51 z "},"⁺":{"ha":600,"x_min":85,"x_max":517,"o":"m 517 250 l 346 250 l 346 76 l 254 76 l 254 250 l 85 250 l 85 331 l 254 331 l 254 506 l 346 506 l 346 331 l 517 331 l 517 250 z "},"⁻":{"ha":558,"x_min":85,"x_max":475,"o":"m 85 331 l 475 331 l 475 250 l 85 250 l 85 331 z "},"₤":{"ha":764,"x_min":56,"x_max":722,"o":"m 722 507 q 671 242 722 357 q 527 63 619 126 q 313 0 435 0 l 197 0 l 197 463 l 90 424 l 56 513 l 197 564 l 197 672 l 90 633 l 56 722 l 197 774 l 197 972 l 313 972 l 313 817 l 540 900 l 572 811 l 313 715 l 313 607 l 540 690 l 572 600 l 313 506 l 313 108 q 469 157 403 108 q 572 295 536 206 q 607 507 607 385 l 722 507 z "},"₨":{"ha":807,"x_min":92,"x_max":751,"o":"m 589 875 l 589 872 q 664 736 647 821 l 751 736 l 751 633 l 665 633 q 589 479 651 539 q 422 403 526 419 l 422 400 l 639 0 l 504 0 l 297 396 l 92 396 l 92 503 l 335 503 q 481 536 426 503 q 547 633 535 569 l 92 633 l 92 736 l 549 736 q 481 831 535 799 q 335 864 426 864 l 92 864 l 92 972 l 751 972 l 751 875 l 589 875 z "},"₩":{"ha":1265,"x_min":28,"x_max":1238,"o":"m 1118 597 l 1097 483 l 1238 483 l 1238 390 l 1081 390 l 1007 0 l 881 0 l 760 390 l 506 390 l 385 0 l 258 0 l 185 390 l 28 390 l 28 483 l 168 483 l 147 597 l 28 597 l 28 689 l 129 689 l 76 972 l 183 972 l 236 689 l 496 689 l 583 972 l 683 972 l 769 689 l 1029 689 l 1082 972 l 1189 972 l 1136 689 l 1238 689 l 1238 597 l 1118 597 m 599 689 l 668 689 l 635 797 l 632 797 l 599 689 m 274 483 l 433 483 l 468 597 l 253 597 l 274 483 m 732 483 l 696 597 l 569 597 l 535 483 l 732 483 m 1013 597 l 799 597 l 833 483 l 992 483 l 1013 597 m 404 390 l 290 390 l 332 165 l 335 165 l 404 390 m 975 390 l 861 390 l 931 165 l 933 165 l 975 390 z "},"€":{"ha":1089,"x_min":35,"x_max":1026,"o":"m 1026 343 q 899 76 1008 174 q 614 -21 789 -21 q 333 73 447 -21 q 181 331 218 167 l 35 331 l 35 432 l 165 432 q 164 486 164 450 q 165 532 164 517 l 35 532 l 35 633 l 179 633 q 332 897 217 800 q 614 993 447 993 q 888 901 778 993 q 1022 654 999 810 l 913 636 q 813 823 889 758 q 614 888 736 888 q 410 821 493 888 q 294 633 326 754 l 694 633 l 694 532 l 278 532 q 276 486 276 517 q 279 432 276 468 l 597 432 l 597 331 l 296 331 q 412 149 329 213 q 614 85 494 85 q 818 155 742 85 q 911 358 894 225 l 1026 343 z "},"₽":{"ha":974,"x_min":56,"x_max":896,"o":"m 311 264 l 586 264 l 586 163 l 311 163 l 311 0 l 196 0 l 196 163 l 56 163 l 56 264 l 196 264 l 196 375 l 56 375 l 56 476 l 196 476 l 196 972 l 571 972 q 810 892 724 972 q 896 672 896 811 q 810 453 896 532 q 571 375 725 375 l 311 375 l 311 264 m 311 483 l 564 483 q 728 529 675 483 q 781 672 781 575 q 727 817 781 769 q 564 864 674 864 l 311 864 l 311 483 z "},"№":{"ha":1486,"x_min":113,"x_max":1417,"o":"m 933 681 q 998 903 933 821 q 1175 985 1063 985 q 1351 903 1286 985 q 1417 681 1417 821 q 1351 458 1417 540 q 1175 376 1286 376 q 998 458 1063 376 q 933 681 933 540 m 113 972 l 247 972 l 689 179 l 692 179 l 692 972 l 807 972 l 807 0 l 672 0 l 231 793 l 228 793 l 228 0 l 113 0 l 113 972 m 1313 681 q 1277 834 1313 781 q 1175 888 1242 888 q 1073 834 1108 888 q 1038 681 1038 781 q 1073 527 1038 581 q 1175 474 1108 474 q 1277 527 1242 474 q 1313 681 1313 581 m 933 297 l 1417 297 l 1417 200 l 933 200 l 933 297 z "},"℗":{"ha":996,"x_min":71,"x_max":925,"o":"m 71 450 q 127 667 71 569 q 281 819 183 764 q 497 875 378 875 q 715 819 617 875 q 869 667 813 764 q 925 450 925 569 q 869 233 925 331 q 715 78 813 135 q 497 22 617 22 q 281 78 378 22 q 127 233 183 135 q 71 450 71 331 m 846 450 q 801 631 846 550 q 676 758 756 713 q 497 804 597 804 q 319 758 399 804 q 194 631 239 713 q 149 450 149 550 q 194 268 149 350 q 319 140 239 186 q 497 93 399 93 q 676 140 597 93 q 801 268 756 186 q 846 450 846 350 m 367 689 l 546 689 q 671 648 626 689 q 715 533 715 607 q 670 421 715 461 q 546 381 625 381 l 461 381 l 461 203 l 367 203 l 367 689 m 539 460 q 599 481 576 460 q 621 535 621 501 q 600 590 621 571 q 540 610 579 610 l 461 610 l 461 460 l 539 460 z "},"™":{"ha":1072,"x_min":64,"x_max":1003,"o":"m 203 894 l 64 894 l 64 972 l 424 972 l 424 894 l 285 894 l 285 501 l 203 501 l 203 894 m 488 972 l 600 972 l 744 619 l 746 619 l 892 972 l 1003 972 l 1003 501 l 921 501 l 921 853 l 919 853 l 776 501 l 713 501 l 571 853 l 569 853 l 569 501 l 488 501 l 488 972 z "},"⅛":{"ha":1211,"x_min":35,"x_max":1169,"o":"m 181 868 l 35 781 l 35 882 l 186 972 l 278 972 l 278 389 l 181 389 l 181 868 m 142 -51 l 819 1076 l 897 1028 l 222 -97 l 142 -51 m 704 164 q 732 257 704 217 q 810 322 760 297 l 810 324 q 756 372 775 342 q 736 438 736 401 q 792 551 736 507 q 938 596 849 596 q 1081 551 1025 596 q 1138 438 1138 507 q 1118 371 1138 400 q 1065 324 1099 342 l 1065 322 q 1142 257 1115 297 q 1169 164 1169 217 q 1107 35 1169 83 q 938 -12 1044 -12 q 767 35 831 -12 q 704 164 704 83 m 1049 433 q 1017 492 1049 469 q 938 515 986 515 q 859 492 889 515 q 829 433 829 469 q 858 374 829 397 q 938 351 888 351 q 1018 374 988 351 q 1049 433 1049 397 m 1072 176 q 1035 249 1072 221 q 938 276 997 276 q 840 249 878 276 q 801 176 801 221 q 838 102 801 129 q 938 75 875 75 q 1036 102 1000 75 q 1072 176 1072 129 z "},"⅜":{"ha":1349,"x_min":35,"x_max":1307,"o":"m 35 585 l 131 599 q 171 499 138 533 q 264 465 204 465 q 347 491 317 465 q 376 561 376 517 q 258 653 376 653 l 208 653 l 208 732 l 249 732 q 329 753 301 732 q 357 814 357 775 q 329 874 357 850 q 257 897 301 897 q 179 872 210 897 q 142 800 149 846 l 46 815 q 114 939 57 893 q 257 985 171 985 q 399 940 343 985 q 454 824 454 894 q 438 758 454 788 q 383 703 421 729 l 383 701 q 472 553 472 656 q 415 425 472 474 q 264 376 357 376 q 103 431 163 376 q 35 585 43 485 m 279 -51 l 957 1076 l 1035 1028 l 360 -97 l 279 -51 m 842 164 q 869 257 842 217 q 947 322 897 297 l 947 324 q 893 372 913 342 q 874 438 874 401 q 930 551 874 507 q 1075 596 986 596 q 1219 551 1163 596 q 1275 438 1275 507 q 1256 371 1275 400 q 1203 324 1236 342 l 1203 322 q 1280 257 1253 297 q 1307 164 1307 217 q 1244 35 1307 83 q 1075 -12 1182 -12 q 905 35 968 -12 q 842 164 842 83 m 1186 433 q 1155 492 1186 469 q 1075 515 1124 515 q 997 492 1026 515 q 967 433 967 469 q 996 374 967 397 q 1075 351 1025 351 q 1156 374 1125 351 q 1186 433 1186 397 m 1210 176 q 1172 249 1210 221 q 1075 276 1135 276 q 977 249 1015 276 q 939 176 939 221 q 976 102 939 129 q 1075 75 1013 75 q 1174 102 1138 75 q 1210 176 1210 129 z "},"⅝":{"ha":1374,"x_min":42,"x_max":1332,"o":"m 42 539 l 133 568 q 181 491 144 518 q 272 464 217 464 q 364 498 328 464 q 400 583 400 532 q 365 669 400 636 q 272 701 329 701 q 201 687 235 701 q 143 644 168 672 l 54 669 l 111 972 l 439 972 l 439 883 l 185 883 l 160 747 l 161 746 q 283 781 214 781 q 438 726 378 781 q 497 585 497 671 q 468 478 497 525 q 388 403 439 431 q 272 376 336 376 q 121 421 183 376 q 42 539 58 465 m 304 -51 l 982 1076 l 1060 1028 l 385 -97 l 304 -51 m 867 164 q 894 257 867 217 q 972 322 922 297 l 972 324 q 918 372 938 342 q 899 438 899 401 q 955 551 899 507 q 1100 596 1011 596 q 1244 551 1188 596 q 1300 438 1300 507 q 1281 371 1300 400 q 1228 324 1261 342 l 1228 322 q 1305 257 1278 297 q 1332 164 1332 217 q 1269 35 1332 83 q 1100 -12 1207 -12 q 930 35 993 -12 q 867 164 867 83 m 1211 433 q 1180 492 1211 469 q 1100 515 1149 515 q 1022 492 1051 515 q 992 433 992 469 q 1021 374 992 397 q 1100 351 1050 351 q 1181 374 1150 351 q 1211 433 1211 397 m 1235 176 q 1197 249 1235 221 q 1100 276 1160 276 q 1002 249 1040 276 q 964 176 964 221 q 1001 102 964 129 q 1100 75 1038 75 q 1199 102 1163 75 q 1235 176 1235 129 z "},"⅞":{"ha":1218,"x_min":0,"x_max":1176,"o":"m 308 882 l 308 883 l 0 883 l 0 972 l 418 972 l 418 890 l 181 389 l 71 389 l 308 882 m 149 -51 l 826 1076 l 904 1028 l 229 -97 l 149 -51 m 711 164 q 739 257 711 217 q 817 322 767 297 l 817 324 q 763 372 782 342 q 743 438 743 401 q 799 551 743 507 q 944 596 856 596 q 1088 551 1032 596 q 1144 438 1144 507 q 1125 371 1144 400 q 1072 324 1106 342 l 1072 322 q 1149 257 1122 297 q 1176 164 1176 217 q 1114 35 1176 83 q 944 -12 1051 -12 q 774 35 838 -12 q 711 164 711 83 m 1056 433 q 1024 492 1056 469 q 944 515 993 515 q 866 492 896 515 q 836 433 836 469 q 865 374 836 397 q 944 351 894 351 q 1025 374 994 351 q 1056 433 1056 397 m 1079 176 q 1042 249 1079 221 q 944 276 1004 276 q 847 249 885 276 q 808 176 808 221 q 845 102 808 129 q 944 75 882 75 q 1043 102 1007 75 q 1079 176 1079 129 z "},"←":{"ha":1000,"x_min":71,"x_max":929,"o":"m 929 431 l 267 431 l 500 214 l 426 138 l 71 481 l 426 824 l 500 747 l 268 532 l 929 532 l 929 431 z "},"↑":{"ha":826,"x_min":71,"x_max":756,"o":"m 679 483 l 467 713 l 467 57 l 358 57 l 358 713 l 147 483 l 71 560 l 413 915 l 756 560 l 679 483 z "},"→":{"ha":1000,"x_min":71,"x_max":929,"o":"m 929 481 l 574 138 l 500 214 l 733 431 l 71 431 l 71 532 l 732 532 l 500 747 l 574 824 l 929 481 z "},"↓":{"ha":826,"x_min":71,"x_max":756,"o":"m 756 414 l 413 58 l 71 414 l 147 490 l 358 261 l 358 917 l 467 917 l 467 261 l 679 490 l 756 414 z "},"↔":{"ha":1182,"x_min":71,"x_max":1111,"o":"m 1111 481 l 753 138 l 683 213 l 921 433 l 261 433 l 499 213 l 428 138 l 71 481 l 428 824 l 499 749 l 264 529 l 918 529 l 683 749 l 753 824 l 1111 481 z "},"↕":{"ha":826,"x_min":71,"x_max":756,"o":"m 681 411 l 756 339 l 413 -18 l 71 339 l 146 411 l 364 178 l 364 794 l 146 561 l 71 633 l 413 990 l 756 633 l 681 561 l 461 796 l 461 176 l 681 411 z "},"↖":{"ha":786,"x_min":71,"x_max":715,"o":"m 640 163 l 174 629 l 183 317 l 82 314 l 71 806 l 561 794 l 560 692 l 249 703 l 715 239 l 640 163 z "},"↗":{"ha":786,"x_min":71,"x_max":715,"o":"m 538 703 l 226 692 l 225 794 l 715 806 l 704 314 l 603 317 l 613 629 l 146 163 l 71 239 l 538 703 z "},"↘":{"ha":786,"x_min":71,"x_max":715,"o":"m 146 806 l 613 339 l 603 651 l 704 654 l 715 163 l 225 174 l 226 276 l 538 265 l 71 729 l 146 806 z "},"↙":{"ha":786,"x_min":71,"x_max":715,"o":"m 249 271 l 560 282 l 561 179 l 71 168 l 82 660 l 183 657 l 174 344 l 640 811 l 715 735 l 249 271 z "},"↳":{"ha":1018,"x_min":140,"x_max":947,"o":"m 947 481 l 592 138 l 518 214 l 751 431 l 140 431 l 140 972 l 247 972 l 247 532 l 750 532 l 518 747 l 592 824 l 947 481 z "},"∂":{"ha":808,"x_min":64,"x_max":746,"o":"m 746 583 q 385 -21 746 -21 q 150 70 236 -21 q 64 319 64 161 q 101 518 64 433 q 209 649 139 603 q 374 694 279 694 q 626 639 514 694 q 429 986 614 986 q 293 913 367 986 l 218 989 q 319 1068 265 1042 q 429 1094 374 1094 q 664 963 582 1094 q 746 583 746 831 m 626 526 q 383 590 503 590 q 231 519 285 590 q 178 319 178 449 q 234 150 178 213 q 385 88 290 88 q 559 199 497 88 q 626 526 621 310 z "},"∅":{"ha":1165,"x_min":71,"x_max":1094,"o":"m 1094 486 q 1027 228 1094 344 q 842 46 960 113 q 582 -21 725 -21 q 282 72 411 -21 l 157 -71 l 86 -11 l 211 132 q 108 292 144 201 q 71 486 71 383 q 138 744 71 628 q 322 926 206 860 q 582 993 439 993 q 881 903 749 993 l 1010 1050 l 1081 989 l 953 842 q 1058 682 1021 774 q 1094 486 1094 590 m 281 213 l 813 824 q 582 892 711 892 q 377 840 468 892 q 234 694 286 788 q 182 486 182 601 q 208 335 182 406 q 281 213 233 265 m 983 486 q 957 638 983 567 q 883 763 931 708 l 350 150 q 582 81 450 81 q 788 133 696 81 q 931 278 879 185 q 983 486 983 371 z "},"∏":{"ha":1079,"x_min":49,"x_max":1031,"o":"m 229 864 l 49 864 l 49 972 l 1031 972 l 1031 864 l 850 864 l 850 -196 l 736 -196 l 736 864 l 344 864 l 344 -196 l 229 -196 l 229 864 z "},"∑":{"ha":838,"x_min":99,"x_max":775,"o":"m 99 -39 l 454 417 l 99 872 l 99 972 l 775 972 l 775 864 l 246 864 l 603 417 l 246 -31 l 775 -31 l 775 -139 l 99 -139 l 99 -39 z "},"−":{"ha":750,"x_min":85,"x_max":665,"o":"m 85 557 l 665 557 l 665 464 l 85 464 l 85 557 z "},"√":{"ha":914,"x_min":29,"x_max":899,"o":"m 899 972 l 504 0 l 396 0 l 204 469 l 29 469 l 29 578 l 282 578 l 447 156 l 450 156 l 771 972 l 899 972 z "},"∞":{"ha":1004,"x_min":85,"x_max":919,"o":"m 85 421 q 114 558 85 497 q 195 654 143 619 q 313 689 247 689 q 423 653 371 689 q 503 560 475 618 q 583 653 531 617 q 692 689 635 689 q 809 654 757 689 q 890 558 861 619 q 919 421 919 497 q 890 283 919 344 q 809 188 861 222 q 692 153 757 153 q 583 189 635 153 q 503 282 531 225 q 423 188 475 224 q 313 153 371 153 q 195 188 247 153 q 114 283 143 222 q 85 421 85 344 m 468 421 q 315 593 418 593 q 218 547 254 593 q 182 421 182 500 q 218 295 182 342 q 315 249 254 249 q 468 421 418 249 m 822 421 q 786 547 822 500 q 689 593 750 593 q 600 549 639 593 q 536 421 561 506 q 600 292 561 336 q 689 249 639 249 q 786 295 750 249 q 822 421 822 342 z "},"∫":{"ha":668,"x_min":85,"x_max":585,"o":"m 85 -225 q 201 -210 161 -225 q 259 -158 242 -194 q 276 -51 276 -121 l 276 760 q 307 921 276 861 q 405 1008 338 981 q 585 1035 472 1035 l 585 926 q 467 911 508 926 q 409 859 426 896 q 392 753 392 822 l 392 -58 q 361 -219 392 -160 q 264 -306 331 -279 q 85 -333 197 -333 l 85 -225 z "},"≈":{"ha":847,"x_min":85,"x_max":763,"o":"m 85 533 q 154 669 103 621 q 279 717 206 717 q 363 700 326 717 q 450 651 400 683 q 512 616 486 628 q 563 604 538 604 q 625 630 601 604 q 668 718 649 656 l 763 688 q 691 553 742 601 q 567 506 640 506 q 481 522 519 506 q 396 569 443 539 q 334 605 358 593 q 283 617 310 617 q 222 592 246 617 q 179 506 197 567 l 85 533 m 85 290 q 154 426 103 378 q 279 474 206 474 q 363 457 326 474 q 450 408 400 440 q 512 373 486 385 q 563 361 538 361 q 625 387 601 361 q 668 475 649 413 l 763 444 q 691 310 742 358 q 567 263 640 263 q 481 279 519 263 q 396 326 443 296 q 334 362 358 350 q 283 374 310 374 q 222 349 246 374 q 179 263 197 324 l 85 290 z "},"≠":{"ha":768,"x_min":85,"x_max":685,"o":"m 472 571 l 382 410 l 685 410 l 685 310 l 326 310 l 240 157 l 175 196 l 239 310 l 85 310 l 85 410 l 294 410 l 385 571 l 85 571 l 85 671 l 440 671 l 526 824 l 593 786 l 528 671 l 685 671 l 685 571 l 472 571 z "},"≤":{"ha":772,"x_min":85,"x_max":688,"o":"m 85 497 l 85 592 l 625 917 l 679 832 l 197 544 l 679 256 l 625 172 l 85 497 m 85 0 l 85 101 l 688 101 l 688 0 l 85 0 z "},"≥":{"ha":772,"x_min":85,"x_max":688,"o":"m 93 256 l 575 544 l 93 832 l 147 917 l 688 592 l 688 497 l 147 172 l 93 256 m 85 101 l 688 101 l 688 0 l 85 0 l 85 101 z "},"◊":{"ha":918,"x_min":85,"x_max":833,"o":"m 85 486 l 383 972 l 535 972 l 833 486 l 535 0 l 383 0 l 85 486 m 715 486 l 458 897 l 203 486 l 458 75 l 715 486 z "},"":{"ha":953,"x_min":69,"x_max":883,"o":"m 69 588 q 125 789 69 696 q 274 938 181 882 q 475 993 368 993 q 678 938 583 993 q 828 789 772 882 q 883 588 883 696 l 883 0 l 844 0 l 754 90 l 660 0 l 572 90 l 474 0 l 378 90 l 290 0 l 197 90 l 106 0 l 69 0 l 69 588 m 399 524 q 370 594 399 565 q 300 624 342 624 q 231 594 260 624 q 201 524 201 565 q 231 455 201 483 q 300 426 260 426 q 369 455 340 426 q 399 524 399 483 m 753 524 q 724 594 753 565 q 653 624 694 624 q 584 594 613 624 q 556 524 556 565 q 585 456 556 485 q 653 426 614 426 q 723 456 693 426 q 753 524 753 485 z "},"ﬁ":{"ha":743,"x_min":28,"x_max":660,"o":"m 660 986 l 660 865 l 535 865 l 535 986 l 660 986 m 656 736 l 656 0 l 547 0 l 547 639 l 263 639 l 263 0 l 154 0 l 154 639 l 28 639 l 28 736 l 154 736 l 154 817 q 198 930 154 888 q 319 972 242 972 l 428 972 l 428 871 l 332 871 q 263 801 263 871 l 263 736 l 656 736 z "},"ﬂ":{"ha":746,"x_min":28,"x_max":656,"o":"m 656 1014 l 656 0 l 547 0 l 547 639 l 263 639 l 263 0 l 154 0 l 154 639 l 28 639 l 28 736 l 154 736 l 154 817 q 198 930 154 888 q 319 972 242 972 l 428 972 l 428 871 l 332 871 q 263 801 263 871 l 263 736 l 547 736 l 547 1014 l 656 1014 z "},"﻿":{"ha":0,"x_min":0,"x_max":0,"o":""}}}
